<svg width="141" height="142" viewBox="0 0 141 142" fill="none" xmlns="http://www.w3.org/2000/svg">
<path fill-rule="evenodd" clip-rule="evenodd" d="M85.7539 1.90703C86.4817 1.26512 88.1051 0.419706 89.0507 0.190224C89.4573 0.0915843 89.9639 0.00613235 90.1764 0.000300192C90.7359 -0.0149141 91.778 0.550426 92.3634 1.18689C92.9348 1.80802 93.0984 2.45221 92.9791 3.6104C92.721 6.11645 90.2236 8.15415 87.2286 8.30262C86.2002 8.35359 86.1511 8.3716 83.7747 9.57492C81.3652 10.7949 81.3633 10.7961 79.7772 12.305C78.3977 13.6174 76.4435 15.1543 75.4302 15.7237C75.185 15.8615 74.1604 15.9192 70.8755 15.9805C67.6309 16.0411 66.3503 16.0281 65.3055 16.5179C64.5146 16.8885 63.8588 17.5472 62.5885 18.7437C60.0862 21.1008 57.4164 22.8919 55.1201 23.7539C53.6259 24.3148 51.4095 24.6876 50.8506 24.472C50.1988 24.2205 50.2325 23.5091 50.9133 23.1504C51.1415 23.0301 51.7356 22.6336 52.2335 22.2692C52.7313 21.9049 53.7277 21.1827 54.4476 20.6645C55.8609 19.6469 57.1195 18.6197 57.0446 18.5445C56.9967 18.4966 56.1514 18.6518 53.7322 19.153C52.5812 19.3913 51.9296 19.442 49.964 19.4464C47.9875 19.4505 47.5665 19.4195 47.4626 19.2612C47.3194 19.0432 47.4248 18.2653 47.6315 18.0147C47.9192 17.6659 49.3156 17.0766 50.7371 16.704C53.0815 16.0897 56.5354 14.6846 57.945 13.7719C58.4114 13.47 59.1618 13.0269 59.6127 12.7872C60.0635 12.5475 60.899 11.9113 61.4695 11.3736C62.0399 10.8358 62.6389 10.368 62.8006 10.3339C64.2359 10.032 68.5797 9.62652 70.3856 9.62589L71.2562 9.62564C71.5552 9.62556 71.8372 9.48669 72.0197 9.24975L72.2783 8.91373C72.5798 8.52221 73.0676 8.01735 73.3624 7.7918C74.7315 6.74404 74.7647 6.69751 74.6997 5.91182C74.6501 5.31263 74.6916 5.11219 74.9602 4.65462C75.1076 4.40328 75.3367 4.09277 75.5134 3.8996C75.574 3.83338 75.6474 3.77782 75.7336 3.7529C75.7892 3.73683 75.8372 3.73057 75.8773 3.72532C76.0248 3.70606 76.067 3.70055 75.9928 3.27446C75.9588 3.07966 75.9748 2.87573 76.0687 2.70172C76.4344 2.02411 76.841 1.93125 77.9966 1.66733C78.1244 1.63813 78.2614 1.60684 78.4086 1.57242C79.1907 1.38952 79.7936 1.50629 79.986 1.55449C80.0297 1.56544 80.0706 1.58197 80.1104 1.60317C80.3434 1.72742 81.2078 2.2238 81.7442 3.01311C82.3881 3.96059 82.5717 4.10589 83.4368 4.35388C84.2191 4.57816 84.413 4.54482 84.413 4.18652C84.413 3.73187 85.1981 2.39744 85.7539 1.90703ZM114 19.4243C114.438 18.8284 114.806 18.5529 115.506 18.2964C116.361 17.9831 117.217 18.2757 118.134 19.1953C118.813 19.8754 118.959 20.3477 119.043 22.13C119.115 23.6511 118.995 24.2411 118.357 25.518C118.188 25.8563 118.071 26.1538 118.096 26.1793C118.122 26.2048 118.801 26.3957 119.605 26.6035C120.995 26.9629 123.217 27.8438 124.111 28.3902C124.339 28.5295 124.581 28.7905 124.65 28.97C124.718 29.1495 124.935 29.5347 125.132 29.8258C125.483 30.3425 126.451 33.2651 126.61 34.2854C126.653 34.5643 126.796 35.306 126.928 35.9336C127.059 36.5612 127.348 38.0161 127.569 39.1666C127.963 41.2104 127.969 41.2953 127.832 42.8472C127.656 44.8306 127.329 45.9295 126.674 46.734C126.401 47.0697 125.811 47.7957 125.362 48.3475C124.199 49.779 124.091 50.2479 124.513 52.0175C124.648 52.5853 124.819 53.5061 124.894 54.064C125.23 56.5936 125.415 57.5808 125.623 57.963C125.81 58.305 125.847 58.6861 125.843 60.2131C125.838 62.2862 125.743 62.622 125.159 62.622C124.826 62.622 124.735 62.5093 124.105 61.3225C123.726 60.6077 123.214 59.4809 122.968 58.8185C122.308 57.0468 121.588 55.4293 120.957 54.3009C120.194 52.9361 119.86 52.1205 119.53 50.8088L119.343 50.0702C119.302 49.9067 119.096 49.8535 118.981 49.9765C118.834 50.1331 118.562 50.6034 118.376 51.0215C118.19 51.4397 117.82 52.2668 117.554 52.8595C117.288 53.4522 116.922 54.5363 116.74 55.2685C116.558 56.0006 116.199 57.1702 115.943 57.8676C115.687 58.5649 115.249 60.0142 114.969 61.0882C114.44 63.1216 114.244 63.4744 113.831 63.131C113.657 62.9867 113.632 62.7738 113.68 61.8705C113.934 57.1365 114.133 52.5563 114.138 51.334C114.149 48.9427 114.413 48.3132 116.517 45.6535C117.725 44.1273 118.045 43.7763 118.047 43.4232C118.048 43.2566 117.978 43.0896 117.898 42.7984C117.779 42.3699 117.458 41.1635 117.185 40.1175C116.911 39.0715 116.438 37.6167 116.133 36.8845C115.829 36.1523 115.446 35.1681 115.282 34.6974L115.209 34.4883C115.074 34.1011 114.709 33.8416 114.299 33.8416H113.552H113.085C112.552 33.8416 112.121 34.2735 112.121 34.8061L112.121 34.8876C112.122 35.7018 112.233 36.3549 112.625 37.8354C112.901 38.8814 113.305 40.4856 113.522 41.4003C113.884 42.9261 113.904 43.123 113.767 43.7853C113.685 44.1824 113.405 44.9174 113.146 45.4186C111.83 47.961 110.825 49.7444 110.095 50.8313C109.651 51.4937 109.223 52.2351 109.145 52.4792C109.045 52.7933 109.025 54.5639 109.076 58.5418C109.115 61.6321 109.107 64.2709 109.057 64.4057C108.999 64.5598 108.846 64.6506 108.643 64.6506C108.4 64.6506 108.278 64.5497 108.146 64.2386C108.049 64.012 107.798 63.4271 107.586 62.939C107.375 62.4509 107.063 61.6807 106.893 61.2274C106.724 60.7741 106.345 59.8898 106.051 59.2622C105.758 58.6346 105.314 57.6077 105.064 56.9801C104.631 55.8919 104.61 55.7715 104.622 54.381C104.633 53.0857 104.946 49.4879 105.087 49.0372C105.117 48.9429 105.178 48.6989 105.223 48.4949C105.295 48.1656 105.282 48.143 105.102 48.2924C104.991 48.385 104.691 48.8371 104.436 49.2972C104.18 49.7572 103.722 50.5225 103.417 50.9978C102.767 52.0085 101.145 55.3689 100.673 56.6802C100.493 57.1809 100.208 58.1663 100.04 58.8701C99.2832 62.0459 98.0694 65.1578 97.5876 65.1578C97.5259 65.1578 97.3993 65.0658 97.3061 64.9534C97.0708 64.6692 96.9954 61.1861 97.1856 59.389C97.2668 58.6219 97.4095 56.7106 97.5028 55.1417L97.6652 52.4087C97.6699 52.3292 97.6845 52.2506 97.7085 52.1746L98.3642 50.1061C98.6165 49.3103 98.7755 48.8037 98.9755 48.3139C99.3428 47.4143 99.8484 46.5712 101.323 44.0962C101.804 43.2888 102.126 42.6058 102.126 42.3902C102.126 42.1924 101.96 41.5146 101.758 40.8838C101.556 40.2532 101.211 39.1096 100.991 38.3425C100.772 37.5755 100.282 36.2824 99.9028 35.4689C99.5238 34.6555 99.1785 33.8139 99.1356 33.5988C99.0927 33.3837 99.022 33.2077 98.9785 33.2077C98.935 33.2077 98.4532 33.2933 97.9077 33.3979C97.3623 33.5025 96.6507 33.5892 96.3263 33.5905C96.0019 33.5919 95.4546 33.6662 95.1102 33.7557C94.5583 33.8991 94.4709 33.9685 94.3748 34.3403C94.3147 34.5723 94.189 34.8832 94.0954 35.0309C93.9581 35.2473 93.9463 35.72 94.0345 37.455C94.0948 38.6405 94.2011 39.8671 94.2706 40.1809C94.34 40.4947 94.3989 41.0938 94.4012 41.5122C94.406 42.407 93.6152 45.8768 92.9571 47.8481C92.5878 48.9543 92.4866 49.2515 92.5527 49.2952C92.5784 49.3121 92.6295 49.2907 92.7 49.2636C93.2502 49.0521 93.5761 49.628 94.161 51.8452C94.5439 53.296 94.5866 53.6498 94.6674 56.0292C94.7583 58.7112 95.0436 60.9885 95.3772 61.6951C95.6424 62.2569 95.5589 62.5498 95.119 62.6002C94.9198 62.6232 94.7075 62.5925 94.6474 62.5323C94.5001 62.3847 94.0959 60.7746 93.839 59.3127C93.7239 58.6573 93.5804 57.2083 93.5202 56.0926C93.4319 54.4575 93.3326 53.7688 93.0081 52.5426L92.4568 50.4588C92.4112 50.2862 92.1703 50.2753 92.1092 50.4431L91.9647 50.8402C91.2201 52.886 91.2489 53.9334 92.1528 57.6774C92.7902 60.3174 93.0698 62.0003 93.2221 64.1128C93.2963 65.1401 93.2783 65.318 93.0787 65.5391C92.8155 65.8305 92.229 65.873 92.0161 65.616C91.3371 64.7962 90.1273 61.8172 89.6019 59.6712C89.3975 58.8363 88.9811 57.6153 88.6696 56.9373C88.36 56.2635 87.8085 54.8135 87.4443 53.7153C87.0799 52.6171 86.7469 51.7192 86.7044 51.72C86.6619 51.7209 86.4589 52.1346 86.2535 52.6392C85.8916 53.5281 85.8791 53.6286 85.8571 55.839C85.8325 58.2975 85.7054 59.3805 85.2318 61.164C85.0653 61.7916 84.8148 62.8317 84.6754 63.4754C84.3148 65.1405 83.5421 67.1709 83.1781 67.4099C82.5288 67.8362 81.881 67.0751 82.1398 66.1899C82.5374 64.831 82.4945 60.9288 82.0673 59.5792C81.968 59.2654 81.771 58.442 81.6297 57.7495C81.4885 57.0569 81.3502 56.4677 81.3227 56.44C81.295 56.4123 81.1153 56.6651 80.9234 57.0017C80.7314 57.3385 80.2337 58.1793 79.8175 58.8704C79.3233 59.6909 78.9904 60.4169 78.8585 60.9624C78.6766 61.714 78.6224 61.8019 78.317 61.8372C78.0896 61.8636 77.9384 61.8008 77.859 61.6471C77.6413 61.2263 77.7032 57.969 77.9536 56.6631C78.2622 55.0532 78.437 53.8727 78.6483 51.972C78.7452 51.1004 79.0231 49.5599 79.2658 48.5488C79.5086 47.5377 79.744 46.3966 79.7887 46.0131C79.8334 45.6296 80.1005 44.6334 80.382 43.7994L80.7952 42.5756C80.8595 42.3853 80.8627 42.1797 80.8044 41.9875L80.5657 41.2003C80.1786 39.9233 80.0608 39.3069 79.8622 37.5179C79.6963 36.0222 79.7948 35.4898 80.2375 35.4898C80.5945 35.4898 80.6936 35.7917 80.9889 37.7806C81.155 38.8992 81.4001 39.9322 81.6899 40.7346C81.9351 41.4133 82.1357 42.0921 82.1357 42.2431C82.1357 42.3941 81.9349 43.1005 81.6893 43.813C81.4439 44.5254 81.1796 45.5829 81.102 46.1629C81.0244 46.743 80.7388 47.9592 80.4671 48.8658C80.1557 49.9054 79.8815 51.2029 79.7245 52.38C79.5876 53.4064 79.4272 54.3763 79.3679 54.5354C79.3087 54.6945 79.22 55.11 79.1711 55.4586C79.122 55.8073 79.0062 56.4064 78.914 56.7899C78.8216 57.1734 78.7094 57.6584 78.6645 57.8676C78.6468 57.9503 78.7558 57.9974 78.8038 57.9277L78.8453 57.8676C78.9895 57.6584 79.3067 57.1122 79.5501 56.6538C79.7935 56.1954 80.2098 55.6143 80.475 55.3624L80.5964 55.2471C80.8229 55.0321 80.9311 54.7207 80.8868 54.4115L80.8428 54.1038C80.6029 52.4282 80.9544 50.6149 81.8706 48.8024C82.2055 48.1399 82.8366 46.5139 83.2729 45.189C83.7094 43.8641 84.2346 42.3732 84.4401 41.8759C84.7659 41.0873 84.8071 40.8524 84.7623 40.0375C84.733 39.5031 84.5932 38.7926 84.4355 38.3774C84.069 37.4118 84.0596 35.5094 84.4126 33.6876C84.7302 32.0484 84.7334 31.8851 84.4446 32.0039C84.3228 32.0541 83.3123 32.4072 82.1989 32.7885C81.0856 33.17 79.6717 33.7077 79.0571 33.9835C77.4268 34.7149 76.9322 34.8046 75.9374 34.5492C75.488 34.4338 74.9908 34.2174 74.8324 34.0684C74.3359 33.601 74.508 32.8008 75.139 32.6421C75.2808 32.6065 75.3197 32.4234 75.2046 32.3333L75.174 32.3093C75.0018 32.1743 74.4054 31.7597 73.8487 31.3878C72.6666 30.5982 72.4862 30.4085 72.5421 30.0133C72.6091 29.54 73.133 29.5805 74.3262 30.1511C75.5015 30.7133 76.3158 31.4715 76.3158 32.0036C76.3158 32.4626 76.7744 32.4212 78.2189 31.8321C78.877 31.5637 79.7257 31.2415 80.105 31.1162C80.9649 30.832 81.7975 30.0746 82.7532 28.7068C83.8964 27.071 84.9626 26.1195 85.9844 25.8236L85.9993 25.8192C86.224 25.7542 86.2582 25.4501 86.0536 25.3367C84.9806 24.7419 84.3072 23.4603 84.4642 22.3115C84.6566 20.9063 85.555 19.8745 87.3229 19.029C88.3599 18.533 88.6321 18.455 89.3065 18.4613C90.2236 18.4698 90.7254 18.7287 91.4721 19.5787C92.3011 20.5225 92.4714 21.6892 91.986 23.1006C91.7368 23.8257 91.6635 24.1291 91.6351 24.5538C91.6293 24.6405 91.4067 24.8696 91.1404 25.0628C90.9122 25.2285 90.9292 25.574 91.1726 25.7165L91.4043 25.8521C92.3028 26.3781 93.6262 27.7473 94.0161 28.5547C94.1715 28.8762 94.3312 29.4556 94.371 29.8422C94.4108 30.2289 94.4819 30.5452 94.5288 30.5452C94.6391 30.5452 96.8426 28.9904 97.5276 28.4291C97.8168 28.1922 98.483 27.753 99.0081 27.4531L99.3477 27.2592C99.656 27.0831 99.7102 26.661 99.4565 26.4127C98.6403 25.6141 98.2982 24.7733 98.3034 23.578C98.3094 22.2115 98.5808 21.3708 99.373 20.2646C100.205 19.103 101.004 18.6257 102.108 18.6304C103.762 18.6376 104.556 19.0732 105.182 20.3148C105.515 20.9763 105.592 21.3057 105.673 22.4303C105.777 23.8515 105.705 24.2029 105.152 24.9813C105.003 25.1904 104.906 25.3865 104.937 25.4171C104.967 25.4475 105.699 25.5822 106.564 25.7163C107.428 25.8503 108.235 25.9994 108.357 26.0475C108.538 26.1188 108.578 26.0656 108.578 25.7564C108.578 25.5482 108.667 25.1639 108.776 24.9022C109.054 24.2358 108.875 23.877 107.738 22.8274C106.386 21.5793 106.476 21.0866 108.028 21.2378C109.652 21.3961 110.28 22.2539 110.203 24.2107C110.157 25.3979 109.95 25.8814 109.358 26.1819C109.106 26.31 109.132 26.3402 109.727 26.6195C110.385 26.9286 111.235 27.7433 111.235 28.0658C111.235 28.166 111.285 28.2791 111.347 28.3172C111.485 28.4026 114.145 27.1578 114.145 27.0079C114.145 26.9483 114.055 26.8249 113.946 26.7339C113.636 26.476 113.289 25.71 112.994 24.6338C112.478 22.7513 112.808 21.0444 114 19.4243ZM119.75 22.41C119.337 22.0663 119.795 21.4155 120.68 21.0886C121.681 20.7194 122.916 21.199 123.6 22.2225C124.149 23.0428 124.322 23.6904 124.316 24.9054C124.313 25.723 124.248 26.0619 123.985 26.6378C123.616 27.4441 123.27 27.7142 122.875 27.5023C122.542 27.3237 122.555 27.036 122.937 26.2153C123.628 24.7276 123.173 22.9262 121.952 22.3198L121.718 22.2037C121.481 22.0855 121.205 22.0707 120.956 22.1626L120.63 22.2828C120.107 22.4761 119.87 22.5103 119.75 22.41ZM78.4894 25.8038C78.5687 24.3319 79.5475 22.6875 80.7271 22.0443C81.6941 21.517 83.2111 21.9551 83.2111 22.7615C83.2111 22.9641 83.047 23.1283 82.8444 23.1284L82.3425 23.1287L81.9019 23.1289C81.6294 23.129 81.3698 23.2445 81.1871 23.4466L80.9307 23.7304C80.2199 24.5172 79.8583 25.2847 79.8583 26.0069C79.8583 26.8259 80.1217 27.0951 81.1002 27.2758C82.4489 27.5249 82.4751 28.2358 81.1588 28.8653C80.4993 29.1806 80.4077 29.2745 80.1999 29.8479C79.705 31.2135 79.0662 31.2837 78.9976 29.98C78.9694 29.4433 79.0272 29.1134 79.2166 28.7297L79.2795 28.6024C79.3965 28.3653 79.3547 28.0806 79.1745 27.8871C78.5996 27.2702 78.437 26.7755 78.4894 25.8038ZM93.5015 24.1202C93.8957 23.3456 94.4029 22.8015 94.9721 22.5425C95.5455 22.2814 96.1265 22.2421 96.6218 22.4308C96.9008 22.5371 96.948 22.6239 96.9147 22.9687C96.8774 23.3559 96.8394 23.3851 96.2662 23.4666C95.4785 23.5787 95.1068 23.8325 94.7744 24.4853C94.2608 25.4942 94.7382 27.0927 95.6386 27.3788C96.6489 27.7 96.9085 28.0594 96.4759 28.5383C96.1245 28.9275 95.1363 28.7756 94.3732 28.215C93.4569 27.5419 92.9564 25.1908 93.5015 24.1202ZM67.9195 23.3578C68.2129 23.0639 68.6422 22.7688 68.8735 22.702C69.4943 22.5227 69.8675 22.535 70.6208 22.7591C71.512 23.0244 72.6272 24.1095 72.9543 25.03C73.0782 25.3787 73.2442 25.7998 73.3231 25.9661C73.4021 26.1323 73.4567 26.6271 73.4446 27.0657C73.4085 28.3666 72.8023 29.3065 71.6161 29.9005C70.7399 30.3393 70.2182 30.3835 69.265 30.0999C68.5166 29.8772 67.6036 28.973 67.0811 27.9371C66.4155 26.6174 66.8084 24.4713 67.9195 23.3578ZM68.7667 24.4773C68.9175 24.3128 69.1548 24.131 69.294 24.0733C69.6378 23.9308 69.915 23.93 70.2839 24.0706C70.7892 24.2632 71.5309 24.9904 71.7782 25.536C72.0658 26.1704 72.0941 27.6136 71.8291 28.1273C71.5668 28.6354 70.8493 29.0238 70.1728 29.0238C69.7066 29.0238 69.5262 28.9469 69.1118 28.5718C68.6032 28.1113 67.9656 27.0066 67.9656 26.5859C67.9656 26.1581 68.4891 24.78 68.7667 24.4773ZM31.4497 29.8181C31.4497 29.284 31.877 28.8517 32.411 28.8539C35.6584 28.8673 46.2604 28.9062 50.6167 28.8627C51.1519 28.8574 51.589 29.2858 51.5947 29.821L51.9621 64.5262C51.9677 65.0554 51.5501 65.4901 51.0209 65.4982C41.9857 65.6379 13.5594 65.7661 7.96671 65.7903C7.43283 65.7926 7.0061 65.3604 7.0061 64.8265V56.7234C7.0061 56.1911 7.43764 55.7596 7.96996 55.7596H13.8642C14.3965 55.7596 14.8281 55.328 14.8281 54.7957V47.9319C14.8281 47.3996 15.2596 46.9681 15.7919 46.9681H21.9459C22.4782 46.9681 22.9097 46.5365 22.9097 46.0042V38.8122C22.9097 38.2799 23.3418 37.8483 23.8741 37.8483H30.4854C31.0177 37.8483 31.4497 37.4168 31.4497 36.8845V29.8181ZM64.543 32.587C65.2218 31.2315 65.7109 30.5883 66.498 30.0162C67.2308 29.4837 68.0921 29.5655 68.0921 30.1676C68.0921 30.2808 67.7199 30.7029 67.2649 31.1057C66.5539 31.7351 66.3485 32.0233 65.8035 33.1556C65.1905 34.429 64.7876 35.7705 64.9646 35.9481C65.0882 36.0718 66.9411 36.2333 68.3454 36.2426C69.5744 36.2507 71.1975 35.9298 72.5555 35.4102C73.0096 35.2364 73.2145 35.2129 73.3779 35.3156C73.6437 35.4826 73.72 35.8994 73.5447 36.2275C73.2241 36.8279 71.2141 37.3888 68.9777 37.5018L68.2785 37.5372C67.7793 37.5624 67.3821 37.9698 67.3638 38.4693C67.273 40.952 66.9348 44.4977 66.693 45.5011C66.618 45.8122 66.2333 46.7251 65.8378 47.5297L65.2199 48.787C65.1535 48.9222 65.1197 49.071 65.1211 49.2216L65.1593 53.1131C65.1952 56.7838 65.4393 61.147 65.6189 61.3269C65.7035 61.4117 66.2562 60.161 66.391 59.5792C66.4476 59.3351 66.4977 57.3097 66.5023 55.0783L66.5102 51.1992C66.5105 51.0815 66.5323 50.9648 66.5746 50.8549L67.023 49.6899C67.6494 48.0623 69.3774 45.3054 69.8546 45.1724C70.1907 45.0787 70.7282 45.3202 70.8791 45.6327C70.9295 45.7373 71.155 46.3079 71.3802 46.9006C71.6053 47.4933 71.9212 48.1845 72.0821 48.4366C72.462 49.0317 73.344 51.3808 73.5394 52.3181C73.6993 53.0856 73.5767 55.032 73.2176 57.4238C73.1287 58.0165 73.0704 58.5178 73.0879 58.5379C73.1836 58.6464 73.8124 56.6105 74.168 55.0406C74.3063 54.4302 74.4105 54.0005 74.4598 53.5645C74.5981 52.3424 74.3055 51.0714 73.1254 45.6327C72.899 44.5895 72.8378 43.9174 72.8421 42.5265C72.8475 40.833 72.866 40.7067 73.246 39.7779C73.465 39.2423 73.6781 38.5862 73.7198 38.3198C73.7613 38.0533 73.8927 37.507 74.0118 37.1057C74.0965 36.8202 74.1398 36.6411 74.2431 36.5088C74.4362 36.2612 74.8391 36.1771 76.1152 35.8654C77.4923 35.5289 78.1264 35.261 78.7687 34.7443C79.0392 34.5268 79.3645 34.3488 79.4917 34.3488C79.8024 34.3488 80.0195 34.7895 79.9239 35.2259C79.7476 36.0301 78.6578 36.6521 76.7129 37.0586L76.0506 37.197C75.6427 37.2823 75.3358 37.62 75.2899 38.0341L75.2691 38.2212C75.2153 38.7059 74.9893 39.5592 74.7666 40.1172C74.391 41.0587 74.3615 41.2415 74.3586 42.6533C74.3564 43.6833 74.4265 44.4613 74.5754 45.0622C74.6964 45.5503 74.8501 46.292 74.9169 46.7104C74.9837 47.1288 75.1862 48.1843 75.3669 49.0559C75.5477 49.9276 75.7604 51.2183 75.8397 51.9241C75.9722 53.1031 75.9599 53.3249 75.6902 54.65C75.1957 57.0787 74.3749 59.4217 73.2003 61.7566C72.2377 63.6703 71.812 64.0928 71.3765 63.5667C71.2042 63.3587 71.2614 62.8609 71.9737 58.3747C72.6623 54.038 72.6812 53.8567 72.5214 53.1131C72.3674 52.397 71.7877 51.0008 70.8106 48.9925C70.5052 48.365 70.2178 47.6946 70.1722 47.5028C70.1264 47.311 70.0524 47.1571 70.0078 47.1606C69.9632 47.1642 69.6361 47.5777 69.281 48.0798C68.8053 48.7523 68.5068 49.3762 68.1472 50.4506L67.7058 51.7694C67.6749 51.8617 67.6581 51.9581 67.6561 52.0554L67.5803 55.7122C67.5034 59.4189 67.493 59.5376 67.1704 60.3699C66.8043 61.3151 66.282 62.2645 65.9988 62.5001C65.8976 62.5843 65.8148 62.7874 65.8148 62.9513C65.8148 63.2144 65.8592 63.2408 66.1896 63.1744C66.795 63.0531 67.2299 63.2157 67.1831 63.5457C67.1491 63.7847 67.0522 63.8323 66.5324 63.8656C66.0026 63.8994 65.9123 63.8695 65.8526 63.6408C65.7908 63.4042 65.7682 63.3981 65.634 63.5821C65.5472 63.7011 65.3563 63.7688 65.1793 63.7435C64.8168 63.6915 64.7887 63.5965 64.4376 61.2274C64.0387 58.5364 63.9013 56.3778 63.8766 52.4158L63.8551 48.963C63.8542 48.8156 63.8871 48.67 63.9512 48.5373L64.4668 47.4711C65.5569 45.2171 65.592 45.0329 66.0105 39.3607C66.0467 38.8705 66.1007 38.2339 66.1307 37.9461C66.1616 37.649 65.9625 37.3768 65.67 37.3165L65.399 37.2605C64.9666 37.1713 64.4678 37.1103 64.2907 37.125C63.7684 37.1684 63.478 36.733 63.5114 35.9569C63.5553 34.9369 63.8524 33.9659 64.543 32.587ZM66.7781 33.5328C66.8517 33.3406 67.0186 33.2749 67.7125 33.1654C68.2998 33.0727 68.6564 33.0857 70.4076 33.2636C71.368 33.3612 72.2391 33.5121 72.3435 33.5988C72.6412 33.8464 72.5099 34.385 72.1046 34.5788C71.8209 34.7144 71.5743 34.7185 70.8394 34.5998C69.3833 34.3645 67.8391 34.2629 67.8391 34.4024C67.8391 34.4706 67.7707 34.4578 67.6872 34.3741C67.6037 34.2905 67.4065 34.222 67.2488 34.222C66.9258 34.222 66.6621 33.8358 66.7781 33.5328ZM96.3823 37.7086C96.2868 35.3226 96.368 35.0474 97.3638 34.3805C98.0583 33.9154 98.2277 33.884 98.5109 34.1676C98.836 34.4934 98.7414 34.809 98.1719 35.2974L97.9705 35.4702C97.757 35.6533 97.6342 35.9204 97.6342 36.2017L97.634 38.0649C97.6338 39.8086 97.5611 40.8814 97.336 42.4631C96.9306 45.3107 96.9866 46.045 97.7469 47.8531C98.3994 49.4046 98.441 49.6768 98.0765 50.0073C97.5797 50.4579 97.3005 50.1387 96.562 48.2757C95.9587 46.754 95.89 46.4816 95.8786 45.5693C95.8624 44.2647 96.1433 40.9099 96.3241 40.248C96.4158 39.9119 96.4357 39.0433 96.3823 37.7086ZM114.019 42.9937C114.022 41.2435 114.555 38.1302 114.93 37.6769C115.126 37.441 115.509 37.4853 115.594 37.7536C115.635 37.8829 115.551 38.5818 115.407 39.3067C115.261 40.0435 115.118 41.3794 115.083 42.3363C115.021 44.0523 114.833 45.0186 114.247 46.647C113.873 47.6844 113.776 48.3852 113.671 50.8309L113.59 52.7206C113.582 52.9102 113.437 53.0659 113.248 53.0879C113.068 53.1088 112.854 53.0451 112.773 52.9464C112.517 52.638 112.392 51.0239 112.498 49.4014C112.587 48.0381 112.669 47.6481 113.169 46.202C113.483 45.2961 113.802 44.3944 113.879 44.1981C113.955 44.0019 114.019 43.4599 114.019 42.9937ZM115.418 54.2329C115.414 54.1165 115.449 53.9197 115.497 53.7954C115.544 53.6713 115.603 53.6287 115.627 53.7009C115.651 53.7731 115.615 53.9699 115.548 54.1383C115.467 54.341 115.423 54.373 115.418 54.2329ZM129.925 60.0615C130.01 59.9915 130.408 59.8258 130.81 59.6933C131.329 59.5224 131.743 59.472 132.237 59.5198C132.62 59.5569 133.161 59.5996 133.439 59.6148C133.887 59.6394 133.95 59.6819 133.985 59.9868C134.032 60.393 133.963 60.4158 132.332 60.5351C131.08 60.6268 130.801 60.7919 131.697 60.9109C132.751 61.0512 133.137 61.366 132.808 61.8173C132.665 62.0131 132.423 62.0589 131.335 62.0959C129.496 62.1586 127.938 62.0145 127.845 61.7731C127.726 61.463 128.06 61.3586 129.201 61.3492L129.666 61.3454C129.794 61.3443 129.826 61.1676 129.707 61.1218C129.244 60.9443 129.137 60.8444 129.137 60.5899C129.137 60.3518 129.213 60.266 129.454 60.2326C129.628 60.2085 129.84 60.1316 129.925 60.0615ZM116.992 61.0372C116.992 60.8607 117.126 60.7376 117.434 60.6323C118.088 60.4091 119.523 60.4279 119.982 60.6657C120.193 60.7751 120.717 60.9036 121.146 60.951C121.83 61.0266 121.931 61.0727 121.967 61.3251C121.999 61.555 121.91 61.6536 121.526 61.8147C120.906 62.0742 120.106 61.9776 119.269 61.5421C118.741 61.2677 118.5 61.2195 117.814 61.2519C117.063 61.2874 116.992 61.2687 116.992 61.0372ZM110.373 61.4781C109.879 61.2386 109.696 60.9103 109.928 60.678C110.089 60.516 111.311 60.5921 111.559 60.7796C111.694 60.882 111.961 60.9676 112.152 60.9698C112.677 60.9759 112.572 61.1653 111.876 61.4654C111.107 61.7965 111.032 61.7972 110.373 61.4781ZM85.9949 62.6054C85.9215 62.2132 85.9523 62.1144 86.2036 61.938C86.3659 61.8242 86.575 61.7603 86.6681 61.7962C86.7613 61.832 86.8899 61.8613 86.9538 61.8613C87.1296 61.8613 87.0928 62.3389 86.9118 62.405C86.7861 62.4509 86.787 62.5115 86.9163 62.7008C87.0059 62.8319 87.1469 63.0974 87.2299 63.2908C87.3449 63.5591 87.494 63.6608 87.858 63.7191C88.3972 63.8055 88.4185 63.841 88.1257 64.1652C87.9775 64.3293 87.7364 64.397 87.3007 64.397C86.7468 64.397 86.6711 64.3621 86.5469 64.0484C86.471 63.8566 86.3351 63.5571 86.2449 63.3828C86.1547 63.2084 86.0422 62.8586 85.9949 62.6054ZM53.8271 62.7812C54.0027 62.6417 55.0753 62.2849 55.5667 62.2025C56.2623 62.0859 57.0475 62.1365 57.5278 62.3288C58.1384 62.5735 58.4867 62.582 59.8051 62.3847C61.4198 62.1429 61.4449 62.1439 61.4887 62.4513C61.5511 62.8903 61.0723 63.1289 60.1248 63.1311C59.6706 63.1321 59.0738 63.2116 58.7985 63.3076C58.3198 63.4745 58.268 63.4653 57.6144 63.0956C56.8323 62.6534 55.8662 62.5704 55.6662 62.9286C55.589 63.0667 55.3854 63.127 55.0223 63.1193C54.7303 63.1131 54.3064 63.1477 54.0801 63.1964C53.7607 63.2651 53.669 63.2425 53.669 63.0957C53.669 62.9917 53.7402 62.8501 53.8271 62.7812ZM100.799 63.2107C100.5 63.096 100.573 62.6673 100.941 62.3777C101.333 62.0686 101.778 62.0381 101.999 62.3051C102.108 62.4369 102.399 62.4953 102.945 62.4953C103.378 62.4953 103.898 62.5476 104.099 62.6115C104.301 62.6755 104.623 62.7621 104.814 62.8041C105.042 62.8541 105.162 62.9621 105.162 63.1161C105.162 63.5518 104.841 63.6785 103.99 63.5791C103.556 63.5286 102.847 63.4483 102.414 63.4007C101.981 63.3532 101.558 63.2454 101.475 63.1614C101.364 63.0503 101.277 63.0463 101.156 63.1464C101.065 63.2222 100.904 63.2513 100.799 63.2107ZM115.916 62.6833C115.916 62.5731 116.101 62.4024 116.327 62.3039C117.141 61.9494 119.206 62.175 119.206 62.6182C119.206 62.9513 118.582 63.0496 117.543 62.8805C116.713 62.7454 116.503 62.7446 116.421 62.8768C116.292 63.0874 115.916 62.9434 115.916 62.6833ZM74.672 63.036C74.1919 62.9209 74.0036 62.5515 74.3792 62.4623C74.5049 62.4324 74.7501 62.4258 74.9241 62.4475C75.6518 62.5381 77.8299 62.6768 78.5931 62.681C79.3848 62.6853 79.4155 62.6972 79.4155 63.0024C79.4155 63.2666 79.3211 63.3493 78.8482 63.4991C78.3764 63.6486 78.0758 63.6533 77.0634 63.5267C76.3939 63.443 75.6813 63.3221 75.4799 63.2582C75.2786 63.1942 74.915 63.0943 74.672 63.036ZM69.3988 63.3828C68.6497 63.3828 67.9866 62.8969 68.303 62.5798C68.431 62.4515 68.8261 62.4788 68.9145 62.622C68.9575 62.6918 69.2137 62.7488 69.4838 62.7488C69.7539 62.7488 70.0116 62.8084 70.0565 62.8812C70.1999 63.1135 69.8468 63.3828 69.3988 63.3828ZM73.2657 63.9797C73.3434 63.9018 73.6773 63.8003 74.0075 63.7541C75.277 63.5767 76.0088 63.6199 76.2494 63.8865C76.4498 64.1082 76.6699 64.1406 78.1984 64.1718L79.6063 64.2004C79.7815 64.204 79.9216 64.347 79.9216 64.5222C79.9216 65.0567 79.4716 65.1689 77.7081 65.0738C76.3383 65 76.1203 64.9564 75.8088 64.6937C75.4999 64.4333 75.3248 64.397 74.3756 64.397C73.305 64.397 72.9736 64.2724 73.2657 63.9797ZM60.9148 64.4934C60.6962 64.3205 60.9302 63.9224 61.2915 63.8526C62.2969 63.6586 64.2965 63.8635 64.2965 64.1606C64.2965 64.2176 64.1522 64.3593 63.9757 64.4751C63.7254 64.6395 63.4887 64.6684 62.9003 64.6068C62.4849 64.5633 62.1457 64.5785 62.1457 64.6405C62.1457 64.7817 61.1252 64.6599 60.9148 64.4934ZM55.6415 64.8101C55.473 64.6412 55.5942 64.499 56.1044 64.2668C56.7971 63.9518 57.1382 63.9548 57.5771 64.2799C57.914 64.5297 57.9571 64.5328 58.4097 64.3433C58.9295 64.1257 59.3623 64.0825 59.3623 64.2482C59.3623 64.452 58.7644 64.9119 58.3417 65.0334C57.848 65.1753 57.5083 65.0997 57.1443 64.7669C56.9087 64.5513 56.839 64.5465 56.3019 64.7086C55.9798 64.8057 55.6828 64.8513 55.6415 64.8101ZM96.1318 76.1446C97.5387 76.1446 98.7824 76.5117 99.8627 77.2461C100.943 77.9805 101.483 78.8296 101.483 79.7934C101.483 80.3901 101.282 80.8606 100.88 81.2048C100.503 81.5261 100.039 81.6867 99.4859 81.6867C98.2297 81.6867 97.5262 81.0786 97.3755 79.8623C97.3252 78.3247 96.7097 77.5559 95.5288 77.5559C94.4485 77.5559 93.7199 77.992 93.3431 78.864C92.9662 79.7361 92.7778 81.0671 92.7778 82.8571V86.1962H96.4333V87.642H92.7778V100.826C92.7778 101.951 93.0039 102.685 93.4561 103.029C93.9335 103.373 94.9635 103.546 96.5464 103.546V104.372H86.5973V103.546C87.7027 103.546 88.4188 103.373 88.7454 103.029C89.072 102.685 89.2353 101.951 89.2353 100.826V87.642H86.5973V86.1962H89.2353V84.3718C89.2353 81.6179 89.8508 79.564 91.0819 78.21C92.313 76.833 93.9963 76.1446 96.1318 76.1446ZM29.0901 77.7625L29.6177 83.3735L28.7132 83.4423C28.5122 81.2622 28.173 79.8508 27.6957 79.2082C27.2435 78.5657 26.4269 78.2444 25.2461 78.2444H20.4223V100.826C20.4223 101.905 20.661 102.628 21.1383 102.995C21.6408 103.362 22.7463 103.546 24.4547 103.546V104.372H12.1691V103.546C13.8775 103.546 14.9704 103.362 15.4478 102.995C15.9502 102.628 16.2015 101.905 16.2015 100.826V78.2444H11.34C10.1592 78.2444 9.33009 78.5657 8.85274 79.2082C8.40051 79.8508 8.0739 81.2622 7.8729 83.4423L7.00613 83.3735L7.49605 77.7625L7.57142 76.833H29.0147L29.0901 77.7625ZM38.717 85.5077C39.5461 85.5077 40.2119 85.7028 40.7144 86.0929C41.242 86.4831 41.5058 86.9879 41.5058 87.6076C41.5058 88.1583 41.3299 88.6173 40.9782 88.9845C40.6265 89.3517 40.1366 89.5353 39.5085 89.5353C38.6794 89.5353 38.0638 89.214 37.6618 88.5714C37.4106 88.1813 37.1217 87.9862 36.7951 87.9862C36.2675 87.9862 35.765 88.2272 35.2876 88.7091C34.8103 89.191 34.2324 89.9713 33.5541 91.0499V100.826C33.5541 101.951 33.7928 102.685 34.2701 103.029C34.7475 103.373 35.8278 103.546 37.5111 103.546V104.372H27.3359V103.546C28.4665 103.546 29.1951 103.373 29.5217 103.029C29.8483 102.685 30.0116 101.951 30.0116 100.826V90.4647C30.0116 89.7762 29.999 89.3173 29.9739 89.0878C29.9739 88.8583 29.8985 88.6517 29.7478 88.4681C29.6222 88.2616 29.4212 88.1928 29.1448 88.2616C28.8936 88.3305 28.4916 88.4911 27.9389 88.7435L27.5243 88.0206L30.3508 86.747L33.0265 85.5077L33.5541 85.9897V89.0878H33.6671C35.1243 86.7011 36.8076 85.5077 38.717 85.5077ZM54.657 101.515V104.578L55.1846 105.06L60.5737 102.582L60.1591 101.859C59.2296 102.295 58.6643 102.41 58.4633 102.203C58.2874 102.065 58.1995 101.377 58.1995 100.138V86.1962L57.6719 85.7487L55.0339 86.3683L51.9813 87.1256L52.2074 87.9174C53.3129 87.642 53.9912 87.6305 54.2425 87.8829C54.5188 88.1354 54.657 88.8468 54.657 90.0172V100.103C53.0491 101.962 51.617 102.892 50.3608 102.892C48.979 102.892 48.2881 101.962 48.2881 100.103V86.1962L47.7605 85.7487L45.1225 86.3683L42.1076 87.1256L42.3337 87.9174C43.4392 87.642 44.1175 87.6305 44.3688 87.8829C44.62 88.1354 44.7456 88.8468 44.7456 90.0172V100.103C44.7456 103.408 46.0897 105.06 48.778 105.06C50.813 105.06 52.735 103.878 54.5439 101.515H54.657ZM62.0275 104.716V97.7969H62.8943C63.1707 99.5181 63.7862 100.929 64.7409 102.031C65.7208 103.11 66.9267 103.649 68.3588 103.649C69.9416 103.649 70.733 102.88 70.733 101.342C70.733 100.7 70.5194 100.069 70.0923 99.4492C69.6903 98.8296 69.2632 98.3247 68.811 97.9346C68.3839 97.5444 67.6176 96.9019 66.5122 96.0069C65.6077 95.2725 64.9796 94.7676 64.6279 94.4922C64.3013 94.1939 63.8741 93.7579 63.3465 93.1842C62.8189 92.6104 62.4547 92.0711 62.2537 91.5662C62.0778 91.0384 61.9899 90.4532 61.9899 89.8107C61.9899 88.5255 62.4421 87.4928 63.3465 86.7125C64.2761 85.9093 65.4695 85.5077 66.9267 85.5077C67.7055 85.5077 68.3965 85.6225 68.9994 85.852C69.6275 86.0815 70.1175 86.3109 70.4692 86.5404C70.8209 86.7699 71.0722 86.8847 71.2229 86.8847C71.4239 86.8847 71.5495 86.8158 71.5998 86.6781C71.65 86.5404 71.6751 86.265 71.6751 85.852H72.5419V91.5318H71.6751C71.3988 90.2008 70.846 89.1107 70.0169 88.2616C69.213 87.3895 68.2332 86.9535 67.0774 86.9535C66.3489 86.9535 65.8087 87.1371 65.457 87.5043C65.1052 87.8715 64.9294 88.296 64.9294 88.778C64.9294 89.2828 65.1052 89.7992 65.457 90.327C65.8087 90.8319 66.1856 91.2679 66.5875 91.6351C67.0146 92.0023 67.693 92.5531 68.6226 93.2874C70.532 94.7791 71.851 95.9954 72.5796 96.9363C73.3082 97.8543 73.6725 98.9902 73.6725 100.344C73.6725 101.882 73.17 103.052 72.165 103.855C71.1852 104.659 69.9541 105.06 68.4718 105.06C67.5925 105.06 66.8011 104.945 66.0976 104.716C65.3941 104.487 64.8289 104.257 64.4017 104.028C63.9746 103.798 63.6732 103.683 63.4973 103.683C63.0953 103.683 62.8943 104.028 62.8943 104.716H62.0275ZM85.7408 96.7986H84.874C84.8489 99.0705 84.6479 100.677 84.2711 101.618C83.8942 102.559 83.2661 103.029 82.3868 103.029C81.4321 103.029 80.804 102.605 80.5025 101.756C80.2261 100.906 80.0879 99.5181 80.0879 97.5903V87.642H84.4595V86.1962H80.0879V81.2737H78.9197C78.7438 83.0407 78.2539 84.2914 77.4499 85.0258C76.6711 85.7602 75.4023 86.1503 73.6436 86.1962V87.642H76.5831V98.6919C76.5831 102.937 78.1659 105.06 81.3316 105.06C83.04 105.06 84.1957 104.406 84.7987 103.098C85.4016 101.79 85.7157 99.6902 85.7408 96.7986ZM114.457 102.031H113.59C113.339 102.651 113.126 103.075 112.95 103.305C112.774 103.534 112.535 103.649 112.234 103.649C111.907 103.649 111.681 103.523 111.555 103.27C111.455 103.018 111.405 102.605 111.405 102.031V90.981C111.405 89.1451 110.864 87.7797 109.784 86.8847C108.704 85.9667 107.196 85.5077 105.262 85.5077C103.403 85.5077 101.883 85.8749 100.702 86.6093C99.521 87.3207 98.9306 88.2846 98.9306 89.5008C98.9306 91.0843 99.6215 91.8761 101.003 91.8761C101.606 91.8761 102.084 91.7498 102.435 91.4974C102.812 91.245 103.001 90.9122 103.001 90.4991C103.001 90.1778 102.9 89.8107 102.699 89.3976C102.498 88.9845 102.398 88.6403 102.398 88.3649C102.398 87.86 102.636 87.4584 103.114 87.1601C103.616 86.8617 104.244 86.7125 104.998 86.7125C106.179 86.7125 106.945 87.0453 107.297 87.7108C107.674 88.3763 107.862 89.4435 107.862 90.9122V92.5301L106.091 93.2874L105.789 93.4251C105.689 93.4481 105.601 93.4825 105.526 93.5284C105.45 93.5513 105.35 93.5858 105.224 93.6317C104.395 93.9759 103.654 94.2972 103.001 94.5955C102.373 94.8709 101.719 95.2151 101.041 95.6282C100.363 96.0183 99.7973 96.4429 99.3451 96.9019C98.918 97.3609 98.5663 97.9231 98.2899 98.5886C98.0135 99.2312 97.8754 99.9426 97.8754 100.723C97.8754 102.054 98.2522 103.11 99.006 103.89C99.7848 104.67 100.827 105.06 102.134 105.06C104.32 105.06 106.204 103.878 107.787 101.515H107.862V101.652C107.862 103.924 108.93 105.06 111.065 105.06C112.07 105.06 112.812 104.808 113.289 104.303C113.766 103.798 114.156 103.041 114.457 102.031ZM105.827 102.065C105.224 102.456 104.571 102.651 103.867 102.651C103.114 102.651 102.511 102.41 102.059 101.928C101.606 101.446 101.38 100.757 101.38 99.8623C101.38 97.6821 102.988 95.9036 106.204 94.5267L107.862 93.8038V100.172C107.108 101.044 106.43 101.675 105.827 102.065ZM120.56 100.826C120.56 101.951 120.711 102.685 121.012 103.029C121.339 103.373 122.067 103.546 123.198 103.546V104.372H114.342V103.546C115.472 103.546 116.201 103.373 116.528 103.029C116.854 102.685 117.017 101.951 117.017 100.826V81.0671C117.017 80.3786 117.005 79.9197 116.98 79.6902C116.98 79.4607 116.904 79.2541 116.754 79.0705C116.628 78.864 116.427 78.8066 116.151 78.8984C115.899 78.9673 115.497 79.1279 114.945 79.3804L114.53 78.6575L117.357 77.3494L120.032 76.1446L120.56 76.6265V100.826ZM130.122 103.029C129.82 102.685 129.669 101.951 129.669 100.826V76.6265L129.142 76.1446L126.466 77.3494L123.64 78.6575L124.054 79.3804C124.607 79.1279 125.009 78.9673 125.26 78.8984C125.536 78.8066 125.737 78.864 125.863 79.0705C126.014 79.2541 126.089 79.4607 126.089 79.6902C126.114 79.9197 126.127 80.3786 126.127 81.0671V100.826C126.127 101.951 125.964 102.685 125.637 103.029C125.31 103.373 124.582 103.546 123.451 103.546V104.372H132.307V103.546C131.177 103.546 130.448 103.373 130.122 103.029Z" fill="white"/>
<path d="M11.4334 113.952V112.819H18.1877V113.952H15.4647V121.546H14.1522V113.952H11.4334ZM20.6121 117.66V121.546H19.3379V112.819H20.595V116.066H20.676C20.8294 115.714 21.0638 115.434 21.3791 115.227C21.6945 115.019 22.1064 114.916 22.6149 114.916C23.0638 114.916 23.4558 115.008 23.7911 115.193C24.1291 115.377 24.3905 115.653 24.5752 116.019C24.7627 116.383 24.8564 116.837 24.8564 117.383V121.546H23.5823V117.536C23.5823 117.056 23.4587 116.684 23.2115 116.42C22.9644 116.153 22.6206 116.019 22.1803 116.019C21.8791 116.019 21.6092 116.083 21.3706 116.211C21.1348 116.339 20.9487 116.526 20.8124 116.773C20.6788 117.018 20.6121 117.313 20.6121 117.66ZM29.1377 121.678C28.4928 121.678 27.9374 121.541 27.4715 121.265C27.0085 120.987 26.6505 120.596 26.3977 120.093C26.1477 119.587 26.0227 118.995 26.0227 118.316C26.0227 117.646 26.1477 117.055 26.3977 116.543C26.6505 116.032 27.0028 115.633 27.4545 115.346C27.909 115.059 28.4403 114.916 29.0482 114.916C29.4175 114.916 29.7755 114.977 30.1221 115.099C30.4687 115.221 30.7798 115.413 31.0553 115.674C31.3309 115.935 31.5482 116.275 31.7073 116.693C31.8664 117.107 31.946 117.612 31.946 118.205V118.657H26.7428V117.702H30.6974C30.6974 117.367 30.6292 117.07 30.4928 116.812C30.3565 116.55 30.1647 116.344 29.9175 116.194C29.6732 116.043 29.3863 115.968 29.0567 115.968C28.6988 115.968 28.3863 116.056 28.1192 116.232C27.855 116.406 27.6505 116.633 27.5056 116.914C27.3636 117.193 27.2925 117.495 27.2925 117.822V118.568C27.2925 119.005 27.3692 119.377 27.5227 119.684C27.6789 119.991 27.8962 120.225 28.1746 120.387C28.4531 120.546 28.7783 120.626 29.1505 120.626C29.392 120.626 29.6121 120.592 29.811 120.523C30.0099 120.452 30.1817 120.347 30.3266 120.208C30.4715 120.069 30.5823 119.897 30.659 119.693L31.865 119.91C31.7684 120.265 31.5951 120.576 31.3451 120.843C31.0979 121.107 30.7869 121.313 30.4119 121.461C30.0397 121.606 29.615 121.678 29.1377 121.678ZM38.8125 121.678C38.1989 121.678 37.6634 121.538 37.206 121.256C36.7486 120.975 36.3935 120.582 36.1407 120.076C35.8878 119.57 35.7614 118.979 35.7614 118.303C35.7614 117.624 35.8878 117.031 36.1407 116.522C36.3935 116.014 36.7486 115.619 37.206 115.337C37.6634 115.056 38.1989 114.916 38.8125 114.916C39.4262 114.916 39.9617 115.056 40.4191 115.337C40.8765 115.619 41.2316 116.014 41.4844 116.522C41.7373 117.031 41.8637 117.624 41.8637 118.303C41.8637 118.979 41.7373 119.57 41.4844 120.076C41.2316 120.582 40.8765 120.975 40.4191 121.256C39.9617 121.538 39.4262 121.678 38.8125 121.678ZM38.8168 120.609C39.2145 120.609 39.5441 120.504 39.8054 120.293C40.0668 120.083 40.26 119.803 40.385 119.454C40.5128 119.104 40.5767 118.719 40.5767 118.299C40.5767 117.881 40.5128 117.498 40.385 117.148C40.26 116.796 40.0668 116.514 39.8054 116.3C39.5441 116.087 39.2145 115.981 38.8168 115.981C38.4162 115.981 38.0838 116.087 37.8196 116.3C37.5583 116.514 37.3637 116.796 37.2358 117.148C37.1108 117.498 37.0483 117.881 37.0483 118.299C37.0483 118.719 37.1108 119.104 37.2358 119.454C37.3637 119.803 37.5583 120.083 37.8196 120.293C38.0838 120.504 38.4162 120.609 38.8168 120.609ZM44.3201 117.66V121.546H43.0459V115.001H44.2689V116.066H44.3499C44.5005 115.719 44.7362 115.441 45.0573 115.231C45.3811 115.021 45.7888 114.916 46.2803 114.916C46.7263 114.916 47.1169 115.009 47.4522 115.197C47.7874 115.381 48.0473 115.657 48.232 116.023C48.4166 116.39 48.509 116.843 48.509 117.383V121.546H47.2348V117.536C47.2348 117.062 47.1112 116.691 46.8641 116.424C46.6169 116.154 46.2774 116.019 45.8456 116.019C45.5502 116.019 45.2874 116.083 45.0573 116.211C44.83 116.339 44.6496 116.526 44.5161 116.773C44.3854 117.018 44.3201 117.313 44.3201 117.66ZM52.7349 121.678C52.1014 121.678 51.5559 121.535 51.0985 121.248C50.644 120.958 50.2945 120.559 50.0502 120.05C49.8059 119.542 49.6838 118.96 49.6838 118.303C49.6838 117.639 49.8088 117.052 50.0588 116.543C50.3088 116.032 50.661 115.633 51.1156 115.346C51.5701 115.059 52.1056 114.916 52.7221 114.916C53.2193 114.916 53.6624 115.008 54.0516 115.193C54.4409 115.374 54.7548 115.63 54.9934 115.96C55.2349 116.289 55.3784 116.674 55.4238 117.114H54.1838C54.1156 116.808 53.9593 116.543 53.715 116.322C53.4735 116.1 53.1497 115.989 52.7434 115.989C52.3883 115.989 52.0772 116.083 51.8102 116.271C51.546 116.455 51.34 116.719 51.1923 117.063C51.0445 117.404 50.9707 117.808 50.9707 118.273C50.9707 118.751 51.0431 119.163 51.188 119.509C51.3329 119.856 51.5374 120.124 51.8016 120.315C52.0687 120.505 52.3826 120.6 52.7434 120.6C52.9849 120.6 53.2036 120.556 53.3997 120.468C53.5985 120.377 53.7647 120.248 53.8982 120.08C54.0346 119.913 54.1298 119.711 54.1838 119.475H55.4238C55.3784 119.898 55.2406 120.276 55.0105 120.609C54.7803 120.941 54.4721 121.202 54.0857 121.393C53.7022 121.583 53.2519 121.678 52.7349 121.678ZM57.8205 117.66V121.546H56.5464V112.819H57.8035V116.066H57.8844C58.0379 115.714 58.2722 115.434 58.5876 115.227C58.9029 115.019 59.3148 114.916 59.8234 114.916C60.2722 114.916 60.6643 115.008 60.9995 115.193C61.3376 115.377 61.5989 115.653 61.7836 116.019C61.9711 116.383 62.0648 116.837 62.0648 117.383V121.546H60.7907V117.536C60.7907 117.056 60.6671 116.684 60.42 116.42C60.1728 116.153 59.829 116.019 59.3887 116.019C59.0876 116.019 58.8177 116.083 58.579 116.211C58.3433 116.339 58.1572 116.526 58.0208 116.773C57.8873 117.018 57.8205 117.313 57.8205 117.66ZM65.43 121.691C65.0152 121.691 64.6402 121.614 64.305 121.461C63.9697 121.305 63.7041 121.079 63.5081 120.783C63.3149 120.488 63.2183 120.126 63.2183 119.697C63.2183 119.327 63.2893 119.023 63.4314 118.785C63.5734 118.546 63.7652 118.357 64.0067 118.218C64.2481 118.079 64.518 117.974 64.8163 117.903C65.1146 117.832 65.4186 117.778 65.7283 117.741C66.1203 117.695 66.4385 117.658 66.6828 117.63C66.9271 117.599 67.1047 117.549 67.2155 117.481C67.3263 117.413 67.3817 117.302 67.3817 117.148V117.119C67.3817 116.746 67.2765 116.458 67.0663 116.254C66.8589 116.049 66.5493 115.947 66.1373 115.947C65.7084 115.947 65.3703 116.042 65.1231 116.232C64.8788 116.42 64.7098 116.629 64.616 116.859L63.4186 116.586C63.5606 116.188 63.768 115.867 64.0408 115.623C64.3163 115.376 64.6331 115.197 64.991 115.086C65.349 114.972 65.7254 114.916 66.1203 114.916C66.3817 114.916 66.6587 114.947 66.9513 115.009C67.2467 115.069 67.5223 115.18 67.778 115.342C68.0365 115.504 68.2481 115.735 68.4129 116.036C68.5777 116.335 68.6601 116.722 68.6601 117.2V121.546H67.4158V120.651H67.3646C67.2822 120.816 67.1587 120.978 66.9939 121.137C66.8291 121.296 66.6175 121.428 66.3589 121.533C66.1004 121.639 65.7908 121.691 65.43 121.691ZM65.7069 120.668C66.0592 120.668 66.3604 120.599 66.6104 120.46C66.8632 120.32 67.055 120.139 67.1856 119.914C67.3192 119.687 67.3859 119.444 67.3859 119.185V118.342C67.3405 118.387 67.2524 118.43 67.1217 118.469C66.9939 118.506 66.8476 118.539 66.6828 118.568C66.518 118.593 66.3575 118.617 66.2013 118.64C66.045 118.66 65.9143 118.677 65.8092 118.691C65.5621 118.722 65.3362 118.775 65.1317 118.849C64.93 118.923 64.768 119.029 64.6459 119.168C64.5265 119.305 64.4669 119.487 64.4669 119.714C64.4669 120.029 64.5834 120.268 64.8163 120.43C65.0493 120.589 65.3462 120.668 65.7069 120.668ZM70.1172 121.546V115.001H71.3913V121.546H70.1172ZM70.7606 113.991C70.539 113.991 70.3487 113.917 70.1896 113.769C70.0333 113.619 69.9552 113.44 69.9552 113.232C69.9552 113.022 70.0333 112.843 70.1896 112.695C70.3487 112.545 70.539 112.469 70.7606 112.469C70.9822 112.469 71.1711 112.545 71.3274 112.695C71.4865 112.843 71.566 113.022 71.566 113.232C71.566 113.44 71.4865 113.619 71.3274 113.769C71.1711 113.917 70.9822 113.991 70.7606 113.991ZM74.1396 117.66V121.546H72.8654V115.001H74.0884V116.066H74.1694C74.32 115.719 74.5558 115.441 74.8768 115.231C75.2007 115.021 75.6083 114.916 76.0998 114.916C76.5458 114.916 76.9365 115.009 77.2717 115.197C77.6069 115.381 77.8669 115.657 78.0515 116.023C78.2362 116.39 78.3285 116.843 78.3285 117.383V121.546H77.0544V117.536C77.0544 117.062 76.9308 116.691 76.6836 116.424C76.4365 116.154 76.097 116.019 75.6652 116.019C75.3697 116.019 75.1069 116.083 74.8768 116.211C74.6495 116.339 74.4691 116.526 74.3356 116.773C74.2049 117.018 74.1396 117.313 74.1396 117.66ZM85.4774 124.137C84.9575 124.137 84.5101 124.069 84.1351 123.933C83.7629 123.796 83.459 123.616 83.2232 123.391C82.9874 123.167 82.8112 122.921 82.6947 122.654L83.7899 122.202C83.8666 122.327 83.9689 122.46 84.0967 122.599C84.2274 122.741 84.4036 122.862 84.6251 122.961C84.8496 123.06 85.1379 123.11 85.4902 123.11C85.9732 123.11 86.3723 122.992 86.6876 122.756C87.003 122.523 87.1607 122.151 87.1607 121.64V120.353H87.0797C87.003 120.492 86.8922 120.647 86.7473 120.818C86.6053 120.988 86.4092 121.136 86.1592 121.261C85.9092 121.386 85.584 121.448 85.1834 121.448C84.6663 121.448 84.2004 121.327 83.7857 121.086C83.3737 120.842 83.047 120.482 82.8055 120.008C82.5669 119.531 82.4476 118.944 82.4476 118.248C82.4476 117.552 82.5655 116.955 82.8013 116.458C83.0399 115.961 83.3666 115.58 83.7814 115.316C84.1962 115.049 84.6663 114.916 85.1919 114.916C85.5982 114.916 85.9263 114.984 86.1763 115.12C86.4263 115.254 86.6209 115.41 86.7601 115.589C86.9021 115.768 87.0115 115.925 87.0882 116.062H87.182V115.001H88.4305V121.691C88.4305 122.254 88.2999 122.715 88.0385 123.076C87.7771 123.437 87.4234 123.704 86.9774 123.877C86.5342 124.05 86.0342 124.137 85.4774 124.137ZM85.4646 120.391C85.8311 120.391 86.1408 120.306 86.3936 120.136C86.6493 119.962 86.8425 119.715 86.9732 119.394C87.1067 119.07 87.1734 118.683 87.1734 118.231C87.1734 117.791 87.1081 117.403 86.9774 117.068C86.8467 116.732 86.655 116.471 86.4021 116.283C86.1493 116.093 85.8368 115.998 85.4646 115.998C85.0811 115.998 84.7615 116.097 84.5058 116.296C84.2501 116.492 84.057 116.759 83.9263 117.097C83.7984 117.435 83.7345 117.813 83.7345 118.231C83.7345 118.66 83.7999 119.036 83.9305 119.36C84.0612 119.684 84.2544 119.937 84.5101 120.119C84.7686 120.3 85.0868 120.391 85.4646 120.391ZM91.8042 121.691C91.3894 121.691 91.0144 121.614 90.6792 121.461C90.3439 121.305 90.0783 121.079 89.8823 120.783C89.6891 120.488 89.5925 120.126 89.5925 119.697C89.5925 119.327 89.6635 119.023 89.8056 118.785C89.9476 118.546 90.1394 118.357 90.3809 118.218C90.6224 118.079 90.8922 117.974 91.1905 117.903C91.4888 117.832 91.7928 117.778 92.1025 117.741C92.4945 117.695 92.8127 117.658 93.057 117.63C93.3013 117.599 93.4789 117.549 93.5897 117.481C93.7005 117.413 93.7559 117.302 93.7559 117.148V117.119C93.7559 116.746 93.6508 116.458 93.4405 116.254C93.2331 116.049 92.9235 115.947 92.5116 115.947C92.0826 115.947 91.7445 116.042 91.4974 116.232C91.253 116.42 91.084 116.629 90.9903 116.859L89.7928 116.586C89.9349 116.188 90.1422 115.867 90.415 115.623C90.6905 115.376 91.0073 115.197 91.3653 115.086C91.7232 114.972 92.0996 114.916 92.4945 114.916C92.7559 114.916 93.0329 114.947 93.3255 115.009C93.6209 115.069 93.8965 115.18 94.1522 115.342C94.4107 115.504 94.6224 115.735 94.7871 116.036C94.9519 116.335 95.0343 116.722 95.0343 117.2V121.546H93.79V120.651H93.7388C93.6564 120.816 93.5329 120.978 93.3681 121.137C93.2033 121.296 92.9917 121.428 92.7331 121.533C92.4746 121.639 92.165 121.691 91.8042 121.691ZM92.0812 120.668C92.4334 120.668 92.7346 120.599 92.9846 120.46C93.2374 120.32 93.4292 120.139 93.5599 119.914C93.6934 119.687 93.7601 119.444 93.7601 119.185V118.342C93.7147 118.387 93.6266 118.43 93.4959 118.469C93.3681 118.506 93.2218 118.539 93.057 118.568C92.8922 118.593 92.7317 118.617 92.5755 118.64C92.4192 118.66 92.2885 118.677 92.1834 118.691C91.9363 118.722 91.7104 118.775 91.5059 118.849C91.3042 118.923 91.1422 119.029 91.0201 119.168C90.9008 119.305 90.8411 119.487 90.8411 119.714C90.8411 120.029 90.9576 120.268 91.1905 120.43C91.4235 120.589 91.7204 120.668 92.0812 120.668ZM96.4914 121.546V115.001H97.7144V116.066H97.7954C97.9317 115.705 98.1547 115.424 98.4644 115.222C98.774 115.018 99.1448 114.916 99.5766 114.916C100.014 114.916 100.381 115.018 100.676 115.222C100.974 115.427 101.195 115.708 101.337 116.066H101.405C101.561 115.717 101.81 115.438 102.15 115.231C102.491 115.021 102.898 114.916 103.369 114.916C103.963 114.916 104.447 115.102 104.822 115.474C105.2 115.846 105.389 116.407 105.389 117.157V121.546H104.115V117.276C104.115 116.833 103.994 116.512 103.753 116.313C103.511 116.114 103.223 116.015 102.888 116.015C102.473 116.015 102.15 116.143 101.92 116.398C101.69 116.651 101.575 116.977 101.575 117.374V121.546H100.305V117.195C100.305 116.84 100.195 116.555 99.9729 116.339C99.7513 116.123 99.463 116.015 99.1079 116.015C98.8664 116.015 98.6434 116.079 98.4388 116.207C98.2371 116.332 98.0738 116.506 97.9488 116.731C97.8266 116.955 97.7655 117.215 97.7655 117.511V121.546H96.4914ZM109.678 121.678C109.033 121.678 108.478 121.541 108.012 121.265C107.549 120.987 107.191 120.596 106.938 120.093C106.688 119.587 106.563 118.995 106.563 118.316C106.563 117.646 106.688 117.055 106.938 116.543C107.191 116.032 107.543 115.633 107.995 115.346C108.449 115.059 108.98 114.916 109.588 114.916C109.958 114.916 110.316 114.977 110.662 115.099C111.009 115.221 111.32 115.413 111.595 115.674C111.871 115.935 112.088 116.275 112.247 116.693C112.407 117.107 112.486 117.612 112.486 118.205V118.657H107.283V117.702H111.238C111.238 117.367 111.169 117.07 111.033 116.812C110.897 116.55 110.705 116.344 110.458 116.194C110.213 116.043 109.926 115.968 109.597 115.968C109.239 115.968 108.926 116.056 108.659 116.232C108.395 116.406 108.191 116.633 108.046 116.914C107.904 117.193 107.833 117.495 107.833 117.822V118.568C107.833 119.005 107.909 119.377 108.063 119.684C108.219 119.991 108.436 120.225 108.715 120.387C108.993 120.546 109.318 120.626 109.691 120.626C109.932 120.626 110.152 120.592 110.351 120.523C110.55 120.452 110.722 120.347 110.867 120.208C111.012 120.069 111.122 119.897 111.199 119.693L112.405 119.91C112.309 120.265 112.135 120.576 111.885 120.843C111.638 121.107 111.327 121.313 110.952 121.461C110.58 121.606 110.155 121.678 109.678 121.678ZM119.353 121.678C118.739 121.678 118.204 121.538 117.746 121.256C117.289 120.975 116.934 120.582 116.681 120.076C116.428 119.57 116.302 118.979 116.302 118.303C116.302 117.624 116.428 117.031 116.681 116.522C116.934 116.014 117.289 115.619 117.746 115.337C118.204 115.056 118.739 114.916 119.353 114.916C119.966 114.916 120.502 115.056 120.959 115.337C121.417 115.619 121.772 116.014 122.025 116.522C122.277 117.031 122.404 117.624 122.404 118.303C122.404 118.979 122.277 119.57 122.025 120.076C121.772 120.582 121.417 120.975 120.959 121.256C120.502 121.538 119.966 121.678 119.353 121.678ZM119.357 120.609C119.755 120.609 120.084 120.504 120.346 120.293C120.607 120.083 120.8 119.803 120.925 119.454C121.053 119.104 121.117 118.719 121.117 118.299C121.117 117.881 121.053 117.498 120.925 117.148C120.8 116.796 120.607 116.514 120.346 116.3C120.084 116.087 119.755 115.981 119.357 115.981C118.956 115.981 118.624 116.087 118.36 116.3C118.098 116.514 117.904 116.796 117.776 117.148C117.651 117.498 117.588 117.881 117.588 118.299C117.588 118.719 117.651 119.104 117.776 119.454C117.904 119.803 118.098 120.083 118.36 120.293C118.624 120.504 118.956 120.609 119.357 120.609ZM126.701 115.001V116.023H123.002V115.001H126.701ZM124.016 121.546V114.242C124.016 113.833 124.106 113.494 124.285 113.224C124.464 112.951 124.701 112.748 124.997 112.614C125.292 112.478 125.613 112.41 125.96 112.41C126.215 112.41 126.434 112.431 126.616 112.474C126.798 112.514 126.933 112.55 127.021 112.585L126.722 113.616C126.663 113.599 126.586 113.579 126.492 113.556C126.399 113.531 126.285 113.518 126.151 113.518C125.842 113.518 125.62 113.594 125.487 113.748C125.356 113.901 125.291 114.123 125.291 114.413V121.546H124.016ZM3.93255 131.001V132.023H0.35727V131.001H3.93255ZM1.31608 129.433H2.59022V135.624C2.59022 135.871 2.62716 136.058 2.70102 136.183C2.77488 136.305 2.87005 136.389 2.98653 136.434C3.10585 136.477 3.23511 136.498 3.37432 136.498C3.47659 136.498 3.56608 136.491 3.64278 136.477C3.71949 136.462 3.77915 136.451 3.82176 136.443L4.05187 137.495C3.97801 137.523 3.8729 137.552 3.73653 137.58C3.60017 137.612 3.42971 137.629 3.22517 137.631C2.88994 137.637 2.57744 137.577 2.28767 137.452C1.9979 137.327 1.76352 137.134 1.58454 136.873C1.40557 136.612 1.31608 136.283 1.31608 135.889V129.433ZM5.102 137.546V131.001H6.33353V132.041H6.40172C6.52103 131.688 6.73126 131.411 7.0324 131.21C7.33638 131.005 7.68013 130.903 8.06365 130.903C8.14319 130.903 8.23694 130.906 8.3449 130.911C8.45569 130.917 8.54234 130.924 8.60484 130.933V132.151C8.5537 132.137 8.4628 132.121 8.33211 132.104C8.20143 132.085 8.07075 132.075 7.94007 132.075C7.63893 132.075 7.37047 132.139 7.13467 132.266C6.90172 132.391 6.71706 132.566 6.58069 132.791C6.44433 133.012 6.37615 133.265 6.37615 133.549V137.546H5.102ZM13.6138 134.832V131.001H14.8922V137.546H13.6393V136.413H13.5712C13.4206 136.762 13.1791 137.053 12.8467 137.286C12.5172 137.516 12.1067 137.631 11.6152 137.631C11.1947 137.631 10.8226 137.539 10.4987 137.354C10.1777 137.167 9.92486 136.89 9.7402 136.523C9.55838 136.157 9.46747 135.704 9.46747 135.164V131.001H10.7416V135.011C10.7416 135.457 10.8652 135.812 11.1124 136.076C11.3595 136.34 11.6805 136.472 12.0754 136.472C12.3141 136.472 12.5513 136.413 12.7871 136.293C13.0257 136.174 13.2232 135.994 13.3794 135.752C13.5385 135.511 13.6166 135.204 13.6138 134.832ZM21.269 132.599L20.1142 132.803C20.0659 132.656 19.9892 132.515 19.8841 132.381C19.7818 132.248 19.6426 132.139 19.4665 132.053C19.2903 131.968 19.0702 131.925 18.8059 131.925C18.4452 131.925 18.144 132.006 17.9025 132.168C17.6611 132.327 17.5403 132.533 17.5403 132.786C17.5403 133.005 17.6213 133.181 17.7832 133.315C17.9452 133.448 18.2065 133.558 18.5673 133.643L19.6071 133.881C20.2094 134.021 20.6582 134.235 20.9537 134.525C21.2491 134.815 21.3969 135.191 21.3969 135.654C21.3969 136.046 21.2832 136.396 21.0559 136.702C20.8315 137.006 20.5176 137.245 20.1142 137.418C19.7136 137.592 19.2491 137.678 18.7207 137.678C17.9878 137.678 17.3898 137.522 16.9267 137.21C16.4636 136.894 16.1795 136.447 16.0744 135.867L17.3059 135.68C17.3827 136.001 17.5403 136.244 17.779 136.408C18.0176 136.57 18.3287 136.651 18.7122 136.651C19.1298 136.651 19.4636 136.565 19.7136 136.391C19.9636 136.215 20.0886 136.001 20.0886 135.748C20.0886 135.543 20.0119 135.371 19.8585 135.232C19.7079 135.093 19.4764 134.988 19.1639 134.917L18.0559 134.674C17.4452 134.535 16.9934 134.313 16.7008 134.009C16.4111 133.705 16.2662 133.32 16.2662 132.854C16.2662 132.468 16.3741 132.13 16.59 131.84C16.8059 131.55 17.1042 131.325 17.4849 131.163C17.8656 130.998 18.3017 130.916 18.7932 130.916C19.5006 130.916 20.0574 131.069 20.4636 131.376C20.8699 131.68 21.1383 132.087 21.269 132.599ZM25.6132 131.001V132.023H22.0379V131.001H25.6132ZM22.9967 129.433H24.2709V135.624C24.2709 135.871 24.3078 136.058 24.3816 136.183C24.4555 136.305 24.5507 136.389 24.6672 136.434C24.7865 136.477 24.9157 136.498 25.0549 136.498C25.1572 136.498 25.2467 136.491 25.3234 136.477C25.4001 136.462 25.4598 136.451 25.5024 136.443L25.7325 137.495C25.6586 137.523 25.5535 137.552 25.4172 137.58C25.2808 137.612 25.1103 137.629 24.9058 137.631C24.5706 137.637 24.2581 137.577 23.9683 137.452C23.6785 137.327 23.4441 137.134 23.2652 136.873C23.0862 136.612 22.9967 136.283 22.9967 135.889V129.433ZM28.4403 136.353L28.3764 136.818C28.3338 137.158 28.2613 137.514 28.159 137.883C28.0596 138.255 27.9559 138.6 27.848 138.918C27.7429 139.237 27.6562 139.489 27.588 139.677H26.6846C26.7215 139.501 26.7727 139.262 26.838 138.961C26.9034 138.663 26.9673 138.329 27.0298 137.96C27.0923 137.59 27.1392 137.214 27.1704 136.83L27.213 136.353H28.4403ZM32.7948 137.546V131.001H34.0178V132.066H34.0988C34.2352 131.705 34.4582 131.424 34.7678 131.222C35.0775 131.018 35.4482 130.916 35.88 130.916C36.3175 130.916 36.684 131.018 36.9795 131.222C37.2778 131.427 37.4979 131.708 37.64 132.066H37.7082C37.8644 131.717 38.113 131.438 38.4539 131.231C38.7948 131.021 39.2011 130.916 39.6727 130.916C40.2664 130.916 40.7508 131.102 41.1258 131.474C41.5036 131.846 41.6925 132.407 41.6925 133.157V137.546H40.4184V133.276C40.4184 132.833 40.2977 132.512 40.0562 132.313C39.8147 132.114 39.5263 132.015 39.1911 132.015C38.7763 132.015 38.4539 132.143 38.2238 132.398C37.9937 132.651 37.8786 132.977 37.8786 133.374V137.546H36.6087V133.195C36.6087 132.84 36.4979 132.555 36.2763 132.339C36.0548 132.123 35.7664 132.015 35.4113 132.015C35.1698 132.015 34.9468 132.079 34.7423 132.207C34.5406 132.332 34.3772 132.506 34.2522 132.731C34.13 132.955 34.069 133.215 34.069 133.511V137.546H32.7948ZM45.9174 137.678C45.3037 137.678 44.7682 137.538 44.3109 137.256C43.8535 136.975 43.4984 136.582 43.2455 136.076C42.9927 135.57 42.8662 134.979 42.8662 134.303C42.8662 133.624 42.9927 133.031 43.2455 132.522C43.4984 132.014 43.8535 131.619 44.3109 131.337C44.7682 131.056 45.3037 130.916 45.9174 130.916C46.531 130.916 47.0665 131.056 47.5239 131.337C47.9813 131.619 48.3364 132.014 48.5893 132.522C48.8421 133.031 48.9685 133.624 48.9685 134.303C48.9685 134.979 48.8421 135.57 48.5893 136.076C48.3364 136.582 47.9813 136.975 47.5239 137.256C47.0665 137.538 46.531 137.678 45.9174 137.678ZM45.9216 136.609C46.3194 136.609 46.6489 136.504 46.9103 136.293C47.1716 136.083 47.3648 135.803 47.4898 135.454C47.6177 135.104 47.6816 134.719 47.6816 134.299C47.6816 133.881 47.6177 133.498 47.4898 133.148C47.3648 132.796 47.1716 132.514 46.9103 132.3C46.6489 132.087 46.3194 131.981 45.9216 131.981C45.5211 131.981 45.1887 132.087 44.9245 132.3C44.6631 132.514 44.4685 132.796 44.3407 133.148C44.2157 133.498 44.1532 133.881 44.1532 134.299C44.1532 134.719 44.2157 135.104 44.3407 135.454C44.4685 135.803 44.6631 136.083 44.9245 136.293C45.1887 136.504 45.5211 136.609 45.9216 136.609ZM51.4249 133.66V137.546H50.1508V131.001H51.3738V132.066H51.4547C51.6053 131.719 51.8411 131.441 52.1621 131.231C52.486 131.021 52.8936 130.916 53.3851 130.916C53.8311 130.916 54.2218 131.009 54.557 131.197C54.8922 131.381 55.1522 131.657 55.3368 132.023C55.5215 132.39 55.6138 132.843 55.6138 133.383V137.546H54.3397V133.536C54.3397 133.062 54.2161 132.691 53.9689 132.424C53.7218 132.154 53.3823 132.019 52.9505 132.019C52.655 132.019 52.3922 132.083 52.1621 132.211C51.9348 132.339 51.7544 132.526 51.6209 132.773C51.4902 133.018 51.4249 133.313 51.4249 133.66ZM59.9036 137.678C59.2588 137.678 58.7034 137.541 58.2375 137.265C57.7744 136.987 57.4164 136.596 57.1636 136.093C56.9136 135.587 56.7886 134.995 56.7886 134.316C56.7886 133.646 56.9136 133.055 57.1636 132.543C57.4164 132.032 57.7687 131.633 58.2204 131.346C58.675 131.059 59.2062 130.916 59.8142 130.916C60.1835 130.916 60.5414 130.977 60.888 131.099C61.2346 131.221 61.5457 131.413 61.8213 131.674C62.0968 131.935 62.3142 132.275 62.4732 132.693C62.6323 133.107 62.7119 133.612 62.7119 134.205V134.657H57.5088V133.702H61.4633C61.4633 133.367 61.3951 133.07 61.2588 132.812C61.1224 132.55 60.9306 132.344 60.6835 132.194C60.4392 132.043 60.1522 131.968 59.8227 131.968C59.4647 131.968 59.1522 132.056 58.8852 132.232C58.621 132.406 58.4164 132.633 58.2715 132.914C58.1295 133.193 58.0585 133.495 58.0585 133.822V134.568C58.0585 135.005 58.1352 135.377 58.2886 135.684C58.4448 135.991 58.6622 136.225 58.9406 136.387C59.219 136.546 59.5443 136.626 59.9164 136.626C60.1579 136.626 60.3781 136.592 60.5769 136.523C60.7758 136.452 60.9477 136.347 61.0926 136.208C61.2375 136.069 61.3482 135.897 61.425 135.693L62.6309 135.91C62.5343 136.265 62.361 136.576 62.111 136.843C61.8639 137.107 61.5528 137.313 61.1778 137.461C60.8056 137.606 60.3809 137.678 59.9036 137.678ZM64.5035 140.001C64.3132 140.001 64.1399 139.985 63.9836 139.954C63.8274 139.925 63.7109 139.894 63.6342 139.86L63.941 138.816C64.1739 138.879 64.3813 138.906 64.5632 138.897C64.745 138.889 64.9055 138.82 65.0447 138.693C65.1867 138.565 65.3117 138.356 65.4197 138.066L65.5774 137.631L63.1825 131.001H64.5461L66.2038 136.08H66.272L67.9296 131.001H69.2975L66.6001 138.42C66.4751 138.761 66.316 139.049 66.1228 139.285C65.9296 139.523 65.6995 139.702 65.4325 139.822C65.1654 139.941 64.8558 140.001 64.5035 140.001ZM75.0956 137.691C74.6808 137.691 74.3058 137.614 73.9706 137.461C73.6353 137.305 73.3697 137.079 73.1737 136.783C72.9805 136.488 72.8839 136.126 72.8839 135.697C72.8839 135.327 72.955 135.023 73.097 134.785C73.239 134.546 73.4308 134.357 73.6723 134.218C73.9138 134.079 74.1836 133.974 74.4819 133.903C74.7802 133.832 75.0842 133.778 75.3939 133.741C75.7859 133.695 76.1041 133.658 76.3484 133.63C76.5927 133.599 76.7703 133.549 76.8811 133.481C76.9919 133.413 77.0473 133.302 77.0473 133.148V133.119C77.0473 132.746 76.9422 132.458 76.7319 132.254C76.5246 132.049 76.2149 131.947 75.803 131.947C75.374 131.947 75.0359 132.042 74.7888 132.232C74.5444 132.42 74.3754 132.629 74.2817 132.859L73.0842 132.586C73.2263 132.188 73.4336 131.867 73.7064 131.623C73.9819 131.376 74.2987 131.197 74.6567 131.086C75.0146 130.972 75.391 130.916 75.7859 130.916C76.0473 130.916 76.3243 130.947 76.6169 131.009C76.9123 131.069 77.1879 131.18 77.4436 131.342C77.7021 131.504 77.9138 131.735 78.0785 132.036C78.2433 132.335 78.3257 132.722 78.3257 133.2V137.546H77.0814V136.651H77.0302C76.9478 136.816 76.8243 136.978 76.6595 137.137C76.4947 137.296 76.2831 137.428 76.0246 137.533C75.766 137.639 75.4564 137.691 75.0956 137.691ZM75.3726 136.668C75.7248 136.668 76.026 136.599 76.276 136.46C76.5288 136.32 76.7206 136.139 76.8513 135.914C76.9848 135.687 77.0515 135.444 77.0515 135.185V134.342C77.0061 134.387 76.918 134.43 76.7873 134.469C76.6595 134.506 76.5132 134.539 76.3484 134.568C76.1836 134.593 76.0231 134.617 75.8669 134.64C75.7106 134.66 75.58 134.677 75.4748 134.691C75.2277 134.722 75.0018 134.775 74.7973 134.849C74.5956 134.923 74.4336 135.029 74.3115 135.168C74.1922 135.305 74.1325 135.487 74.1325 135.714C74.1325 136.029 74.249 136.268 74.4819 136.43C74.7149 136.589 75.0118 136.668 75.3726 136.668ZM81.0569 133.66V137.546H79.7828V131.001H81.0058V132.066H81.0868C81.2373 131.719 81.4731 131.441 81.7941 131.231C82.118 131.021 82.5257 130.916 83.0172 130.916C83.4632 130.916 83.8538 131.009 84.189 131.197C84.5243 131.381 84.7842 131.657 84.9689 132.023C85.1535 132.39 85.2458 132.843 85.2458 133.383V137.546H83.9717V133.536C83.9717 133.062 83.8481 132.691 83.601 132.424C83.3538 132.154 83.0143 132.019 82.5825 132.019C82.287 132.019 82.0243 132.083 81.7941 132.211C81.5669 132.339 81.3865 132.526 81.253 132.773C81.1223 133.018 81.0569 133.313 81.0569 133.66ZM89.1649 137.674C88.6365 137.674 88.1649 137.539 87.7502 137.269C87.3382 136.996 87.0144 136.609 86.7786 136.106C86.5456 135.6 86.4291 134.994 86.4291 134.286C86.4291 133.579 86.547 132.974 86.7828 132.471C87.0215 131.968 87.3482 131.583 87.763 131.316C88.1777 131.049 88.6479 130.916 89.1735 130.916C89.5797 130.916 89.9064 130.984 90.1536 131.12C90.4036 131.254 90.5968 131.41 90.7331 131.589C90.8723 131.768 90.9803 131.925 91.057 132.062H91.1337V128.819H92.4078V137.546H91.1635V136.528H91.057C90.9803 136.667 90.8695 136.826 90.7246 137.005C90.5826 137.184 90.3865 137.34 90.1365 137.474C89.8865 137.607 89.5627 137.674 89.1649 137.674ZM89.4462 136.587C89.8127 136.587 90.1223 136.491 90.3752 136.298C90.6309 136.102 90.824 135.83 90.9547 135.484C91.0882 135.137 91.155 134.734 91.155 134.273C91.155 133.819 91.0897 133.421 90.959 133.08C90.8283 132.739 90.6365 132.474 90.3837 132.283C90.1309 132.093 89.8184 131.998 89.4462 131.998C89.0627 131.998 88.7431 132.097 88.4874 132.296C88.2317 132.495 88.0385 132.766 87.9078 133.11C87.78 133.454 87.7161 133.842 87.7161 134.273C87.7161 134.711 87.7814 135.104 87.9121 135.454C88.0428 135.803 88.236 136.08 88.4916 136.285C88.7502 136.487 89.0684 136.587 89.4462 136.587ZM97.0244 137.546V128.819H98.2986V132.062H98.3753C98.4491 131.925 98.5557 131.768 98.6949 131.589C98.8341 131.41 99.0273 131.254 99.2744 131.12C99.5216 130.984 99.8483 130.916 100.255 130.916C100.783 130.916 101.255 131.049 101.669 131.316C102.084 131.583 102.409 131.968 102.645 132.471C102.884 132.974 103.003 133.579 103.003 134.286C103.003 134.994 102.885 135.6 102.649 136.106C102.414 136.609 102.09 136.996 101.678 137.269C101.266 137.539 100.796 137.674 100.267 137.674C99.8696 137.674 99.5443 137.607 99.2915 137.474C99.0415 137.34 98.8455 137.184 98.7034 137.005C98.5614 136.826 98.452 136.667 98.3753 136.528H98.2687V137.546H97.0244ZM98.273 134.273C98.273 134.734 98.3398 135.137 98.4733 135.484C98.6068 135.83 98.8 136.102 99.0528 136.298C99.3057 136.491 99.6153 136.587 99.9818 136.587C100.362 136.587 100.681 136.487 100.936 136.285C101.192 136.08 101.385 135.803 101.516 135.454C101.649 135.104 101.716 134.711 101.716 134.273C101.716 133.842 101.651 133.454 101.52 133.11C101.392 132.766 101.199 132.495 100.941 132.296C100.685 132.097 100.365 131.998 99.9818 131.998C99.6125 131.998 99.3 132.093 99.0443 132.283C98.7915 132.474 98.5997 132.739 98.469 133.08C98.3383 133.421 98.273 133.819 98.273 134.273ZM107.015 137.678C106.37 137.678 105.815 137.541 105.349 137.265C104.886 136.987 104.528 136.596 104.275 136.093C104.025 135.587 103.9 134.995 103.9 134.316C103.9 133.646 104.025 133.055 104.275 132.543C104.528 132.032 104.88 131.633 105.332 131.346C105.786 131.059 106.317 130.916 106.925 130.916C107.295 130.916 107.653 130.977 107.999 131.099C108.346 131.221 108.657 131.413 108.933 131.674C109.208 131.935 109.425 132.275 109.585 132.693C109.744 133.107 109.823 133.612 109.823 134.205V134.657H104.62V133.702H108.575C108.575 133.367 108.506 133.07 108.37 132.812C108.234 132.55 108.042 132.344 107.795 132.194C107.55 132.043 107.263 131.968 106.934 131.968C106.576 131.968 106.263 132.056 105.996 132.232C105.732 132.406 105.528 132.633 105.383 132.914C105.241 133.193 105.17 133.495 105.17 133.822V134.568C105.17 135.005 105.246 135.377 105.4 135.684C105.556 135.991 105.773 136.225 106.052 136.387C106.33 136.546 106.656 136.626 107.028 136.626C107.269 136.626 107.489 136.592 107.688 136.523C107.887 136.452 108.059 136.347 108.204 136.208C108.349 136.069 108.46 135.897 108.536 135.693L109.742 135.91C109.646 136.265 109.472 136.576 109.222 136.843C108.975 137.107 108.664 137.313 108.289 137.461C107.917 137.606 107.492 137.678 107.015 137.678ZM114.052 131.001V132.023H110.477V131.001H114.052ZM111.436 129.433H112.71V135.624C112.71 135.871 112.747 136.058 112.821 136.183C112.895 136.305 112.99 136.389 113.106 136.434C113.226 136.477 113.355 136.498 113.494 136.498C113.596 136.498 113.686 136.491 113.762 136.477C113.839 136.462 113.899 136.451 113.941 136.443L114.172 137.495C114.098 137.523 113.993 137.552 113.856 137.58C113.72 137.612 113.549 137.629 113.345 137.631C113.01 137.637 112.697 137.577 112.407 137.452C112.118 137.327 111.883 137.134 111.704 136.873C111.525 136.612 111.436 136.283 111.436 135.889V129.433ZM115.222 137.546V131.001H116.453V132.041H116.521C116.641 131.688 116.851 131.411 117.152 131.21C117.456 131.005 117.8 130.903 118.183 130.903C118.263 130.903 118.357 130.906 118.465 130.911C118.575 130.917 118.662 130.924 118.725 130.933V132.151C118.673 132.137 118.582 132.121 118.452 132.104C118.321 132.085 118.19 132.075 118.06 132.075C117.759 132.075 117.49 132.139 117.254 132.266C117.021 132.391 116.837 132.566 116.7 132.791C116.564 133.012 116.496 133.265 116.496 133.549V137.546H115.222ZM121.433 137.691C121.019 137.691 120.644 137.614 120.308 137.461C119.973 137.305 119.708 137.079 119.512 136.783C119.318 136.488 119.222 136.126 119.222 135.697C119.222 135.327 119.293 135.023 119.435 134.785C119.577 134.546 119.769 134.357 120.01 134.218C120.252 134.079 120.521 133.974 120.82 133.903C121.118 133.832 121.422 133.778 121.732 133.741C122.124 133.695 122.442 133.658 122.686 133.63C122.931 133.599 123.108 133.549 123.219 133.481C123.33 133.413 123.385 133.302 123.385 133.148V133.119C123.385 132.746 123.28 132.458 123.07 132.254C122.862 132.049 122.553 131.947 122.141 131.947C121.712 131.947 121.374 132.042 121.127 132.232C120.882 132.42 120.713 132.629 120.619 132.859L119.422 132.586C119.564 132.188 119.771 131.867 120.044 131.623C120.32 131.376 120.637 131.197 120.994 131.086C121.352 130.972 121.729 130.916 122.124 130.916C122.385 130.916 122.662 130.947 122.955 131.009C123.25 131.069 123.526 131.18 123.781 131.342C124.04 131.504 124.252 131.735 124.416 132.036C124.581 132.335 124.664 132.722 124.664 133.2V137.546H123.419V136.651H123.368C123.286 136.816 123.162 136.978 122.997 137.137C122.833 137.296 122.621 137.428 122.362 137.533C122.104 137.639 121.794 137.691 121.433 137.691ZM121.71 136.668C122.063 136.668 122.364 136.599 122.614 136.46C122.867 136.32 123.058 136.139 123.189 135.914C123.323 135.687 123.389 135.444 123.389 135.185V134.342C123.344 134.387 123.256 134.43 123.125 134.469C122.997 134.506 122.851 134.539 122.686 134.568C122.521 134.593 122.361 134.617 122.205 134.64C122.048 134.66 121.918 134.677 121.813 134.691C121.565 134.722 121.34 134.775 121.135 134.849C120.933 134.923 120.771 135.029 120.649 135.168C120.53 135.305 120.47 135.487 120.47 135.714C120.47 136.029 120.587 136.268 120.82 136.43C121.053 136.589 121.35 136.668 121.71 136.668ZM126.692 140.001C126.501 140.001 126.328 139.985 126.172 139.954C126.015 139.925 125.899 139.894 125.822 139.86L126.129 138.816C126.362 138.879 126.569 138.906 126.751 138.897C126.933 138.889 127.094 138.82 127.233 138.693C127.375 138.565 127.5 138.356 127.608 138.066L127.765 137.631L125.371 131.001H126.734L128.392 136.08H128.46L130.118 131.001H131.486L128.788 138.42C128.663 138.761 128.504 139.049 128.311 139.285C128.118 139.523 127.888 139.702 127.621 139.822C127.354 139.941 127.044 140.001 126.692 140.001ZM134.16 137.691C133.746 137.691 133.371 137.614 133.035 137.461C132.7 137.305 132.435 137.079 132.239 136.783C132.045 136.488 131.949 136.126 131.949 135.697C131.949 135.327 132.02 135.023 132.162 134.785C132.304 134.546 132.496 134.357 132.737 134.218C132.979 134.079 133.248 133.974 133.547 133.903C133.845 133.832 134.149 133.778 134.459 133.741C134.851 133.695 135.169 133.658 135.413 133.63C135.658 133.599 135.835 133.549 135.946 133.481C136.057 133.413 136.112 133.302 136.112 133.148V133.119C136.112 132.746 136.007 132.458 135.797 132.254C135.589 132.049 135.28 131.947 134.868 131.947C134.439 131.947 134.101 132.042 133.854 132.232C133.609 132.42 133.44 132.629 133.346 132.859L132.149 132.586C132.291 132.188 132.498 131.867 132.771 131.623C133.047 131.376 133.364 131.197 133.721 131.086C134.079 130.972 134.456 130.916 134.851 130.916C135.112 130.916 135.389 130.947 135.682 131.009C135.977 131.069 136.253 131.18 136.508 131.342C136.767 131.504 136.979 131.735 137.143 132.036C137.308 132.335 137.391 132.722 137.391 133.2V137.546H136.146V136.651H136.095C136.013 136.816 135.889 136.978 135.724 137.137C135.56 137.296 135.348 137.428 135.089 137.533C134.831 137.639 134.521 137.691 134.16 137.691ZM134.437 136.668C134.79 136.668 135.091 136.599 135.341 136.46C135.594 136.32 135.785 136.139 135.916 135.914C136.05 135.687 136.116 135.444 136.116 135.185V134.342C136.071 134.387 135.983 134.43 135.852 134.469C135.724 134.506 135.578 134.539 135.413 134.568C135.248 134.593 135.088 134.617 134.932 134.64C134.775 134.66 134.645 134.677 134.54 134.691C134.293 134.722 134.067 134.775 133.862 134.849C133.66 134.923 133.498 135.029 133.376 135.168C133.257 135.305 133.197 135.487 133.197 135.714C133.197 136.029 133.314 136.268 133.547 136.43C133.78 136.589 134.077 136.668 134.437 136.668ZM140.122 128.819V137.546H138.848V128.819H140.122Z" fill="white"/>
</svg>
