<svg width="132" height="40" viewBox="0 0 132 40" fill="none" xmlns="http://www.w3.org/2000/svg">
<path fill-rule="evenodd" clip-rule="evenodd" d="M116.074 5.90438C115.739 5.9857 115.163 6.28529 114.905 6.51276C114.708 6.68654 114.43 7.15942 114.43 7.32053C114.43 7.4475 114.362 7.45931 114.084 7.37983C113.778 7.29195 113.713 7.24047 113.485 6.90472C113.294 6.62501 112.988 6.44911 112.906 6.40508C112.891 6.39757 112.877 6.39171 112.861 6.38783C112.793 6.37075 112.58 6.32937 112.302 6.39419C111.779 6.5166 111.617 6.52768 111.473 6.79437C111.44 6.85603 111.434 6.9283 111.446 6.99733C111.48 7.18944 111.447 7.14028 111.355 7.16687C111.324 7.1757 111.298 7.19539 111.277 7.21885C111.214 7.28731 111.133 7.39734 111.08 7.4864C110.985 7.64855 110.971 7.71958 110.988 7.93191C111.011 8.21033 110.999 8.22682 110.514 8.59811C110.41 8.67804 110.237 8.85694 110.13 8.99568L110.038 9.11476C109.974 9.19872 109.874 9.24793 109.768 9.24796L109.459 9.24805C108.819 9.24827 107.28 9.39195 106.772 9.49893C106.714 9.51101 106.502 9.6768 106.3 9.86739C106.098 10.0579 105.802 10.2834 105.642 10.3683C105.482 10.4533 105.216 10.6103 105.051 10.7172C104.551 11.0407 103.327 11.5386 102.497 11.7563C101.993 11.8883 101.498 12.0971 101.396 12.2207C101.323 12.3096 101.286 12.5852 101.336 12.6625C101.373 12.7185 101.522 12.7296 102.223 12.7281C102.919 12.7265 103.15 12.7086 103.558 12.6241C104.415 12.4465 104.715 12.3915 104.732 12.4085C104.758 12.4351 104.312 12.7991 103.812 13.1597C103.556 13.3434 103.203 13.5993 103.027 13.7284C102.851 13.8575 102.64 13.998 102.559 14.0407C102.318 14.1678 102.306 14.4198 102.537 14.509C102.735 14.5854 103.52 14.4533 104.05 14.2545C104.864 13.949 105.81 13.3143 106.696 12.4791C107.741 11.4949 107.613 11.5376 109.633 11.4999C110.797 11.4782 111.16 11.4577 111.247 11.4089C111.606 11.2071 112.299 10.6625 112.787 10.1974C113.35 9.66273 113.35 9.66229 114.204 9.22999C115.046 8.80357 115.064 8.79719 115.428 8.77913C116.489 8.72652 117.374 8.00443 117.466 7.11637C117.508 6.70595 117.45 6.47767 117.248 6.25757C117.04 6.03203 116.671 5.83169 116.473 5.83708C116.397 5.83915 116.218 5.86943 116.074 5.90438ZM125.449 12.3206C125.201 12.4115 125.07 12.5091 124.915 12.7203C124.492 13.2943 124.376 13.8992 124.558 14.5663C124.663 14.9477 124.786 15.2191 124.896 15.3105C124.934 15.3428 124.966 15.3865 124.966 15.4076C124.966 15.4607 124.023 15.9019 123.975 15.8716C123.953 15.8581 123.935 15.818 123.935 15.7825C123.935 15.6682 123.634 15.3795 123.401 15.27C123.19 15.171 123.181 15.1603 123.27 15.1149C123.48 15.0084 123.553 14.8371 123.569 14.4164C123.596 13.723 123.374 13.419 122.798 13.3629C122.249 13.3093 122.217 13.4839 122.696 13.9262C123.099 14.2981 123.162 14.4253 123.064 14.6614C123.025 14.7542 122.993 14.8903 122.993 14.9641C122.993 15.0737 122.979 15.0926 122.915 15.0673C122.872 15.0502 122.586 14.9974 122.28 14.9499C121.973 14.9024 121.714 14.8547 121.703 14.8439C121.692 14.8331 121.727 14.7636 121.779 14.6895C121.975 14.4136 122.001 14.2891 121.964 13.7855C121.935 13.3869 121.908 13.2702 121.79 13.0358C121.568 12.5958 121.287 12.4415 120.701 12.4389C120.31 12.4372 120.026 12.6064 119.732 13.018C119.451 13.41 119.355 13.708 119.352 14.1922C119.351 14.6157 119.472 14.9137 119.761 15.1967C119.851 15.2847 119.832 15.4343 119.723 15.4966L119.602 15.5654C119.416 15.6716 119.18 15.8273 119.078 15.9112C118.835 16.1101 118.054 16.6611 118.015 16.6611C117.998 16.6611 117.973 16.549 117.959 16.412C117.945 16.275 117.888 16.0697 117.833 15.9557C117.695 15.6696 117.226 15.1844 116.908 14.998L116.826 14.95C116.739 14.8995 116.733 14.7771 116.814 14.7183C116.909 14.6499 116.987 14.5687 116.989 14.538C117 14.3875 117.026 14.2799 117.114 14.023C117.286 13.5229 117.225 13.1094 116.932 12.775C116.667 12.4738 116.489 12.382 116.164 12.379C115.925 12.3768 115.829 12.4044 115.461 12.5802C114.835 12.8798 114.517 13.2454 114.448 13.7434C114.393 14.1505 114.631 14.6046 115.012 14.8154C115.084 14.8556 115.072 14.9633 114.992 14.9864L114.987 14.9879C114.625 15.0928 114.247 15.43 113.842 16.0096C113.503 16.4943 113.208 16.7627 112.904 16.8635C112.769 16.9078 112.468 17.022 112.235 17.1171C111.723 17.3259 111.561 17.3406 111.561 17.1779C111.561 16.9893 111.272 16.7207 110.856 16.5215C110.433 16.3192 110.247 16.3049 110.224 16.4726C110.204 16.6127 110.268 16.6799 110.687 16.9597C110.884 17.0915 111.095 17.2384 111.156 17.2862L111.167 17.2947C111.208 17.3267 111.194 17.3915 111.144 17.4042C110.92 17.4604 110.859 17.744 111.035 17.9096C111.091 17.9624 111.268 18.0391 111.427 18.08C111.779 18.1705 111.955 18.1387 112.532 17.8795C112.75 17.7818 113.251 17.5913 113.646 17.4561C114.04 17.3209 114.398 17.1958 114.441 17.178C114.544 17.1359 114.543 17.1938 114.43 17.7747C114.305 18.4202 114.308 19.0944 114.438 19.4366C114.494 19.5837 114.544 19.8355 114.554 20.0248C114.57 20.3136 114.555 20.3969 114.44 20.6763C114.367 20.8525 114.181 21.3808 114.026 21.8503C113.872 22.3198 113.648 22.896 113.529 23.1308C113.205 23.7731 113.08 24.4157 113.165 25.0094L113.181 25.1185C113.196 25.228 113.158 25.3384 113.078 25.4146L113.035 25.4554C112.941 25.5447 112.793 25.7506 112.707 25.9131C112.621 26.0755 112.508 26.269 112.457 26.3432L112.443 26.3645C112.426 26.3892 112.387 26.3725 112.393 26.3432C112.409 26.269 112.449 26.0972 112.482 25.9613C112.514 25.8254 112.555 25.6131 112.573 25.4895C112.59 25.366 112.621 25.2188 112.642 25.1624C112.663 25.106 112.72 24.7623 112.769 24.3986C112.824 23.9815 112.922 23.5217 113.032 23.1533C113.128 22.832 113.229 22.401 113.257 22.1955C113.284 21.9899 113.378 21.6152 113.465 21.3627C113.552 21.1103 113.623 20.8599 113.623 20.8064C113.623 20.7529 113.552 20.5124 113.465 20.2719C113.363 19.9875 113.276 19.6215 113.217 19.2251C113.112 18.5203 113.077 18.4133 112.951 18.4133C112.794 18.4133 112.759 18.602 112.818 19.132C112.888 19.7659 112.93 19.9844 113.067 20.4369L113.151 20.7159C113.172 20.784 113.171 20.8568 113.148 20.9242L113.002 21.3579C112.902 21.6535 112.807 22.0065 112.792 22.1424C112.776 22.2783 112.692 22.6826 112.606 23.0409C112.52 23.3992 112.422 23.9451 112.387 24.254C112.313 24.9275 112.251 25.3459 112.141 25.9164C112.053 26.3791 112.031 27.5334 112.108 27.6825C112.136 27.737 112.189 27.7592 112.27 27.7499C112.378 27.7374 112.397 27.7062 112.462 27.4399C112.509 27.2466 112.627 26.9893 112.802 26.6986C112.949 26.4537 113.126 26.1557 113.194 26.0364C113.262 25.9171 113.325 25.8275 113.335 25.8373C113.345 25.8471 113.394 26.0559 113.444 26.3013C113.494 26.5467 113.564 26.8385 113.599 26.9497C113.75 27.428 113.766 28.8108 113.625 29.2923C113.533 29.606 113.763 29.8757 113.993 29.7246C114.122 29.6399 114.395 28.9204 114.523 28.3304C114.573 28.1023 114.661 27.7337 114.72 27.5113C114.888 26.8793 114.933 26.4955 114.942 25.6243C114.95 24.841 114.954 24.8054 115.082 24.4904C115.155 24.3116 115.227 24.165 115.242 24.1647C115.257 24.1644 115.375 24.4826 115.504 24.8718C115.633 25.2609 115.829 25.7747 115.939 26.0135C116.049 26.2538 116.197 26.6865 116.269 26.9823C116.455 27.7428 116.884 28.7984 117.125 29.0889C117.2 29.18 117.408 29.165 117.501 29.0617C117.572 28.9834 117.578 28.9203 117.552 28.5563C117.498 27.8077 117.399 27.2113 117.173 26.2758C116.853 24.949 116.842 24.5779 117.106 23.8529L117.158 23.7122C117.179 23.6527 117.265 23.6566 117.281 23.7178C117.31 23.8274 117.398 24.1597 117.476 24.4562C117.591 24.8907 117.626 25.1348 117.658 25.7142C117.679 26.1095 117.73 26.623 117.77 26.8553C117.862 27.3733 118.005 27.9439 118.057 27.9962C118.078 28.0175 118.153 28.0284 118.224 28.0203C118.38 28.0024 118.41 27.8986 118.316 27.6995C118.197 27.4491 118.096 26.6421 118.064 25.6917C118.035 24.8485 118.02 24.7232 117.885 24.2091C117.677 23.4234 117.562 23.2193 117.367 23.2942C117.278 23.3285 117.276 23.3372 117.458 22.7926C117.691 22.0941 117.971 20.8645 117.97 20.5474C117.969 20.3991 117.948 20.1869 117.923 20.0757C117.899 19.9645 117.861 19.5298 117.84 19.1097C117.809 18.4949 117.813 18.3274 117.861 18.2507C117.895 18.1983 117.939 18.0882 117.96 18.0059C117.994 17.8742 118.025 17.8496 118.221 17.7988C118.343 17.7671 118.537 17.7407 118.652 17.7402C118.767 17.7398 119.019 17.7091 119.212 17.672C119.406 17.6349 119.576 17.6046 119.592 17.6046C119.607 17.6046 119.632 17.667 119.647 17.7432C119.663 17.8194 119.785 18.1176 119.919 18.4059C120.054 18.6942 120.227 19.1524 120.305 19.4242C120.383 19.696 120.505 20.1013 120.577 20.3247C120.648 20.5483 120.707 20.7885 120.707 20.8585C120.707 20.935 120.593 21.177 120.423 21.4631C119.615 22.8177 119.628 22.7928 119.374 23.5928L119.142 24.3258C119.133 24.3527 119.128 24.3806 119.126 24.4088L119.069 25.3772C119.036 25.9332 118.985 26.6105 118.956 26.8823C118.889 27.5191 118.916 28.7534 118.999 28.8541C119.032 28.894 119.077 28.9266 119.099 28.9266C119.27 28.9266 119.7 27.8238 119.968 26.6984C120.028 26.449 120.128 26.0998 120.192 25.9224C120.36 25.4577 120.934 24.2669 121.164 23.9088C121.273 23.7403 121.435 23.4691 121.526 23.3061C121.616 23.1431 121.722 22.9829 121.762 22.9501C121.825 22.8971 121.83 22.9052 121.804 23.0218C121.789 23.0941 121.767 23.1806 121.756 23.214C121.706 23.3737 121.595 24.6487 121.592 25.1076C121.587 25.6004 121.595 25.6431 121.748 26.0287C121.837 26.2511 121.994 26.615 122.098 26.8374C122.202 27.0598 122.336 27.3732 122.397 27.5338C122.457 27.6944 122.567 27.9673 122.642 28.1403C122.717 28.3133 122.806 28.5205 122.84 28.6008C122.887 28.7111 122.93 28.7468 123.017 28.7468C123.089 28.7468 123.143 28.7147 123.163 28.66C123.181 28.6123 123.184 27.6772 123.17 26.5821C123.152 25.1725 123.159 24.545 123.194 24.4337C123.222 24.3472 123.374 24.0845 123.531 23.8498C123.79 23.4646 124.146 22.8326 124.612 21.9317C124.704 21.7541 124.803 21.4936 124.832 21.3529C124.881 21.1182 124.874 21.0485 124.746 20.5078C124.669 20.1836 124.526 19.6151 124.428 19.2445C124.289 18.7199 124.249 18.4884 124.249 18.1999L124.249 18.171C124.249 17.9823 124.402 17.8292 124.591 17.8292H124.756H125.021C125.166 17.8292 125.295 17.9212 125.343 18.0584L125.369 18.1325C125.427 18.2993 125.563 18.6481 125.671 18.9075C125.779 19.167 125.946 19.6825 126.043 20.0532C126.14 20.4239 126.254 20.8514 126.296 21.0032C126.385 21.3251 126.437 21.2189 125.807 22.015C125.061 22.9575 124.968 23.1805 124.964 24.0279C124.962 24.461 124.891 26.0841 124.801 27.7617C124.784 28.0818 124.793 28.1572 124.855 28.2083C125.001 28.33 125.071 28.205 125.258 27.4844C125.357 27.1039 125.513 26.5903 125.603 26.3432C125.694 26.0961 125.821 25.6816 125.886 25.4221C125.95 25.1627 126.08 24.7785 126.174 24.5685C126.269 24.3585 126.4 24.0654 126.466 23.9172C126.531 23.769 126.628 23.6024 126.68 23.5469C126.721 23.5033 126.794 23.5221 126.808 23.5801L126.874 23.8418C126.992 24.3066 127.11 24.5956 127.38 25.0793C127.604 25.4792 127.859 26.0523 128.093 26.6801C128.18 26.9149 128.361 27.3142 128.496 27.5675C128.719 27.9881 128.751 28.028 128.869 28.028C129.076 28.028 129.11 27.909 129.112 27.1744C129.113 26.6332 129.1 26.4982 129.034 26.377C128.96 26.2415 128.894 25.8917 128.775 24.9953C128.749 24.7976 128.688 24.4713 128.64 24.2701C128.491 23.643 128.529 23.4769 128.941 22.9696C129.1 22.7741 129.309 22.5168 129.406 22.3978C129.638 22.1128 129.754 21.7233 129.816 21.0205C129.865 20.4705 129.863 20.4405 129.723 19.7162C129.645 19.3085 129.543 18.793 129.496 18.5706C129.449 18.3482 129.399 18.0853 129.383 17.9865C129.327 17.625 128.984 16.5893 128.86 16.4062C128.79 16.303 128.713 16.1665 128.689 16.1029C128.665 16.0393 128.579 15.9468 128.498 15.8975C128.181 15.7038 127.394 15.3916 126.901 15.2643C126.616 15.1907 126.375 15.123 126.366 15.114C126.357 15.105 126.399 14.9995 126.459 14.8796C126.685 14.4272 126.727 14.2181 126.702 13.6791C126.672 13.0475 126.62 12.8801 126.38 12.6391C126.055 12.3132 125.752 12.2095 125.449 12.3206ZM127.282 13.31C126.968 13.4259 126.806 13.6565 126.952 13.7783C126.995 13.8138 127.079 13.8017 127.264 13.7332L127.38 13.6906C127.468 13.658 127.566 13.6633 127.65 13.7052L127.733 13.7463C128.165 13.9612 128.327 14.5996 128.082 15.1268C127.947 15.4176 127.942 15.5195 128.06 15.5828C128.2 15.6579 128.323 15.5622 128.453 15.2765C128.546 15.0724 128.569 14.9523 128.571 14.6626C128.573 14.232 128.511 14.0025 128.317 13.7118C128.074 13.3492 127.637 13.1792 127.282 13.31ZM113.124 13.6487C112.706 13.8766 112.359 14.4593 112.331 14.9809C112.313 15.3252 112.37 15.5006 112.574 15.7192C112.638 15.7877 112.653 15.8886 112.611 15.9727L112.589 16.0178C112.522 16.1537 112.501 16.2706 112.511 16.4608C112.536 16.9228 112.762 16.8979 112.937 16.414C113.011 16.2108 113.043 16.1775 113.277 16.0658C113.744 15.8427 113.734 15.5908 113.256 15.5025C112.91 15.4385 112.816 15.3431 112.816 15.0529C112.816 14.797 112.944 14.525 113.196 14.2462L113.287 14.1456C113.352 14.074 113.444 14.0331 113.54 14.033L113.697 14.033L113.874 14.0329C113.946 14.0328 114.004 13.9746 114.004 13.9029C114.004 13.6171 113.467 13.4618 113.124 13.6487ZM118.172 13.8252C117.97 13.917 117.791 14.1098 117.651 14.3843C117.458 14.7637 117.635 15.5968 117.96 15.8354C118.23 16.034 118.58 16.0879 118.705 15.9499C118.858 15.7802 118.766 15.6529 118.408 15.5391C118.089 15.4377 117.92 14.8712 118.102 14.5137C118.22 14.2824 118.351 14.1924 118.631 14.1527C118.834 14.1238 118.847 14.1135 118.86 13.9763C118.872 13.8541 118.855 13.8233 118.757 13.7856C118.581 13.7188 118.375 13.7327 118.172 13.8252ZM108.924 13.8817C108.842 13.9054 108.69 14.01 108.586 14.1142C108.192 14.5087 108.053 15.2692 108.288 15.7369C108.474 16.104 108.797 16.4244 109.062 16.5033C109.4 16.6038 109.585 16.5881 109.895 16.4326C110.316 16.2221 110.531 15.8891 110.543 15.4281C110.548 15.2727 110.528 15.0973 110.5 15.0384C110.472 14.9795 110.414 14.8303 110.37 14.7067C110.254 14.3805 109.859 13.996 109.543 13.902C109.276 13.8226 109.144 13.8182 108.924 13.8817ZM109.073 14.3677C109.023 14.3881 108.939 14.4526 108.886 14.5109C108.787 14.6181 108.602 15.1065 108.602 15.2581C108.602 15.4071 108.828 15.7986 109.008 15.9618C109.155 16.0947 109.219 16.122 109.384 16.122C109.624 16.122 109.878 15.9843 109.971 15.8043C110.065 15.6223 110.055 15.1108 109.953 14.886C109.865 14.6927 109.602 14.435 109.423 14.3667C109.293 14.3169 109.194 14.3172 109.073 14.3677ZM96.0026 16.0618C95.8134 16.061 95.662 16.2142 95.662 16.4034V18.9075C95.662 19.0962 95.5089 19.2491 95.3202 19.2491C94.4522 19.2491 93.8035 19.2491 92.9774 19.2491C92.7888 19.2491 92.6357 19.402 92.6357 19.5906V22.1392C92.6357 22.3279 92.4828 22.4808 92.2941 22.4808H90.1134C89.9247 22.4808 89.7718 22.6337 89.7718 22.8223V25.2546C89.7718 25.4433 89.6189 25.5962 89.4303 25.5962H87.3416C87.1529 25.5962 87 25.7491 87 25.9377V28.8092C87 28.9984 87.1512 29.1515 87.3404 29.1507C89.3222 29.1421 99.3955 29.0967 102.597 29.0472C102.785 29.0443 102.933 28.8903 102.931 28.7027L102.801 16.4045C102.799 16.2148 102.644 16.063 102.454 16.0649C100.91 16.0803 97.1534 16.0665 96.0026 16.0618ZM108.082 16.4737C107.803 16.6764 107.63 16.9043 107.389 17.3846C107.144 17.8733 107.039 18.2174 107.023 18.5788C107.012 18.8538 107.115 19.0081 107.3 18.9928C107.362 18.9875 107.539 19.0092 107.692 19.0408L107.788 19.0606C107.892 19.082 107.963 19.1784 107.952 19.2837C107.941 19.3857 107.922 19.6113 107.909 19.785C107.761 21.795 107.748 21.8603 107.362 22.659L107.179 23.0369C107.157 23.0839 107.145 23.1355 107.145 23.1877L107.153 24.4113C107.162 25.8153 107.21 26.5802 107.352 27.5338C107.476 28.3733 107.486 28.407 107.614 28.4254C107.677 28.4344 107.745 28.4104 107.776 28.3682C107.823 28.303 107.831 28.3052 107.853 28.389C107.874 28.47 107.906 28.4806 108.094 28.4686C108.278 28.4569 108.313 28.44 108.325 28.3553C108.341 28.2383 108.187 28.1807 107.973 28.2237C107.855 28.2472 107.84 28.2379 107.84 28.1447C107.84 28.0866 107.869 28.0146 107.905 27.9848C108.005 27.9013 108.19 27.5649 108.32 27.2299C108.434 26.935 108.438 26.8929 108.465 25.5794L108.492 24.2836C108.493 24.2491 108.499 24.2149 108.51 24.1822L108.666 23.7149C108.794 23.3341 108.899 23.113 109.068 22.8747C109.194 22.6968 109.31 22.5503 109.326 22.549C109.341 22.5478 109.368 22.6023 109.384 22.6703C109.4 22.7383 109.502 22.9758 109.61 23.1982C109.956 23.9099 110.162 24.4046 110.216 24.6584C110.273 24.9219 110.266 24.9861 110.022 26.5229C109.77 28.1126 109.75 28.289 109.811 28.3628C109.965 28.5492 110.116 28.3995 110.457 27.7213C110.873 26.8939 111.164 26.0636 111.339 25.203C111.435 24.7334 111.439 24.6548 111.392 24.237C111.364 23.9869 111.289 23.5295 111.225 23.2206C111.161 22.9118 111.089 22.5377 111.065 22.3895C111.041 22.2412 110.987 21.9784 110.944 21.8054C110.891 21.5925 110.867 21.3168 110.867 20.9518C110.868 20.4515 110.879 20.3867 111.012 20.0531C111.091 19.8553 111.171 19.553 111.19 19.3812L111.197 19.3149C111.214 19.1682 111.322 19.0485 111.467 19.0183L111.702 18.9692C112.391 18.8252 112.777 18.6048 112.839 18.3198C112.873 18.1651 112.796 18.009 112.686 18.009C112.641 18.009 112.526 18.072 112.43 18.1491C112.202 18.3322 111.978 18.4271 111.49 18.5464C110.796 18.7159 110.831 18.6954 110.744 18.9859C110.702 19.1281 110.656 19.3217 110.641 19.4162C110.626 19.5106 110.551 19.7431 110.473 19.9328C110.338 20.262 110.332 20.3067 110.33 20.9068C110.328 21.3997 110.35 21.6379 110.43 22.0076C110.998 24.6223 110.986 24.5186 110.8 25.3414C110.674 25.8977 110.451 26.6192 110.417 26.5807C110.411 26.5736 110.431 26.396 110.463 26.1859C110.59 25.3384 110.634 24.6486 110.577 24.3767C110.508 24.0445 110.195 23.2121 110.061 23.0012C110.004 22.9119 109.892 22.6669 109.812 22.4569C109.732 22.2468 109.652 22.0446 109.634 22.0076C109.581 21.8968 109.39 21.8112 109.271 21.8444C109.102 21.8916 108.49 22.8685 108.268 23.4453L108.109 23.8582C108.094 23.8971 108.086 23.9384 108.086 23.9801L108.083 25.3548C108.082 26.1455 108.064 26.8632 108.044 26.9497C107.996 27.1559 107.8 27.5991 107.77 27.569C107.707 27.5053 107.62 25.9591 107.607 24.6584L107.594 23.2793C107.593 23.226 107.605 23.1732 107.629 23.1254L107.848 22.6798C107.988 22.3947 108.124 22.0712 108.151 21.9609C108.237 21.6054 108.356 20.3489 108.389 19.4691C108.395 19.2921 108.536 19.1478 108.713 19.1388L108.961 19.1263C109.753 19.0862 110.465 18.8875 110.579 18.6747C110.641 18.5584 110.614 18.4107 110.52 18.3516C110.462 18.3152 110.389 18.3235 110.228 18.3851C109.747 18.5692 109.172 18.6829 108.736 18.6801C108.239 18.6768 107.582 18.6195 107.538 18.5757C107.476 18.5128 107.618 18.0374 107.836 17.5861C108.029 17.1849 108.102 17.0828 108.354 16.8597C108.515 16.717 108.647 16.5674 108.647 16.5273C108.647 16.3139 108.341 16.285 108.082 16.4737ZM108.512 17.5896C108.266 17.6284 108.207 17.6517 108.181 17.7198C108.14 17.8272 108.233 17.964 108.348 17.964C108.404 17.964 108.474 17.9883 108.503 18.0179C108.533 18.0476 108.557 18.0521 108.557 18.028C108.557 17.9785 109.104 18.0145 109.62 18.0979C109.881 18.14 109.968 18.1385 110.069 18.0905C110.212 18.0218 110.259 17.8309 110.153 17.7432C110.116 17.7125 109.808 17.659 109.467 17.6244C108.847 17.5614 108.72 17.5568 108.512 17.5896ZM119.02 18.0202C118.667 18.2565 118.638 18.354 118.672 19.1996C118.691 19.6725 118.684 19.9803 118.651 20.0994C118.587 20.334 118.488 21.5228 118.493 21.9851C118.497 22.3084 118.522 22.4049 118.735 22.9442C118.997 23.6043 119.096 23.7175 119.272 23.5578C119.401 23.4407 119.387 23.3442 119.155 22.7944C118.886 22.1537 118.866 21.8935 119.01 20.8844C119.089 20.3239 119.115 19.9437 119.115 19.3258L119.115 18.6656C119.115 18.5659 119.159 18.4712 119.235 18.4063L119.306 18.3451C119.508 18.172 119.541 18.0602 119.426 17.9447C119.326 17.8442 119.266 17.8554 119.02 18.0202ZM125.244 19.1883C125.111 19.3489 124.922 20.4522 124.922 21.0724C124.922 21.2376 124.899 21.4297 124.872 21.4992C124.845 21.5688 124.732 21.8883 124.62 22.2093C124.443 22.7218 124.414 22.86 124.383 23.3431C124.345 23.918 124.389 24.49 124.48 24.5993C124.509 24.6343 124.585 24.6568 124.648 24.6494C124.715 24.6416 124.767 24.5865 124.769 24.5193L124.798 23.8496C124.836 22.983 124.87 22.7346 125.002 22.367C125.21 21.79 125.277 21.4476 125.299 20.8394C125.311 20.5004 125.362 20.027 125.413 19.7659C125.464 19.509 125.494 19.2613 125.48 19.2155C125.45 19.1204 125.314 19.1047 125.244 19.1883ZM125.445 24.9002C125.428 24.9442 125.416 25.0139 125.417 25.0552C125.419 25.1048 125.435 25.0935 125.463 25.0217C125.487 24.962 125.5 24.8923 125.491 24.8666C125.483 24.8411 125.462 24.8562 125.445 24.9002ZM130.872 26.9901C130.729 27.0371 130.588 27.0958 130.558 27.1206C130.528 27.1455 130.453 27.1727 130.391 27.1813C130.306 27.1931 130.279 27.2235 130.279 27.3079C130.279 27.3981 130.317 27.4335 130.481 27.4964C130.523 27.5126 130.512 27.5752 130.466 27.5756L130.301 27.577C129.897 27.5803 129.779 27.6173 129.821 27.7271C129.854 27.8127 130.406 27.8638 131.058 27.8415C131.443 27.8284 131.529 27.8122 131.58 27.7428C131.696 27.5829 131.56 27.4713 131.186 27.4216C130.868 27.3795 130.967 27.321 131.411 27.2885C131.989 27.2462 132.013 27.2381 131.997 27.0942C131.984 26.9861 131.962 26.9711 131.803 26.9623C131.705 26.9569 131.513 26.9418 131.377 26.9287C131.202 26.9117 131.056 26.9296 130.872 26.9901ZM126.132 27.3229C126.023 27.3602 125.975 27.4038 125.975 27.4664C125.975 27.5484 126 27.555 126.266 27.5424C126.509 27.531 126.595 27.5481 126.782 27.6453C127.079 27.7996 127.362 27.8339 127.582 27.7419C127.718 27.6848 127.749 27.6499 127.738 27.5684C127.725 27.479 127.689 27.4626 127.447 27.4358C127.295 27.419 127.109 27.3735 127.035 27.3347C126.872 27.2505 126.363 27.2438 126.132 27.3229ZM123.472 27.3391C123.39 27.4214 123.454 27.5377 123.63 27.6226C123.863 27.7357 123.89 27.7355 124.162 27.6181C124.409 27.5118 124.446 27.4446 124.26 27.4425C124.192 27.4417 124.098 27.4114 124.05 27.3751C123.962 27.3086 123.529 27.2817 123.472 27.3391ZM115.065 27.7856C114.976 27.8481 114.965 27.8831 114.991 28.0221C115.008 28.1118 115.047 28.2358 115.079 28.2976C115.111 28.3593 115.16 28.4655 115.186 28.5334C115.23 28.6446 115.257 28.657 115.454 28.657C115.608 28.657 115.693 28.633 115.746 28.5748C115.85 28.4599 115.842 28.4474 115.651 28.4168C115.522 28.3961 115.469 28.3601 115.428 28.265C115.399 28.1964 115.349 28.1023 115.317 28.0559C115.272 27.9888 115.271 27.9673 115.316 27.9511C115.38 27.9277 115.393 27.7584 115.331 27.7584C115.308 27.7584 115.262 27.748 115.229 27.7353C115.196 27.7226 115.122 27.7453 115.065 27.7856ZM104.208 27.8793C104.034 27.9085 103.654 28.035 103.592 28.0844C103.561 28.1088 103.536 28.159 103.536 28.1958C103.536 28.2479 103.568 28.2559 103.681 28.2315C103.762 28.2143 103.912 28.202 104.015 28.2042C104.144 28.2069 104.216 28.1856 104.243 28.1366C104.314 28.0097 104.657 28.0391 104.934 28.1958C105.165 28.3268 105.184 28.3301 105.353 28.2709C105.451 28.2369 105.662 28.2087 105.823 28.2084C106.159 28.2076 106.329 28.1231 106.307 27.9675C106.291 27.8586 106.282 27.8582 105.71 27.9439C105.243 28.0138 105.119 28.0108 104.903 27.9241C104.733 27.8559 104.455 27.838 104.208 27.8793ZM120.287 27.9414C120.157 28.044 120.131 28.1959 120.237 28.2366C120.274 28.251 120.331 28.2407 120.363 28.2138C120.406 28.1783 120.437 28.1798 120.476 28.2191C120.506 28.2489 120.656 28.2871 120.809 28.3039C120.963 28.3208 121.214 28.3492 121.367 28.3672C121.669 28.4024 121.783 28.3575 121.783 28.2031C121.783 28.1485 121.74 28.1102 121.66 28.0925C121.592 28.0776 121.478 28.047 121.406 28.0243C121.335 28.0016 121.151 27.9831 120.997 27.9831C120.804 27.9831 120.701 27.9624 120.662 27.9157C120.584 27.8211 120.426 27.8319 120.287 27.9414ZM125.74 27.9153C125.659 27.9502 125.594 28.0107 125.594 28.0497C125.594 28.1419 125.727 28.1929 125.773 28.1183C125.802 28.0714 125.876 28.0717 126.17 28.1196C126.539 28.1795 126.76 28.1447 126.76 28.0266C126.76 27.8696 126.028 27.7896 125.74 27.9153ZM110.875 27.9714C110.742 28.003 110.808 28.1339 110.978 28.1747C111.064 28.1954 111.193 28.2308 111.265 28.2534C111.336 28.2761 111.589 28.3189 111.826 28.3486C112.185 28.3934 112.291 28.3918 112.458 28.3388C112.626 28.2857 112.659 28.2564 112.659 28.1628C112.659 28.0546 112.648 28.0504 112.368 28.0489C112.097 28.0474 111.326 27.9983 111.068 27.9661C111.006 27.9584 110.919 27.9608 110.875 27.9714ZM108.721 28.013C108.609 28.1254 108.844 28.2976 109.11 28.2976C109.268 28.2976 109.394 28.2021 109.343 28.1198C109.327 28.094 109.236 28.0729 109.14 28.0729C109.044 28.0729 108.953 28.0527 108.938 28.028C108.907 27.9772 108.767 27.9676 108.721 28.013ZM110.743 28.4292C110.626 28.4455 110.508 28.4815 110.48 28.5091C110.377 28.6128 110.494 28.657 110.873 28.657C111.21 28.657 111.272 28.6698 111.381 28.7621C111.492 28.8552 111.569 28.8707 112.054 28.8968C112.679 28.9305 112.839 28.8908 112.839 28.7013C112.839 28.6393 112.789 28.5886 112.727 28.5873L112.228 28.5772C111.686 28.5661 111.608 28.5546 111.537 28.4761C111.452 28.3816 111.193 28.3663 110.743 28.4292ZM106.237 28.4641C106.109 28.4888 106.026 28.6299 106.103 28.6911C106.178 28.7501 106.54 28.7933 106.54 28.7433C106.54 28.7213 106.66 28.7159 106.807 28.7313C107.015 28.7531 107.099 28.7429 107.188 28.6847C107.251 28.6436 107.302 28.5934 107.302 28.5732C107.302 28.4679 106.593 28.3953 106.237 28.4641ZM104.399 28.6108C104.218 28.6931 104.175 28.7435 104.235 28.8034C104.249 28.818 104.355 28.8018 104.469 28.7674C104.659 28.71 104.684 28.7117 104.767 28.788C104.896 28.906 105.017 28.9328 105.191 28.8825C105.341 28.8394 105.553 28.6764 105.553 28.6042C105.553 28.5455 105.4 28.5608 105.216 28.6379C105.055 28.7051 105.04 28.704 104.921 28.6155C104.765 28.5003 104.644 28.4992 104.399 28.6108Z" fill="#27272A"/>
<g style="mix-blend-mode:multiply">
<path d="M3.936 30C3.6 30.032 3.432 29.96 3.432 29.784C3.432 29.608 3.6 29.504 3.936 29.472C5.408 29.328 6.16 28.688 6.192 27.552C6.256 24.16 6.288 22.112 6.288 21.408C6.288 19.072 6.256 17.152 6.192 15.648C6.16 15.12 6.024 14.672 5.784 14.304C5.544 13.92 5.232 13.728 4.848 13.728C3.728 13.728 2.44 14.64 0.984 16.464C0.632 16.896 0.384 17.048 0.24 16.92C0.144 16.84 0.168 16.648 0.312 16.344C0.968 14.904 1.48 13.864 1.848 13.224C2.216 12.568 2.52 12.24 2.76 12.24C2.856 12.24 2.936 12.32 3 12.48C3.064 12.64 3.16 12.808 3.288 12.984C3.432 13.144 3.648 13.224 3.936 13.224C8.24 13.224 10.664 13.216 11.208 13.2C11.432 13.2 11.616 13.152 11.76 13.056C11.904 12.944 12 12.832 12.048 12.72C12.096 12.592 12.144 12.48 12.192 12.384C12.256 12.288 12.328 12.24 12.408 12.24C12.488 12.24 12.56 12.296 12.624 12.408C12.704 12.504 12.776 12.688 12.84 12.96C12.92 13.216 12.984 13.472 13.032 13.728C13.096 13.984 13.184 14.384 13.296 14.928C13.408 15.456 13.512 15.92 13.608 16.32C13.704 16.752 13.672 16.96 13.512 16.944C13.368 16.928 13.208 16.728 13.032 16.344C12.616 15.48 12.128 14.832 11.568 14.4C11.024 13.952 10.472 13.728 9.912 13.728C9.256 13.728 8.784 13.888 8.496 14.208C8.208 14.528 8.048 15.016 8.016 15.672C7.968 16.584 7.944 18.496 7.944 21.408C7.944 24.24 7.968 26.28 8.016 27.528C8.048 28.168 8.208 28.64 8.496 28.944C8.784 29.232 9.272 29.408 9.96 29.472C10.2 29.488 10.36 29.544 10.44 29.64C10.536 29.72 10.536 29.8 10.44 29.88C10.344 29.96 10.184 30 9.96 30C9.656 30 9.176 29.976 8.52 29.928C7.864 29.864 7.328 29.832 6.912 29.832C6.352 29.832 5.36 29.888 3.936 30ZM12.7703 18.144C13.9383 17.952 14.7543 17.696 15.2183 17.376C15.3623 17.28 15.4983 17.256 15.6263 17.304C15.7543 17.352 15.8103 17.456 15.7943 17.616C15.7143 18.528 15.6743 19.536 15.6743 20.64C15.6743 20.784 15.7463 20.856 15.8903 20.856C15.9703 20.856 16.0423 20.784 16.1063 20.64C16.6183 19.424 17.1863 18.56 17.8103 18.048C18.4503 17.536 19.0423 17.28 19.5863 17.28C19.8743 17.28 20.0903 17.376 20.2343 17.568C20.3943 17.76 20.4503 18.008 20.4023 18.312C20.3063 18.952 19.8423 19.28 19.0103 19.296C18.0023 19.328 17.2103 19.712 16.6343 20.448C16.0743 21.184 15.7943 22.288 15.7943 23.76L15.8183 27.552C15.8183 28.672 16.5703 29.312 18.0743 29.472C18.4103 29.504 18.5783 29.608 18.5783 29.784C18.5783 29.96 18.4103 30.032 18.0743 30C16.6503 29.888 15.6583 29.832 15.0983 29.832C14.7783 29.832 14.3143 29.864 13.7063 29.928C13.0983 29.976 12.6263 30 12.2903 30C12.0663 30 11.9063 29.96 11.8103 29.88C11.7143 29.8 11.7063 29.72 11.7863 29.64C11.8823 29.544 12.0503 29.488 12.2903 29.472C12.9783 29.408 13.4663 29.232 13.7543 28.944C14.0423 28.64 14.2023 28.168 14.2343 27.528C14.2823 26.696 14.3063 25.48 14.3063 23.88C14.3063 22.072 14.2503 20.736 14.1383 19.872C14.0423 19.152 13.5863 18.768 12.7703 18.72C12.4663 18.688 12.3063 18.6 12.2903 18.456C12.2743 18.312 12.4343 18.208 12.7703 18.144ZM25.7469 30C24.7709 30 23.9469 29.728 23.2749 29.184C22.6189 28.624 22.2909 27.648 22.2909 26.256L22.2669 20.304C22.2669 19.344 21.8589 18.824 21.0429 18.744C20.8189 18.728 20.6509 18.68 20.5389 18.6C20.4429 18.504 20.4349 18.408 20.5149 18.312C20.5949 18.216 20.7709 18.152 21.0429 18.12C22.0189 17.976 22.7709 17.744 23.2989 17.424C23.5069 17.28 23.6749 17.248 23.8029 17.328C23.9469 17.392 24.0029 17.576 23.9709 17.88C23.8909 18.6 23.8349 19.272 23.8029 19.896C23.7709 20.504 23.7549 20.968 23.7549 21.288C23.7549 21.608 23.7549 22 23.7549 22.464C23.7709 22.912 23.7789 23.224 23.7789 23.4C23.7789 24.376 23.7949 25.28 23.8269 26.112C23.9069 27.84 24.7309 28.704 26.2989 28.704C27.4029 28.704 28.2189 27.984 28.7469 26.544C29.2909 25.104 29.5549 22.88 29.5389 19.872C29.5389 19.2 29.0829 18.816 28.1709 18.72C27.8669 18.688 27.7069 18.6 27.6909 18.456C27.6749 18.312 27.8349 18.208 28.1709 18.144C29.3389 17.952 30.1549 17.696 30.6189 17.376C30.7629 17.28 30.8989 17.256 31.0269 17.304C31.1549 17.352 31.2109 17.456 31.1949 17.616C31.0989 18.816 31.0509 20.744 31.0509 23.4V23.448C31.0509 25.224 31.1069 26.544 31.2189 27.408C31.3149 28.128 31.7709 28.512 32.5869 28.56C32.8909 28.592 33.0509 28.68 33.0669 28.824C33.0829 28.968 32.9229 29.072 32.5869 29.136C31.4189 29.328 30.6029 29.584 30.1389 29.904C29.9949 30 29.8589 30.024 29.7309 29.976C29.6029 29.928 29.5469 29.824 29.5629 29.664C29.6429 28.752 29.6829 27.744 29.6829 26.64C29.6829 26.432 29.6269 26.328 29.5149 26.328C29.4029 26.328 29.3149 26.432 29.2509 26.64C28.9309 27.792 28.4509 28.64 27.8109 29.184C27.1869 29.728 26.4989 30 25.7469 30ZM38.0481 30.384C36.9921 30.384 35.9841 30.184 35.0241 29.784C34.8641 29.72 34.7041 29.48 34.5441 29.064C34.3201 28.44 34.1201 27.688 33.9441 26.808C33.8801 26.504 33.9281 26.344 34.0881 26.328C34.2641 26.312 34.4081 26.456 34.5201 26.76C34.8401 27.512 35.3521 28.216 36.0561 28.872C36.7761 29.512 37.5361 29.832 38.3361 29.832C38.9441 29.832 39.4561 29.616 39.8721 29.184C40.2881 28.752 40.4961 28.12 40.4961 27.288C40.4961 26.76 40.2801 26.28 39.8481 25.848C39.4161 25.416 38.8881 25.04 38.2641 24.72C37.6401 24.4 37.0161 24.072 36.3921 23.736C35.7841 23.384 35.2641 22.952 34.8321 22.44C34.4001 21.912 34.1841 21.32 34.1841 20.664C34.1841 19.672 34.5441 18.864 35.2641 18.24C35.9841 17.6 36.8481 17.28 37.8561 17.28C39.4721 17.28 40.3841 17.648 40.5921 18.384C40.8161 19.168 41.0321 19.952 41.2401 20.736C41.2881 20.912 41.2881 21.048 41.2401 21.144C41.1921 21.224 41.1201 21.24 41.0241 21.192C40.9441 21.128 40.8721 21.016 40.8081 20.856C40.5041 20.008 40.0401 19.304 39.4161 18.744C38.8081 18.168 38.1441 17.88 37.4241 17.88C36.9121 17.88 36.4561 18.064 36.0561 18.432C35.6561 18.784 35.4561 19.264 35.4561 19.872C35.4561 20.384 35.6721 20.848 36.1041 21.264C36.5521 21.664 37.0881 22.024 37.7121 22.344C38.3361 22.648 38.9521 22.984 39.5601 23.352C40.1841 23.704 40.7121 24.192 41.1441 24.816C41.5921 25.44 41.8161 26.16 41.8161 26.976C41.8161 27.856 41.4481 28.648 40.7121 29.352C39.9761 30.04 39.0881 30.384 38.0481 30.384ZM47.0179 30.36C46.2179 30.36 45.6099 30.136 45.1939 29.688C44.7779 29.24 44.5699 28.664 44.5699 27.96V19.368C44.5699 19.064 44.4499 18.856 44.2099 18.744C43.9859 18.632 43.5379 18.6 42.8659 18.648C42.5619 18.664 42.3939 18.576 42.3619 18.384C42.3459 18.176 42.4819 18.04 42.7699 17.976C43.8739 17.752 44.6179 17.432 45.0019 17.016C45.3859 16.584 45.6739 15.76 45.8659 14.544C45.9299 14.192 46.0419 14.008 46.2019 13.992C46.3619 13.976 46.4419 14.136 46.4419 14.472V16.656C46.4419 16.96 46.5059 17.2 46.6339 17.376C46.7619 17.552 46.9379 17.64 47.1619 17.64H49.9219C50.1779 17.64 50.1859 17.792 49.9459 18.096C49.6419 18.48 49.3299 18.672 49.0099 18.672H47.0899C46.5779 18.672 46.3219 18.912 46.3219 19.392V27.144C46.3219 27.912 46.4739 28.496 46.7779 28.896C47.0979 29.28 47.5299 29.472 48.0739 29.472C48.7299 29.472 49.4179 29.248 50.1379 28.8C50.2819 28.72 50.3939 28.696 50.4739 28.728C50.5699 28.744 50.6099 28.808 50.5939 28.92C50.5939 29.016 50.5299 29.104 50.4019 29.184C49.1699 29.968 48.0419 30.36 47.0179 30.36ZM58.2561 12.336C58.5441 12.336 58.7601 12.432 58.9041 12.624C59.0641 12.816 59.1201 13.064 59.0721 13.368C58.9761 14.008 58.5121 14.336 57.6801 14.352C56.6881 14.384 55.9281 14.68 55.4001 15.24C54.8721 15.8 54.5841 16.344 54.5361 16.872C54.4881 17.224 54.5761 17.52 54.8001 17.76C55.0241 18 55.2561 18.12 55.4961 18.12H57.8721C58.1121 18.12 58.1921 18.24 58.1121 18.48C58.0001 18.816 57.7201 19.016 57.2721 19.08C57.1601 19.112 57.0401 19.12 56.9121 19.104C56.0321 19.04 55.4401 19.128 55.1361 19.368C54.8321 19.608 54.6881 19.976 54.7041 20.472L54.8001 27.552C54.8321 28.688 55.5841 29.328 57.0561 29.472C57.3921 29.504 57.5601 29.608 57.5601 29.784C57.5601 29.96 57.3921 30.032 57.0561 30C55.6321 29.888 54.5601 29.832 53.8401 29.832C53.5201 29.832 53.0561 29.864 52.4481 29.928C51.8401 29.976 51.3681 30 51.0321 30C50.8081 30 50.6481 29.96 50.5521 29.88C50.4561 29.8 50.4481 29.72 50.5281 29.64C50.6241 29.544 50.7921 29.488 51.0321 29.472C51.7201 29.408 52.2081 29.232 52.4961 28.944C52.7841 28.64 52.9441 28.168 52.9761 27.528C53.0241 26.696 53.0481 25.48 53.0481 23.88V20.592C53.0481 20.192 53.0401 19.928 53.0241 19.8C53.0241 19.656 52.9681 19.512 52.8561 19.368C52.7441 19.208 52.5601 19.128 52.3041 19.128C51.9041 19.112 51.6881 19 51.6561 18.792C51.6401 18.616 51.7601 18.496 52.0161 18.432C52.0321 18.432 52.0481 18.432 52.0641 18.432L52.2321 18.408C52.3441 18.392 52.4161 18.384 52.4481 18.384C52.4801 18.368 52.5441 18.352 52.6401 18.336C52.7521 18.304 52.8321 18.28 52.8801 18.264C52.9281 18.232 52.9921 18.2 53.0721 18.168C53.1521 18.136 53.2161 18.096 53.2641 18.048C53.3121 18 53.3601 17.952 53.4081 17.904C53.4721 17.84 53.5201 17.768 53.5521 17.688C53.5681 17.656 53.6401 17.496 53.7681 17.208C53.8961 16.904 54.0001 16.672 54.0801 16.512C54.1601 16.352 54.2801 16.104 54.4401 15.768C54.6161 15.432 54.7681 15.16 54.8961 14.952C55.0401 14.728 55.2081 14.472 55.4001 14.184C55.6081 13.88 55.8161 13.632 56.0241 13.44C56.2321 13.248 56.4481 13.064 56.6721 12.888C56.9121 12.696 57.1681 12.56 57.4401 12.48C57.7121 12.384 57.9841 12.336 58.2561 12.336ZM60.6167 30.36C60.0247 30.36 59.5447 30.176 59.1767 29.808C58.8247 29.44 58.6487 28.984 58.6487 28.44C58.6487 28.248 58.6647 28.064 58.6967 27.888C58.7447 27.696 58.8247 27.512 58.9367 27.336C59.0647 27.144 59.1687 26.984 59.2487 26.856C59.3447 26.712 59.4967 26.552 59.7047 26.376C59.9127 26.2 60.0727 26.064 60.1847 25.968C60.2967 25.856 60.4807 25.712 60.7367 25.536C60.9927 25.344 61.1687 25.216 61.2647 25.152C61.3767 25.088 61.5767 24.968 61.8647 24.792C62.1687 24.6 62.3527 24.48 62.4167 24.432C62.8967 24.128 63.2327 23.904 63.4247 23.76C63.6327 23.6 63.8087 23.416 63.9527 23.208C64.1127 23 64.1927 22.776 64.1927 22.536V20.016C64.1927 19.36 64.0247 18.864 63.6887 18.528C63.3687 18.176 62.9607 18 62.4647 18C61.8727 18 61.4007 18.216 61.0487 18.648C60.7127 19.064 60.4967 19.584 60.4007 20.208C60.2247 21.456 59.6567 22.08 58.6967 22.08C58.4887 22.08 58.3287 22 58.2167 21.84C58.1047 21.68 58.1207 21.392 58.2647 20.976C58.7287 19.968 59.4407 19.104 60.4007 18.384C61.3607 17.648 62.3847 17.28 63.4727 17.28C64.2407 17.28 64.8247 17.512 65.2247 17.976C65.6247 18.44 65.8247 19.056 65.8247 19.824V27.456C65.8247 27.984 66.0007 28.424 66.3527 28.776C66.7047 29.128 67.2087 29.216 67.8647 29.04C67.9447 29.024 68.0247 29.016 68.1047 29.016C68.1847 29.016 68.2167 29.056 68.2007 29.136C68.2007 29.2 68.1287 29.288 67.9847 29.4C67.5047 29.8 67.0007 30 66.4727 30C65.6887 30 65.0007 29.656 64.4087 28.968C64.2327 28.776 64.0647 28.68 63.9047 28.68C63.7927 28.68 63.6647 28.736 63.5207 28.848C63.4727 28.88 63.3767 28.96 63.2327 29.088C63.0887 29.216 62.9767 29.304 62.8967 29.352C62.8327 29.4 62.7287 29.48 62.5847 29.592C62.4407 29.704 62.3207 29.792 62.2247 29.856C62.1287 29.904 62.0087 29.968 61.8647 30.048C61.7207 30.128 61.5847 30.184 61.4567 30.216C61.3447 30.248 61.2087 30.28 61.0487 30.312C60.9047 30.344 60.7607 30.36 60.6167 30.36ZM62.0087 28.8C62.7287 28.8 63.2727 28.64 63.6407 28.32C64.0087 27.984 64.1927 27.568 64.1927 27.072V24.84C64.1927 24.472 64.0567 24.288 63.7847 24.288C63.5447 24.288 63.1527 24.464 62.6087 24.816C61.1687 25.728 60.4487 26.64 60.4487 27.552C60.4487 27.936 60.5927 28.24 60.8807 28.464C61.1687 28.688 61.5447 28.8 62.0087 28.8ZM71.9985 22.2C71.9985 22.376 72.0305 24.16 72.0945 27.552C72.1265 28.688 72.8785 29.328 74.3505 29.472C74.6865 29.504 74.8545 29.608 74.8545 29.784C74.8545 29.96 74.6865 30.032 74.3505 30C72.9265 29.888 71.9345 29.832 71.3745 29.832C71.0545 29.832 70.5905 29.864 69.9825 29.928C69.3745 29.976 68.9025 30 68.5665 30C68.3425 30 68.1825 29.96 68.0865 29.88C67.9905 29.8 67.9825 29.72 68.0625 29.64C68.1585 29.544 68.3265 29.488 68.5665 29.472C69.2545 29.408 69.7425 29.232 70.0305 28.944C70.3185 28.64 70.4785 28.168 70.5105 27.528C70.5585 26.696 70.5825 24.84 70.5825 21.96C70.5825 18.6 70.5265 16.512 70.4145 15.696C70.3185 15.008 69.8625 14.624 69.0465 14.544C68.7425 14.512 68.5825 14.424 68.5665 14.28C68.5505 14.136 68.7105 14.032 69.0465 13.968C70.2145 13.776 71.0305 13.52 71.4945 13.2C71.6385 13.104 71.7745 13.08 71.9025 13.128C72.0305 13.176 72.0865 13.28 72.0705 13.44C72.0225 14.144 71.9985 17.064 71.9985 22.2ZM78.8544 22.2C78.8544 22.376 78.8864 24.16 78.9504 27.552C78.9824 28.688 79.7344 29.328 81.2064 29.472C81.5424 29.504 81.7104 29.608 81.7104 29.784C81.7104 29.96 81.5424 30.032 81.2064 30C79.7824 29.888 78.7904 29.832 78.2304 29.832C77.9104 29.832 77.4464 29.864 76.8384 29.928C76.2304 29.976 75.7584 30 75.4224 30C75.1984 30 75.0384 29.96 74.9424 29.88C74.8464 29.8 74.8384 29.72 74.9184 29.64C75.0144 29.544 75.1824 29.488 75.4224 29.472C76.1104 29.408 76.5984 29.232 76.8864 28.944C77.1744 28.64 77.3344 28.168 77.3664 27.528C77.4144 26.696 77.4384 24.84 77.4384 21.96C77.4384 18.6 77.3824 16.512 77.2704 15.696C77.1744 15.008 76.7184 14.624 75.9024 14.544C75.5984 14.512 75.4384 14.424 75.4224 14.28C75.4064 14.136 75.5664 14.032 75.9024 13.968C77.0704 13.776 77.8864 13.52 78.3504 13.2C78.4944 13.104 78.6304 13.08 78.7584 13.128C78.8864 13.176 78.9424 13.28 78.9264 13.44C78.8784 14.144 78.8544 17.064 78.8544 22.2Z" fill="#3F3F46"/>
</g>
</svg>
