<svg width="264" height="249" viewBox="0 0 264 249" fill="none" xmlns="http://www.w3.org/2000/svg">
<path fill-rule="evenodd" clip-rule="evenodd" d="M170.243 0.394729C168.28 0.870905 164.912 2.62513 163.402 3.95711C162.248 4.97471 160.619 7.74364 160.619 8.68704C160.619 9.43051 160.217 9.4997 158.594 9.03431C156.799 8.51973 156.418 8.21823 155.082 6.25223C153.969 4.6144 152.175 3.58441 151.691 3.3266C151.609 3.28261 151.524 3.2483 151.433 3.22558C151.034 3.12557 149.783 2.88326 148.16 3.26279C147.855 3.3342 147.571 3.39914 147.305 3.45973C144.907 4.00736 144.064 4.20004 143.305 5.60609C143.11 5.96715 143.077 6.39032 143.147 6.79451C143.301 7.67865 143.214 7.69009 142.908 7.73006C142.825 7.74094 142.725 7.75395 142.61 7.78728C142.431 7.83899 142.278 7.95428 142.153 8.09168C141.786 8.4925 141.311 9.13682 141.005 9.65834C140.447 10.6078 140.361 11.0237 140.464 12.267C140.599 13.8974 140.53 13.9939 137.689 16.168C137.078 16.636 136.066 17.6836 135.44 18.496L134.903 19.1933C134.525 19.6849 133.939 19.973 133.319 19.9732L131.513 19.9737C127.765 19.975 118.752 20.8164 115.774 21.4428C115.438 21.5135 114.195 22.4843 113.012 23.6003C111.828 24.716 110.094 26.0362 109.159 26.5334C108.223 27.0309 106.666 27.9503 105.698 28.5767C102.773 30.4707 95.6065 33.3861 90.7419 34.6608C87.7922 35.4339 84.8947 36.6568 84.2977 37.3805C83.8687 37.9006 83.65 39.5146 83.9472 39.9671C84.1627 40.2954 85.0364 40.3599 89.1376 40.3512C93.2162 40.3423 94.5682 40.237 96.9567 39.7424C101.976 38.7025 103.73 38.3804 103.83 38.4799C103.985 38.6359 101.374 40.7674 98.441 42.8789C96.9472 43.9541 94.8799 45.4526 93.8468 46.2087C92.8138 46.9648 91.5809 47.7874 91.1073 48.0371C89.6947 48.7813 89.6249 50.2575 90.9774 50.7794C92.137 51.2267 96.7362 50.4532 99.8366 49.2894C104.601 47.5007 110.141 43.7841 115.334 38.8932C115.58 38.6613 115.815 38.4391 116.04 38.2263C118.226 36.1604 119.483 34.9719 120.971 34.2746C122.986 33.3301 125.424 33.2866 131.162 33.1844C131.598 33.1766 132.054 33.1685 132.529 33.1596C139.345 33.0323 141.471 32.9126 141.98 32.6266C144.083 31.4451 148.138 28.256 151 25.5329C154.291 22.402 154.295 22.3993 159.295 19.868C164.226 17.3711 164.328 17.3337 166.462 17.228C172.676 16.9199 177.858 12.6917 178.394 7.4916C178.642 5.08836 178.302 3.75165 177.116 2.46281C175.902 1.14215 173.739 -0.0309325 172.578 0.000637253C172.137 0.012739 171.086 0.190052 170.243 0.394729ZM225.138 37.965C223.685 38.4973 222.922 39.0689 222.012 40.3054C219.539 43.6671 218.855 47.2089 219.925 51.1151C220.536 53.3482 221.256 54.9377 221.9 55.4728C222.127 55.6617 222.313 55.9177 222.313 56.0413C222.313 56.3526 216.793 58.9355 216.506 58.7582C216.379 58.6792 216.275 58.4446 216.275 58.2365C216.275 57.5675 214.512 55.8769 213.146 55.2355C211.91 54.6559 211.858 54.5933 212.381 54.3274C213.608 53.7039 214.038 52.7007 214.134 50.2372C214.293 46.1769 212.99 44.3969 209.62 44.0685C206.4 43.7547 206.214 44.777 209.019 47.3668C211.377 49.5448 211.75 50.2893 211.174 51.6721C210.947 52.2151 210.762 53.0125 210.762 53.4445C210.762 54.0861 210.678 54.1966 210.302 54.0485C210.05 53.9488 208.376 53.6394 206.582 53.3613C204.788 53.083 203.269 52.8036 203.206 52.7405C203.143 52.677 203.344 52.2701 203.652 51.8363C204.8 50.2209 204.949 49.4919 204.735 46.5428C204.565 44.2093 204.406 43.5258 203.715 42.1533C202.417 39.5769 200.768 38.673 197.337 38.658C195.046 38.6483 193.388 39.6388 191.661 42.0491C190.018 44.3445 189.454 46.089 189.442 48.9245C189.431 51.4045 190.141 53.1493 191.835 54.8064C192.361 55.3216 192.249 56.1974 191.609 56.5628L190.904 56.9653C189.815 57.5875 188.432 58.4988 187.832 58.9905C186.411 60.1551 181.839 63.3813 181.61 63.3813C181.512 63.3813 181.365 62.7249 181.282 61.9225C181.2 61.1204 180.868 59.9181 180.546 59.2509C179.737 57.5756 176.991 54.7346 175.126 53.6431L174.645 53.3617C174.14 53.0661 174.105 52.3492 174.579 52.0054C175.131 51.6045 175.593 51.1291 175.605 50.9491C175.664 50.0678 175.816 49.4383 176.333 47.9337C177.34 45.0051 176.987 42.5842 175.267 40.6259C173.718 38.8622 172.676 38.3249 170.773 38.3073C169.374 38.2942 168.809 38.456 166.657 39.4851C162.989 41.2396 161.125 43.3806 160.726 46.2963C160.4 48.6801 161.797 51.3396 164.024 52.5737C164.448 52.8089 164.377 53.4399 163.911 53.5749L163.88 53.5839C161.76 54.1979 159.547 56.1723 157.175 59.5666C155.192 62.4047 153.464 63.9764 151.68 64.5662C150.893 64.8261 149.132 65.4946 147.767 66.0516C144.769 67.2741 143.818 67.3599 143.818 66.4075C143.818 65.3034 142.128 63.7301 139.689 62.5636C137.213 61.3795 136.126 61.2956 135.987 62.2777C135.871 63.0977 136.246 63.4913 138.698 65.1297C139.854 65.9013 141.091 66.7616 141.448 67.0418L141.512 67.0916C141.751 67.2786 141.67 67.6585 141.376 67.7324C140.066 68.0618 139.709 69.7221 140.74 70.692C141.068 71.0012 142.1 71.4502 143.032 71.6896C145.097 72.2195 146.123 72.0335 149.506 70.5158C150.781 69.9436 153.715 68.8279 156.025 68.0362C158.335 67.2449 160.432 66.5122 160.685 66.408C161.284 66.1615 161.277 66.5004 160.619 69.9017C159.886 73.682 159.906 77.6295 160.666 79.6331C160.993 80.4947 161.283 81.969 161.344 83.0779C161.437 84.7687 161.352 85.2562 160.676 86.8926C160.249 87.9244 159.159 91.0179 158.254 93.7671C157.348 96.5163 156.039 99.8903 155.344 101.265C153.443 105.026 152.713 108.789 153.211 112.265L153.303 112.904C153.394 113.545 153.17 114.192 152.7 114.638L152.448 114.877C151.898 115.4 151.034 116.605 150.529 117.557C150.024 118.508 149.366 119.641 149.066 120.075L148.98 120.2C148.881 120.345 148.654 120.247 148.691 120.075C148.784 119.641 149.017 118.635 149.209 117.839C149.4 117.043 149.64 115.8 149.742 115.077C149.844 114.353 150.028 113.491 150.151 113.161C150.274 112.831 150.607 110.818 150.891 108.689C151.216 106.246 151.785 103.554 152.432 101.396C152.995 99.5154 153.588 96.9917 153.749 95.7881C153.91 94.5845 154.458 92.3902 154.968 90.9119C155.477 89.4337 155.894 87.9678 155.894 87.6545C155.894 87.3411 155.478 85.9326 154.969 84.5243C154.368 82.8593 153.859 80.716 153.514 78.3948C152.902 74.2678 152.696 73.6414 151.955 73.6414C151.037 73.6414 150.832 74.7461 151.177 77.8497C151.588 81.5617 151.833 82.8409 152.636 85.4906L153.132 87.1242C153.252 87.5229 153.246 87.9495 153.112 88.3444L152.255 90.8838C151.671 92.6143 151.117 94.6813 151.024 95.4772C150.931 96.273 150.443 98.6407 149.939 100.739C149.435 102.837 148.859 106.033 148.658 107.842C148.219 111.786 147.856 114.235 147.216 117.576C146.697 120.286 146.568 127.045 147.02 127.918C147.185 128.237 147.498 128.367 147.97 128.312C148.604 128.239 148.716 128.057 149.094 126.497C149.367 125.365 150.058 123.859 151.084 122.156C151.947 120.722 152.98 118.977 153.378 118.279C153.777 117.58 154.149 117.056 154.207 117.113C154.264 117.171 154.551 118.393 154.844 119.83C155.137 121.267 155.546 122.976 155.752 123.627C156.638 126.427 156.727 134.524 155.903 137.344C155.365 139.181 156.71 140.76 158.057 139.875C158.812 139.38 160.416 135.167 161.164 131.712C161.453 130.376 161.973 128.218 162.318 126.915C163.301 123.215 163.565 120.967 163.616 115.866C163.661 111.279 163.687 111.071 164.438 109.226C164.865 108.179 165.286 107.321 165.374 107.319C165.462 107.317 166.153 109.181 166.909 111.459C167.665 113.738 168.809 116.747 169.452 118.145C170.098 119.552 170.962 122.085 171.386 123.818C172.477 128.271 174.987 134.452 176.396 136.153C176.837 136.686 178.055 136.598 178.601 135.994C179.015 135.535 179.052 135.166 178.898 133.034C178.582 128.651 178.002 125.159 176.679 119.681C174.804 111.912 174.744 109.739 176.289 105.493L176.589 104.669C176.716 104.321 177.216 104.344 177.31 104.702C177.48 105.344 177.995 107.289 178.454 109.026C179.127 111.57 179.334 112.999 179.517 116.392C179.642 118.707 179.939 121.714 180.178 123.074C180.711 126.107 181.55 129.448 181.856 129.754C181.98 129.879 182.421 129.943 182.834 129.896C183.747 129.791 183.92 129.183 183.37 128.017C182.678 126.551 182.086 121.826 181.897 116.261C181.73 111.323 181.641 110.589 180.846 107.579C179.633 102.978 178.957 101.783 177.815 102.222L177.789 102.232C177.656 102.283 177.559 102.321 177.509 102.287C177.375 102.199 177.572 101.609 178.295 99.4428L178.348 99.2847C179.714 95.1944 181.355 87.9946 181.345 86.1378C181.34 85.2696 181.218 84.0266 181.074 83.3754C180.93 82.7243 180.709 80.179 180.584 77.7192C180.401 74.1189 180.425 73.1382 180.71 72.6891C180.905 72.3826 181.165 71.7375 181.29 71.2561C181.489 70.4847 181.671 70.3406 182.816 70.043C183.531 69.8573 184.666 69.7031 185.339 69.7002C186.012 69.6976 187.489 69.5177 188.621 69.3006C189.753 69.0836 190.752 68.906 190.843 68.906C190.933 68.906 191.08 69.2711 191.169 69.7176C191.258 70.1638 191.974 71.9101 192.761 73.598C193.547 75.286 194.564 77.9691 195.02 79.5608C195.476 81.1524 196.191 83.5254 196.611 84.834C197.03 86.1428 197.373 87.5492 197.373 87.9596C197.373 88.4071 196.706 89.8243 195.708 91.4996L195.546 91.7712C192.61 96.6976 191.585 98.418 190.837 100.251C190.435 101.235 190.113 102.251 189.618 103.813L189.568 103.97L188.208 108.262C188.158 108.42 188.127 108.583 188.118 108.748L187.781 114.419C187.587 117.675 187.291 121.641 187.122 123.232C186.728 126.961 186.884 134.189 187.373 134.778C187.566 135.012 187.829 135.202 187.957 135.202C188.956 135.202 191.475 128.745 193.046 122.155C193.394 120.695 193.985 118.65 194.359 117.611C195.338 114.89 198.705 107.918 200.052 105.82C200.685 104.834 201.637 103.246 202.167 102.292C202.696 101.337 203.318 100.399 203.549 100.207C203.922 99.8967 203.95 99.9437 203.799 100.627C203.706 101.05 203.58 101.556 203.519 101.752C203.226 102.687 202.576 110.153 202.553 112.84C202.529 115.726 202.571 115.976 203.47 118.234C203.988 119.536 204.91 121.667 205.519 122.969C206.128 124.271 206.914 126.106 207.266 127.047C207.618 127.987 208.266 129.586 208.704 130.598C209.143 131.611 209.665 132.825 209.865 133.295C210.139 133.941 210.392 134.15 210.897 134.15C211.318 134.15 211.636 133.962 211.755 133.642C211.858 133.362 211.876 127.887 211.794 121.474C211.689 113.22 211.731 109.546 211.939 108.894C212.1 108.388 212.988 106.849 213.91 105.475C215.425 103.22 217.51 99.5191 220.24 94.2436C220.779 93.2036 221.359 91.6785 221.529 90.8546C221.814 89.4802 221.772 89.0717 221.021 85.9057C220.571 84.0076 219.733 80.6789 219.159 78.5084C218.347 75.4364 218.115 74.0813 218.114 72.3918L218.114 72.2226C218.113 71.1176 219.009 70.2214 220.114 70.2214H221.083H222.633C223.483 70.2214 224.241 70.7598 224.521 71.5633L224.672 71.9972C225.013 72.9737 225.808 75.016 226.439 76.5353C227.071 78.0546 228.052 81.0735 228.62 83.2439C229.188 85.4143 229.854 87.9175 230.1 88.8068C230.146 88.9716 230.19 89.1173 230.23 89.2491C230.336 89.6001 230.412 89.8519 230.41 90.1032C230.406 90.7416 229.901 91.3767 228.113 93.625C227.849 93.9568 227.557 94.3238 227.235 94.7311C222.869 100.25 222.321 101.556 222.3 106.518C222.288 109.054 221.875 118.558 221.349 128.381C221.249 130.256 221.301 130.697 221.661 130.997C222.518 131.709 222.926 130.977 224.023 126.758C224.603 124.529 225.513 121.522 226.045 120.075C226.576 118.628 227.32 116.201 227.698 114.682C228.075 113.163 228.836 110.913 229.388 109.684C229.939 108.454 230.707 106.737 231.093 105.87C231.479 105.002 232.044 104.026 232.348 103.701C232.587 103.446 233.014 103.556 233.1 103.896L233.486 105.428C234.173 108.15 234.865 109.842 236.448 112.674C237.758 115.016 239.251 118.372 240.62 122.048C241.132 123.423 242.194 125.761 242.981 127.244C244.288 129.707 244.477 129.941 245.167 129.941C246.379 129.941 246.577 129.244 246.587 124.942C246.595 121.774 246.518 120.983 246.131 120.273C245.698 119.48 245.315 117.432 244.617 112.183C244.463 111.025 244.107 109.114 243.826 107.936C242.95 104.264 243.175 103.291 245.589 100.321C246.52 99.1761 247.744 97.6697 248.312 96.973C249.671 95.3038 250.35 93.0234 250.713 88.908C250.998 85.6877 250.985 85.5117 250.169 81.2708C249.71 78.8833 249.11 75.8645 248.837 74.5622C248.565 73.26 248.268 71.721 248.178 71.1422C247.848 69.0252 245.839 62.9606 245.112 61.8886C244.703 61.2845 244.252 60.4853 244.11 60.1128C243.969 59.7402 243.466 59.1988 242.994 58.9097C241.139 57.7758 236.528 55.9479 233.642 55.2024C231.973 54.7712 230.565 54.375 230.512 54.3221C230.459 54.2692 230.703 53.6518 231.054 52.9499C232.378 50.3004 232.626 49.076 232.477 45.9198C232.303 42.2214 231.999 41.2414 230.591 39.8303C228.687 37.9222 226.912 37.315 225.138 37.965ZM235.874 43.7589C234.037 44.4371 233.086 45.7875 233.943 46.5007C234.193 46.7088 234.684 46.638 235.77 46.2368L236.446 45.9875C236.962 45.7967 237.535 45.8275 238.028 46.0726L238.513 46.3137C241.045 47.572 241.99 51.3098 240.556 54.3968C239.765 56.0997 239.736 56.6967 240.427 57.0673C241.247 57.507 241.967 56.9466 242.731 55.2734C243.277 54.0785 243.411 53.3753 243.419 51.6787C243.43 49.1576 243.072 47.8137 241.933 46.1116C240.513 43.988 237.95 42.9928 235.874 43.7589ZM152.971 45.742C150.523 47.0766 148.492 50.4888 148.328 53.5429C148.219 55.5591 148.557 56.5856 149.749 57.8658C150.123 58.2672 150.21 58.8581 149.967 59.3501L149.837 59.6142C149.444 60.4103 149.324 61.0949 149.382 62.2085C149.525 64.9137 150.85 64.768 151.877 61.9343C152.308 60.7447 152.498 60.5498 153.867 59.8955C156.598 58.5893 156.544 57.1142 153.745 56.5972C151.715 56.2223 151.168 55.6638 151.168 53.9643C151.168 52.4658 151.919 50.8731 153.394 49.2407L153.926 48.6518C154.305 48.2323 154.843 47.9928 155.409 47.9925L156.323 47.9921L157.365 47.9915C157.785 47.9913 158.125 47.6505 158.125 47.2302C158.125 45.5568 154.978 44.6478 152.971 45.742ZM182.53 46.7756C181.348 47.3131 180.296 48.4422 179.478 50.0494C178.347 52.2709 179.385 57.1494 181.287 58.5461C182.87 59.7095 184.921 60.0246 185.65 59.217C186.547 58.2233 186.009 57.4775 183.913 56.8111C182.044 56.2173 181.054 52.9004 182.119 50.8071C182.809 49.4525 183.58 48.9258 185.215 48.6932C186.404 48.5241 186.483 48.4636 186.56 47.6601C186.629 46.9445 186.531 46.7646 185.953 46.5439C184.925 46.1524 183.719 46.2339 182.53 46.7756ZM128.375 47.1066C127.895 47.2452 127.004 47.8577 126.395 48.4675C124.09 50.7779 123.274 55.231 124.656 57.9695C125.74 60.1191 127.634 61.9951 129.187 62.4573C131.165 63.0459 132.248 62.954 134.066 62.0435C136.527 60.811 137.785 58.8608 137.86 56.1613C137.885 55.2513 137.772 54.2245 137.608 53.8796C137.444 53.5347 137.1 52.6607 136.843 51.9373C136.164 50.0273 133.85 47.7756 132.001 47.2252C130.437 46.7601 129.663 46.7346 128.375 47.1066ZM129.247 49.9521C128.959 50.0718 128.466 50.449 128.153 50.7905C127.577 51.4185 126.491 54.2782 126.491 55.1658C126.491 56.0387 127.814 58.3309 128.869 59.2864C129.729 60.0649 130.104 60.2243 131.071 60.2243C132.475 60.2243 133.963 59.4185 134.508 58.3641C135.058 57.2983 134.999 54.3037 134.402 52.9872C133.889 51.8552 132.35 50.3462 131.301 49.9465C130.536 49.6548 129.961 49.6564 129.247 49.9521ZM52.7153 59.8718C51.6071 59.8672 50.7206 60.7643 50.7206 61.8725V76.5353C50.7206 77.6399 49.8241 78.5353 48.7195 78.5353H35.0011C33.8966 78.5353 33 79.4308 33 80.5353V95.4587C33 96.5633 32.1046 97.4587 31 97.4587H18.2306C17.126 97.4587 16.2306 98.3542 16.2306 99.4587V113.701C16.2306 114.806 15.3352 115.701 14.2306 115.701H2C0.895429 115.701 0 116.597 0 117.701V134.515C0 135.623 0.885455 136.52 1.99326 136.515C13.598 136.465 72.5827 136.199 91.3308 135.909C92.4289 135.892 93.2953 134.99 93.2837 133.892L92.5213 61.8785C92.5096 60.768 91.6025 59.879 90.492 59.8901C81.4528 59.9805 59.4535 59.8997 52.7153 59.8718ZM123.446 62.2837C121.812 63.4707 120.798 64.8054 119.389 67.618C117.956 70.4792 117.34 72.4942 117.248 74.6106C117.179 76.221 117.782 77.1244 118.866 77.0344C119.233 77.0039 120.268 77.1304 121.165 77.3156L121.728 77.4317C122.334 77.557 122.748 78.1217 122.683 78.7381C122.621 79.3353 122.509 80.6562 122.434 81.6736C121.566 93.4433 121.493 93.8255 119.231 98.5026L118.161 100.715C118.028 100.99 117.96 101.292 117.962 101.598L118.006 108.763C118.058 116.984 118.343 121.463 119.17 127.047C119.899 131.963 119.957 132.16 120.709 132.268C121.077 132.32 121.473 132.18 121.653 131.933C121.931 131.551 121.978 131.564 122.106 132.055C122.23 132.529 122.418 132.591 123.517 132.521C124.596 132.452 124.797 132.353 124.867 131.857C124.964 131.173 124.062 130.835 122.806 131.087C122.12 131.225 122.028 131.17 122.028 130.624C122.028 130.284 122.2 129.862 122.41 129.688C122.997 129.199 124.081 127.229 124.841 125.268C125.51 123.541 125.532 123.294 125.692 115.603L125.849 108.015C125.853 107.813 125.888 107.613 125.952 107.422L126.868 104.685C127.614 102.456 128.233 101.161 129.22 99.7656C129.957 98.7238 130.636 97.8657 130.729 97.8583C130.821 97.8509 130.975 98.1703 131.07 98.5684C131.164 98.9664 131.761 100.357 132.394 101.66C134.422 105.827 135.625 108.724 135.944 110.21C136.276 111.753 136.237 112.129 134.808 121.128C133.33 130.436 133.211 131.469 133.569 131.901C134.472 132.993 135.356 132.116 137.353 128.145C139.79 123.3 141.493 118.438 142.519 113.399C143.079 110.649 143.105 110.189 142.83 107.743C142.665 106.278 142.224 103.6 141.849 101.791C141.474 99.9824 141.054 97.7923 140.915 96.9241C140.776 96.0559 140.457 94.5169 140.206 93.5041C139.897 92.2573 139.752 90.6428 139.756 88.5055C139.762 85.5761 139.824 85.1968 140.603 83.2431C141.065 82.0853 141.534 80.3148 141.646 79.309L141.689 78.9209C141.784 78.0615 142.421 77.3607 143.267 77.1838L144.642 76.8965C148.677 76.0531 150.939 74.7624 151.304 73.0937C151.503 72.1882 151.052 71.2737 150.408 71.2737C150.144 71.2737 149.469 71.6431 148.908 72.0945C147.575 73.1666 146.259 73.7225 143.401 74.4207C143.228 74.4631 143.062 74.5034 142.904 74.542C140.646 75.0919 139.891 75.2756 139.517 75.7557C139.329 75.9966 139.237 76.3122 139.098 76.7862C139.079 76.8524 139.058 76.9218 139.037 76.9944C138.79 77.8271 138.517 78.9607 138.431 79.5137C138.345 80.0664 137.902 81.4278 137.448 82.5391C136.659 84.4664 136.621 84.7285 136.61 88.2424C136.601 91.1287 136.728 92.5233 137.198 94.6879C137.295 95.135 137.389 95.5685 137.48 95.989C139.693 106.182 140.242 108.711 139.966 111.146C139.875 111.95 139.695 112.743 139.454 113.799C139.424 113.931 139.393 114.068 139.361 114.209C138.623 117.467 137.318 121.691 137.12 121.466C137.083 121.425 137.204 120.384 137.389 119.154C138.134 114.191 138.388 110.153 138.057 108.56C137.651 106.615 135.821 101.741 135.033 100.506C134.699 99.9829 134.043 98.5486 133.576 97.3187C133.109 96.0888 132.641 94.905 132.536 94.6879C132.223 94.0394 131.108 93.5383 130.411 93.7327C129.42 94.0087 125.835 99.7293 124.535 103.107L123.605 105.524C123.517 105.752 123.472 105.994 123.471 106.238L123.455 114.287C123.445 118.918 123.341 123.12 123.224 123.627C122.944 124.834 121.797 127.429 121.622 127.253C121.249 126.88 120.742 117.826 120.668 110.21L120.589 102.135C120.586 101.822 120.656 101.513 120.794 101.233L122.076 98.6241C122.896 96.9546 123.695 95.0604 123.85 94.4148C124.352 92.3328 125.054 84.9755 125.242 79.8238C125.28 78.7873 126.104 77.9421 127.14 77.8897L128.591 77.8163C133.232 77.5819 137.402 76.418 138.068 75.1721C138.431 74.4912 138.273 73.6264 137.722 73.28C137.382 73.0669 136.957 73.1155 136.015 73.4762C133.197 74.5543 129.829 75.2202 127.279 75.2034C124.365 75.1842 120.52 74.849 120.264 74.5922C119.897 74.2239 120.733 71.4402 122.005 68.7979C123.136 66.4483 123.562 65.8503 125.037 64.5444C125.981 63.7086 126.753 62.8328 126.753 62.5978C126.753 61.3485 124.966 61.1788 123.446 62.2837ZM125.966 68.8181C124.526 69.0454 124.18 69.1817 124.027 69.5805C123.786 70.2093 124.333 71.0106 125.004 71.0106C125.331 71.0106 125.74 71.1527 125.913 71.3263C126.087 71.5 126.228 71.5265 126.228 71.385C126.228 71.0956 129.433 71.3063 132.454 71.7946C133.979 72.0409 134.491 72.0325 135.079 71.751C135.92 71.349 136.193 70.2314 135.575 69.7176C135.359 69.5377 133.551 69.2246 131.558 69.022C127.924 68.6529 127.185 68.6258 125.966 68.8181ZM187.492 71.3395C185.426 72.7233 185.257 73.2944 185.456 78.2454C185.566 81.0148 185.525 82.8172 185.335 83.5146C184.96 84.8882 184.377 91.8493 184.411 94.5564C184.434 96.4492 184.577 97.0146 185.828 100.172C187.361 104.038 187.94 104.7 188.971 103.765C189.727 103.079 189.641 102.515 188.287 99.2952C186.709 95.5434 186.593 94.0197 187.435 88.1109C187.902 84.829 188.053 82.6028 188.053 78.9846L188.053 75.1185C188.053 74.535 188.308 73.9806 188.751 73.6007L189.169 73.2421C190.351 72.2287 190.547 71.5739 189.872 70.8978C189.285 70.3092 188.933 70.3745 187.492 71.3395ZM223.943 78.1796C223.164 79.1201 222.057 85.5803 222.053 89.2119C222.052 90.1792 221.92 91.3039 221.761 91.7112C221.601 92.1184 220.939 93.9894 220.289 95.8691C219.251 98.8699 219.081 99.6791 218.896 102.508C218.677 105.875 218.936 109.224 219.466 109.864C219.635 110.069 220.079 110.201 220.453 110.157C220.844 110.112 221.144 109.789 221.161 109.395L221.33 105.474C221.548 100.399 221.748 98.9451 222.524 96.7926C223.742 93.4136 224.131 91.4086 224.26 87.8478C224.333 85.8623 224.629 83.0903 224.932 81.5615C225.23 80.0572 225.405 78.6071 225.32 78.3388C225.144 77.7821 224.348 77.69 223.943 78.1796ZM225.118 111.626C225.019 111.883 224.946 112.292 224.955 112.533C224.966 112.824 225.057 112.758 225.225 112.337C225.364 111.988 225.438 111.579 225.388 111.429C225.338 111.28 225.216 111.368 225.118 111.626ZM256.894 123.864C256.059 124.139 255.233 124.482 255.056 124.628C254.879 124.773 254.44 124.933 254.079 124.983C253.58 125.052 253.422 125.23 253.422 125.724C253.422 126.252 253.645 126.459 254.604 126.828C254.851 126.923 254.785 127.29 254.52 127.292L253.554 127.3C251.188 127.319 250.495 127.536 250.741 128.179C250.933 128.68 254.167 128.979 257.982 128.849C260.241 128.772 260.743 128.677 261.039 128.271C261.722 127.334 260.921 126.681 258.734 126.39C256.874 126.143 257.454 125.801 260.052 125.61C263.435 125.363 263.578 125.316 263.481 124.473C263.408 123.84 263.278 123.752 262.348 123.701C261.771 123.669 260.648 123.581 259.854 123.504C258.83 123.405 257.97 123.509 256.894 123.864ZM229.139 125.812C228.499 126.031 228.22 126.286 228.22 126.652C228.22 127.133 228.368 127.171 229.926 127.098C231.349 127.031 231.851 127.131 232.945 127.7C234.683 128.604 236.342 128.804 237.628 128.265C238.426 127.931 238.611 127.727 238.543 127.25C238.469 126.726 238.259 126.63 236.84 126.473C235.95 126.375 234.863 126.108 234.425 125.881C233.473 125.388 230.494 125.349 229.139 125.812ZM213.562 125.907C213.081 126.389 213.461 127.07 214.487 127.567C215.855 128.229 216.01 128.228 217.605 127.541C219.049 126.918 219.268 126.525 218.178 126.512C217.781 126.508 217.227 126.33 216.947 126.118C216.433 125.729 213.898 125.571 213.562 125.907ZM164.335 128.521C163.813 128.887 163.749 129.092 163.902 129.906C164 130.432 164.233 131.158 164.42 131.519C164.608 131.881 164.89 132.502 165.047 132.9C165.305 133.551 165.462 133.624 166.611 133.624C167.515 133.624 168.016 133.483 168.323 133.143C168.931 132.47 168.887 132.396 167.768 132.217C167.012 132.096 166.703 131.885 166.464 131.329C166.292 130.927 166 130.376 165.814 130.104C165.545 129.711 165.544 129.586 165.804 129.49C166.18 129.353 166.256 128.362 165.891 128.362C165.759 128.362 165.492 128.301 165.299 128.227C165.105 128.153 164.672 128.285 164.335 128.521ZM100.763 129.07C99.7437 129.241 97.518 129.982 97.1536 130.271C96.9732 130.414 96.8254 130.708 96.8254 130.924C96.8254 131.228 97.0158 131.275 97.6786 131.133C98.148 131.031 99.0278 130.96 99.6337 130.973C100.387 130.989 100.81 130.863 100.97 130.577C101.385 129.834 103.389 130.006 105.012 130.923C106.369 131.69 106.476 131.71 107.469 131.363C108.041 131.164 109.279 130.999 110.221 130.997C112.187 130.993 113.181 130.497 113.051 129.586C112.961 128.949 112.908 128.947 109.558 129.448C106.822 129.858 106.099 129.84 104.832 129.332C103.836 128.933 102.207 128.828 100.763 129.07ZM194.914 129.434C194.152 130.035 194.001 130.924 194.62 131.162C194.838 131.246 195.172 131.186 195.361 131.029C195.611 130.821 195.792 130.829 196.022 131.06C196.196 131.234 197.073 131.458 197.972 131.557C198.87 131.655 200.341 131.822 201.241 131.927C203.008 132.133 203.674 131.87 203.674 130.966C203.674 130.646 203.424 130.422 202.952 130.319C202.555 130.231 201.887 130.052 201.469 129.919C201.05 129.786 199.972 129.678 199.072 129.678C197.939 129.678 197.337 129.557 197.111 129.283C196.652 128.729 195.728 128.792 194.914 129.434ZM226.842 129.281C226.372 129.485 225.988 129.839 225.988 130.068C225.988 130.608 226.768 130.906 227.037 130.469C227.206 130.195 227.642 130.197 229.365 130.477C231.521 130.828 232.814 130.624 232.814 129.933C232.814 129.013 228.53 128.545 226.842 129.281ZM139.799 129.609C139.02 129.794 139.411 130.561 140.407 130.8C140.911 130.921 141.665 131.128 142.083 131.261C142.501 131.393 143.98 131.644 145.369 131.818C147.47 132.081 148.093 132.071 149.072 131.761C150.054 131.45 150.25 131.278 150.25 130.73C150.25 130.097 150.186 130.072 148.543 130.063C146.959 130.054 142.44 129.767 140.93 129.579C140.569 129.534 140.06 129.547 139.799 129.609ZM127.191 129.853C126.534 130.511 127.91 131.519 129.465 131.519C130.394 131.519 131.127 130.96 130.83 130.478C130.736 130.327 130.202 130.204 129.641 130.204C129.081 130.204 128.549 130.085 128.46 129.941C128.277 129.643 127.457 129.587 127.191 129.853ZM139.028 132.29C138.343 132.386 137.65 132.596 137.489 132.758C136.882 133.365 137.57 133.624 139.792 133.624C141.761 133.624 142.125 133.699 142.766 134.239C143.412 134.785 143.864 134.875 146.707 135.028C150.366 135.226 151.3 134.993 151.3 133.884C151.3 133.52 151.009 133.223 150.645 133.216L147.724 133.156C144.552 133.092 144.096 133.025 143.68 132.564C143.18 132.011 141.662 131.922 139.028 132.29ZM112.642 132.494C111.893 132.639 111.407 133.465 111.861 133.824C112.297 134.169 114.415 134.422 114.415 134.129C114.415 134 115.119 133.969 115.98 134.059C117.201 134.187 117.693 134.127 118.212 133.786C118.578 133.545 118.878 133.252 118.878 133.133C118.878 132.517 114.728 132.092 112.642 132.494ZM101.879 133.354C100.82 133.835 100.569 134.131 100.918 134.481C101.004 134.567 101.62 134.472 102.289 134.27C103.403 133.934 103.548 133.944 104.037 134.391C104.792 135.082 105.497 135.239 106.521 134.944C107.398 134.692 108.639 133.738 108.639 133.315C108.639 132.971 107.741 133.061 106.663 133.512C105.723 133.906 105.634 133.899 104.935 133.381C104.024 132.706 103.316 132.7 101.879 133.354ZM192.677 160.286C190.436 158.762 187.855 158 184.936 158C180.505 158 177.012 159.429 174.457 162.286C171.903 165.095 170.626 169.357 170.626 175.071V178.857H165.152V181.857H170.626V209.214C170.626 211.548 170.287 213.071 169.609 213.786C168.931 214.5 167.445 214.857 165.152 214.857V216.571H185.796V214.857C182.512 214.857 180.374 214.5 179.384 213.786C178.445 213.071 177.976 211.548 177.976 209.214V181.857H185.561V178.857H177.976V171.929C177.976 168.214 178.367 165.452 179.149 163.643C179.931 161.833 181.443 160.929 183.685 160.929C186.135 160.929 187.412 162.524 187.516 165.714C187.829 168.238 189.289 169.5 191.895 169.5C193.042 169.5 194.007 169.167 194.789 168.5C195.623 167.786 196.04 166.81 196.04 165.571C196.04 163.571 194.919 161.81 192.677 160.286ZM46.919 173L45.8242 161.357L45.6678 159.429H1.17297L1.01658 161.357L0 173L1.79856 173.143C2.21562 168.619 2.89334 165.69 3.83171 164.357C4.82223 163.024 6.54259 162.357 8.9928 162.357H19.0804V209.214C19.0804 211.452 18.5591 212.952 17.5164 213.714C16.5259 214.476 14.2581 214.857 10.7132 214.857V216.571H36.2058V214.857C32.6608 214.857 30.367 214.476 29.3243 213.714C28.3338 212.952 27.8386 211.452 27.8386 209.214V162.357H37.848C40.2982 162.357 41.9925 163.024 42.9308 164.357C43.9213 165.69 44.6251 168.619 45.0422 173.143L46.919 173ZM69.9447 178.643C68.902 177.833 67.5205 177.429 65.8002 177.429C61.8381 177.429 58.3453 179.905 55.3216 184.857H55.087V178.429L53.9922 177.429L48.4402 180L42.5753 182.643L43.4355 184.143C44.5824 183.619 45.4165 183.286 45.9378 183.143C46.5113 183 46.9283 183.143 47.189 183.571C47.5018 183.952 47.6582 184.381 47.6582 184.857C47.7103 185.333 47.7364 186.286 47.7364 187.714V209.214C47.7364 211.548 47.3975 213.071 46.7198 213.786C46.0421 214.5 44.5302 214.857 42.1843 214.857V216.571H63.2978V214.857C59.805 214.857 57.5633 214.5 56.5728 213.786C55.5823 213.071 55.087 211.548 55.087 209.214V188.929C56.4946 186.69 57.6936 185.071 58.6841 184.071C59.6746 183.071 60.7173 182.571 61.812 182.571C62.4898 182.571 63.0893 182.976 63.6106 183.786C64.4447 185.119 65.722 185.786 67.4423 185.786C68.7456 185.786 69.7622 185.405 70.4921 184.643C71.2219 183.881 71.5868 182.929 71.5868 181.786C71.5868 180.5 71.0394 179.452 69.9447 178.643ZM98.8756 217V210.643H98.641C94.8875 215.548 90.8994 218 86.6766 218C81.0985 218 78.3094 214.571 78.3094 207.714V186.786C78.3094 184.357 78.0488 182.881 77.5275 182.357C77.0061 181.833 75.5986 181.857 73.3047 182.429L72.8356 180.786L79.0914 179.214L84.5653 177.929L85.6601 178.857V207.714C85.6601 211.571 87.0937 213.5 89.961 213.5C92.5676 213.5 95.5391 211.571 98.8756 207.714V186.786C98.8756 184.357 98.5889 182.881 98.0154 182.357C97.4941 181.833 96.0865 181.857 93.7927 182.429L93.3235 180.786L99.6576 179.214L105.131 177.929L106.226 178.857V207.786C106.226 210.357 106.409 211.786 106.774 212.071C107.191 212.5 108.364 212.262 110.293 211.357L111.153 212.857L99.9704 218L98.8756 217ZM114.169 202.929V217.286H115.968C115.968 215.857 116.385 215.143 117.219 215.143C117.584 215.143 118.21 215.381 119.096 215.857C119.982 216.333 121.155 216.81 122.615 217.286C124.075 217.762 125.717 218 127.541 218C130.617 218 133.172 217.167 135.205 215.5C137.29 213.833 138.333 211.405 138.333 208.214C138.333 205.405 137.577 203.048 136.065 201.143C134.553 199.19 131.816 196.667 127.854 193.571C125.925 192.048 124.518 190.905 123.631 190.143C122.797 189.381 122.015 188.476 121.285 187.429C120.556 186.333 120.191 185.262 120.191 184.214C120.191 183.214 120.556 182.333 121.285 181.571C122.015 180.81 123.136 180.429 124.648 180.429C127.046 180.429 129.079 181.333 130.747 183.143C132.468 184.905 133.615 187.167 134.188 189.929H135.987V178.143H134.188C134.188 179 134.136 179.571 134.032 179.857C133.928 180.143 133.667 180.286 133.25 180.286C132.937 180.286 132.416 180.048 131.686 179.571C130.956 179.095 129.939 178.619 128.636 178.143C127.385 177.667 125.951 177.429 124.335 177.429C121.312 177.429 118.835 178.262 116.906 179.929C115.03 181.548 114.091 183.69 114.091 186.357C114.091 187.69 114.274 188.905 114.639 190C115.056 191.048 115.812 192.167 116.906 193.357C118.001 194.548 118.887 195.452 119.565 196.071C120.295 196.643 121.598 197.69 123.475 199.214C125.769 201.071 127.359 202.405 128.245 203.214C129.184 204.024 130.07 205.071 130.904 206.357C131.79 207.643 132.233 208.952 132.233 210.286C132.233 213.476 130.591 215.071 127.307 215.071C124.335 215.071 121.833 213.952 119.8 211.714C117.819 209.429 116.541 206.5 115.968 202.929H114.169ZM161.576 200.857H163.374C163.322 206.857 162.671 211.214 161.42 213.929C160.168 216.643 157.77 218 154.225 218C147.657 218 144.372 213.595 144.372 204.786V181.857H138.273V178.857C141.922 178.762 144.555 177.952 146.171 176.429C147.839 174.905 148.856 172.31 149.221 168.643H151.645V178.857H160.716V181.857H151.645V202.5C151.645 206.5 151.931 209.381 152.505 211.143C153.13 212.905 154.434 213.786 156.415 213.786C158.239 213.786 159.543 212.81 160.325 210.857C161.107 208.905 161.524 205.571 161.576 200.857ZM221.162 211.714H222.961C222.335 213.81 221.527 215.381 220.537 216.429C219.546 217.476 218.008 218 215.923 218C211.492 218 209.276 215.643 209.276 210.929V210.643H209.12C205.836 215.548 201.926 218 197.39 218C194.679 218 192.516 217.19 190.9 215.571C189.336 213.952 188.554 211.762 188.554 209C188.554 207.381 188.84 205.905 189.414 204.571C189.987 203.19 190.717 202.024 191.603 201.071C192.542 200.119 193.715 199.238 195.122 198.429C196.53 197.571 197.885 196.857 199.189 196.286C200.544 195.667 202.082 195 203.802 194.286C204.063 194.19 204.272 194.119 204.428 194.071C204.584 193.976 204.767 193.905 204.975 193.857L205.601 193.571L209.276 192V188.643C209.276 185.595 208.885 183.381 208.103 182C207.373 180.619 205.783 179.929 203.333 179.929C201.769 179.929 200.466 180.238 199.423 180.857C198.433 181.476 197.937 182.31 197.937 183.357C197.937 183.929 198.146 184.643 198.563 185.5C198.98 186.357 199.189 187.119 199.189 187.786C199.189 188.643 198.798 189.333 198.016 189.857C197.286 190.381 196.295 190.643 195.044 190.643C192.177 190.643 190.743 189 190.743 185.714C190.743 183.19 191.968 181.19 194.419 179.714C196.869 178.19 200.023 177.429 203.881 177.429C207.895 177.429 211.023 178.381 213.264 180.286C215.506 182.143 216.627 184.976 216.627 188.786V211.714C216.627 212.905 216.731 213.762 216.94 214.286C217.2 214.81 217.669 215.071 218.347 215.071C218.973 215.071 219.468 214.833 219.833 214.357C220.198 213.881 220.641 213 221.162 211.714ZM200.987 213C202.447 213 203.802 212.595 205.054 211.786C206.305 210.976 207.712 209.667 209.276 207.857V194.643L205.836 196.143C199.163 199 195.826 202.69 195.826 207.214C195.826 209.071 196.295 210.5 197.234 211.5C198.172 212.5 199.423 213 200.987 213ZM236.563 213.786C235.937 213.071 235.624 211.548 235.624 209.214V159L234.529 158L228.977 160.5L223.112 163.214L223.973 164.714C225.12 164.19 225.954 163.857 226.475 163.714C227.048 163.524 227.465 163.643 227.726 164.071C228.039 164.452 228.195 164.881 228.195 165.357C228.247 165.833 228.274 166.786 228.274 168.214V209.214C228.274 211.548 227.935 213.071 227.257 213.786C226.579 214.5 225.067 214.857 222.721 214.857V216.571H241.098V214.857C238.752 214.857 237.24 214.5 236.563 213.786ZM254.526 209.214C254.526 211.548 254.839 213.071 255.465 213.786C256.142 214.5 257.654 214.857 260 214.857V216.571H241.623V214.857C243.969 214.857 245.481 214.5 246.159 213.786C246.837 213.071 247.175 211.548 247.175 209.214V168.214C247.175 166.786 247.149 165.833 247.097 165.357C247.097 164.881 246.941 164.452 246.628 164.071C246.367 163.643 245.95 163.524 245.377 163.714C244.856 163.857 244.021 164.19 242.875 164.714L242.014 163.214L247.879 160.5L253.431 158L254.526 159V209.214ZM196.016 234.122H198.071V244.781H196.016V234.122ZM197.054 232.477C196.696 232.477 196.389 232.357 196.133 232.117C195.88 231.871 195.754 231.58 195.754 231.242C195.754 230.9 195.88 230.608 196.133 230.368C196.389 230.123 196.696 230 197.054 230C197.411 230 197.716 230.123 197.968 230.368C198.225 230.608 198.353 230.9 198.353 231.242C198.353 231.58 198.225 231.871 197.968 232.117C197.716 232.357 197.411 232.477 197.054 232.477ZM10 232.415V230.569H20.8963V232.415H16.5034V244.781H14.386V232.415H10ZM24.8074 238.452V244.781H22.7519V230.569H24.7799V235.857H24.9106C25.158 235.283 25.5361 234.827 26.0449 234.49C26.5536 234.152 27.2181 233.983 28.0385 233.983C28.7626 233.983 29.3951 234.134 29.9359 234.434C30.4813 234.735 30.9029 235.184 31.2008 235.781C31.5033 236.373 31.6546 237.113 31.6546 238.001V244.781H29.599V238.251C29.599 237.469 29.3997 236.863 29.001 236.433C28.6022 235.998 28.0477 235.781 27.3373 235.781C26.8515 235.781 26.4161 235.885 26.0311 236.093C25.6507 236.301 25.3505 236.606 25.1305 237.009C24.9151 237.407 24.8074 237.888 24.8074 238.452ZM35.8734 244.323C36.625 244.772 37.521 244.996 38.5613 244.996C39.3313 244.996 40.0165 244.878 40.6168 244.642C41.2218 244.402 41.7237 244.066 42.1224 243.636C42.5257 243.201 42.8053 242.694 42.9611 242.116L41.0156 241.762C40.8918 242.095 40.7131 242.375 40.4794 242.602C40.2456 242.829 39.9683 243 39.6475 243.115C39.3267 243.226 38.9715 243.282 38.582 243.282C37.9816 243.282 37.4568 243.152 37.0077 242.893C36.5585 242.63 36.2079 242.248 35.9559 241.748C35.7254 241.283 35.6023 240.726 35.5864 240.076H43.0917V239.34C43.0917 238.374 42.9634 237.552 42.7067 236.877C42.4501 236.197 42.0995 235.644 41.6549 235.218C41.2104 234.793 40.7085 234.481 40.1494 234.282C39.5902 234.083 39.0128 233.983 38.417 233.983C37.4362 233.983 36.5792 234.217 35.8459 234.684C35.1172 235.151 34.5489 235.801 34.141 236.634C33.7377 237.467 33.536 238.429 33.536 239.521C33.536 240.627 33.7377 241.591 34.141 242.415C34.5489 243.233 35.1263 243.87 35.8734 244.323ZM35.5898 238.522C35.6145 238.063 35.7274 237.635 35.9284 237.238C36.1621 236.78 36.4921 236.41 36.9183 236.127C37.3491 235.841 37.8533 235.697 38.4307 235.697C38.9624 235.697 39.4252 235.82 39.8194 236.065C40.2181 236.31 40.5275 236.646 40.7475 237.071C40.9675 237.492 41.0774 237.976 41.0774 238.522H35.5898ZM54.6504 234.122V235.787H52.4849V241.651C52.4849 242.054 52.5445 242.357 52.6637 242.56C52.7828 242.759 52.9363 242.896 53.1242 242.97C53.3167 243.039 53.5253 243.074 53.7498 243.074C53.9148 243.074 54.0592 243.062 54.1829 243.039C54.2482 243.027 54.3058 243.016 54.3558 243.006L54.4009 242.998L54.4717 242.984L54.8429 244.698C54.7237 244.744 54.5542 244.79 54.3342 244.836C54.1142 244.887 53.8392 244.915 53.5092 244.92C52.9684 244.929 52.4643 244.832 51.9968 244.628C51.5293 244.425 51.1512 244.11 50.8625 243.684C50.5738 243.259 50.4294 242.725 50.4294 242.081V235.787H48.8826V234.122H50.4294V231.568H52.4849V234.122H54.6504ZM56.537 234.122V244.781H58.5925V238.272C58.5925 237.809 58.7025 237.397 58.9225 237.037C59.1425 236.671 59.4404 236.387 59.8162 236.183C60.1966 235.975 60.6297 235.871 61.1155 235.871C61.3263 235.871 61.5371 235.887 61.748 235.919C61.9588 235.947 62.1054 235.973 62.1879 235.996V234.011C62.0871 233.997 61.9473 233.986 61.7686 233.976C61.5944 233.967 61.4432 233.962 61.3149 233.962C60.6962 233.962 60.1416 234.129 59.6512 234.462C59.1654 234.79 58.8263 235.242 58.6338 235.815H58.5238V234.122H56.537ZM70.2686 240.361V234.122H72.3309V244.781H70.3098V242.935H70.1998C69.9569 243.504 69.5674 243.978 69.0311 244.358C68.4995 244.732 67.8372 244.92 67.0444 244.92C66.3661 244.92 65.7657 244.769 65.2432 244.469C64.7253 244.163 64.3174 243.712 64.0195 243.115C63.7262 242.519 63.5796 241.781 63.5796 240.902V234.122H65.6351V240.652C65.6351 241.378 65.8344 241.957 66.2332 242.387C66.6319 242.817 67.1498 243.032 67.7868 243.032C68.1718 243.032 68.5545 242.935 68.9349 242.741C69.3199 242.546 69.6384 242.253 69.8905 241.859C70.1471 241.466 70.2732 240.967 70.2686 240.361ZM80.7553 237.057L82.6183 236.724C82.4075 235.892 81.9744 235.228 81.319 234.733C80.6636 234.233 79.7654 233.983 78.6242 233.983C77.8313 233.983 77.1278 234.117 76.5137 234.386C75.8995 234.649 75.4183 235.017 75.07 235.489C74.7217 235.961 74.5475 236.511 74.5475 237.141C74.5475 237.899 74.7813 238.526 75.2487 239.021C75.7208 239.516 76.4495 239.877 77.4349 240.104L79.2223 240.499C79.7264 240.615 80.0999 240.786 80.3428 241.013C80.5903 241.239 80.7141 241.519 80.7141 241.852C80.7141 242.264 80.5124 242.613 80.1091 242.9C79.7058 243.183 79.1673 243.324 78.4936 243.324C77.8748 243.324 77.373 243.192 76.988 242.928C76.603 242.66 76.3487 242.264 76.2249 241.741L74.2382 242.047C74.4077 242.991 74.8661 243.719 75.6131 244.233C76.3601 244.742 77.3249 244.996 78.5073 244.996C79.3598 244.996 80.1091 244.855 80.7553 244.573C81.4061 244.29 81.9125 243.902 82.2746 243.407C82.6412 242.907 82.8246 242.338 82.8246 241.7C82.8246 240.946 82.5862 240.333 82.1096 239.861C81.633 239.389 80.9088 239.04 79.9372 238.813L78.2598 238.424C77.6778 238.286 77.2561 238.108 76.9949 237.89C76.7337 237.673 76.603 237.386 76.603 237.03C76.603 236.618 76.7978 236.282 77.1874 236.023C77.5769 235.76 78.0627 235.628 78.6448 235.628C79.071 235.628 79.4262 235.697 79.7104 235.836C79.9945 235.975 80.2191 236.153 80.3841 236.37C80.5536 236.588 80.6774 236.817 80.7553 237.057ZM89.6265 234.122V235.787H87.461V241.651C87.461 242.054 87.5206 242.357 87.6398 242.56C87.7589 242.759 87.9125 242.896 88.1004 242.97C88.2928 243.039 88.5014 243.074 88.7259 243.074C88.8909 243.074 89.0353 243.062 89.159 243.039C89.2828 243.016 89.379 242.997 89.4478 242.984L89.819 244.698C89.6998 244.744 89.5303 244.79 89.3103 244.836C89.0903 244.887 88.8153 244.915 88.4853 244.92C87.9445 244.929 87.4404 244.832 86.9729 244.628C86.5054 244.425 86.1273 244.11 85.8386 243.684C85.5499 243.259 85.4055 242.725 85.4055 242.081V235.787H83.8587V234.122H85.4055V231.568H87.461V234.122H89.6265ZM96.4142 230.569V244.781H98.4216V243.122H98.5935C98.7172 243.349 98.8937 243.608 99.1228 243.9C99.352 244.191 99.6682 244.445 100.072 244.663C100.479 244.88 101.004 244.989 101.646 244.989C102.498 244.989 103.257 244.769 103.921 244.33C104.586 243.886 105.108 243.254 105.489 242.435C105.869 241.612 106.059 240.624 106.059 239.472C106.059 238.32 105.867 237.335 105.482 236.516C105.101 235.697 104.577 235.07 103.908 234.636C103.238 234.201 102.478 233.983 101.625 233.983C100.97 233.983 100.443 234.094 100.044 234.316C99.6453 234.534 99.3337 234.788 99.1091 235.08C98.8845 235.371 98.7127 235.628 98.5935 235.85H98.4697V230.569H96.4142ZM98.7516 241.422C98.5362 240.858 98.4285 240.201 98.4285 239.451C98.4285 238.711 98.5339 238.064 98.7447 237.508C98.9556 236.953 99.2649 236.521 99.6728 236.211C100.085 235.901 100.589 235.746 101.185 235.746C101.804 235.746 102.32 235.908 102.732 236.232C103.149 236.555 103.461 236.997 103.667 237.557C103.878 238.117 103.983 238.748 103.983 239.451C103.983 240.164 103.875 240.805 103.66 241.374C103.449 241.943 103.138 242.394 102.725 242.727C102.313 243.055 101.799 243.22 101.185 243.22C100.594 243.22 100.094 243.062 99.6865 242.748C99.2787 242.428 98.967 241.987 98.7516 241.422ZM111.053 245.017C110.384 245.017 109.779 244.892 109.238 244.642C108.698 244.388 108.269 244.02 107.953 243.539C107.641 243.058 107.485 242.468 107.485 241.769C107.485 241.168 107.6 240.673 107.829 240.284C108.058 239.896 108.368 239.588 108.757 239.361C109.147 239.135 109.582 238.963 110.063 238.848C110.545 238.732 111.035 238.644 111.534 238.584L113.074 238.404C113.469 238.353 113.755 238.272 113.934 238.161C114.112 238.05 114.202 237.869 114.202 237.619V237.571C114.202 236.965 114.032 236.495 113.693 236.162C113.359 235.829 112.859 235.663 112.194 235.663C111.502 235.663 110.957 235.818 110.558 236.127C110.164 236.433 109.891 236.773 109.74 237.148L107.808 236.703C108.038 236.056 108.372 235.533 108.812 235.135C109.257 234.733 109.768 234.441 110.345 234.261C110.923 234.076 111.53 233.983 112.167 233.983C112.589 233.983 113.035 234.034 113.507 234.136C113.984 234.233 114.429 234.413 114.841 234.677C115.258 234.941 115.6 235.318 115.865 235.808C116.131 236.294 116.264 236.926 116.264 237.703V244.781H114.257V243.324H114.174C114.041 243.592 113.842 243.856 113.576 244.115C113.31 244.374 112.969 244.589 112.552 244.76C112.135 244.931 111.635 245.017 111.053 245.017ZM111.5 243.351C112.068 243.351 112.554 243.238 112.958 243.011C113.365 242.785 113.675 242.489 113.886 242.123C114.101 241.753 114.209 241.357 114.209 240.936V239.562C114.135 239.636 113.993 239.706 113.782 239.771C113.576 239.831 113.34 239.884 113.074 239.93C112.809 239.972 112.55 240.011 112.298 240.048C112.045 240.081 111.835 240.108 111.665 240.132C111.266 240.182 110.902 240.268 110.572 240.388C110.247 240.509 109.985 240.682 109.788 240.909C109.596 241.131 109.5 241.427 109.5 241.797C109.5 242.31 109.687 242.699 110.063 242.963C110.439 243.222 110.918 243.351 111.5 243.351ZM124.664 237.057L126.528 236.724C126.317 235.892 125.884 235.228 125.228 234.733C124.573 234.233 123.675 233.983 122.533 233.983C121.74 233.983 121.037 234.117 120.423 234.386C119.809 234.649 119.327 235.017 118.979 235.489C118.631 235.961 118.457 236.511 118.457 237.141C118.457 237.899 118.69 238.526 119.158 239.021C119.63 239.516 120.359 239.877 121.344 240.104L123.131 240.499C123.636 240.615 124.009 240.786 124.252 241.013C124.499 241.239 124.623 241.519 124.623 241.852C124.623 242.264 124.422 242.613 124.018 242.9C123.615 243.183 123.076 243.324 122.403 243.324C121.784 243.324 121.282 243.192 120.897 242.928C120.512 242.66 120.258 242.264 120.134 241.741L118.147 242.047C118.317 242.991 118.775 243.719 119.522 244.233C120.269 244.742 121.234 244.996 122.416 244.996C123.269 244.996 124.018 244.855 124.664 244.573C125.315 244.29 125.822 243.902 126.184 243.407C126.55 242.907 126.734 242.338 126.734 241.7C126.734 240.946 126.495 240.333 126.019 239.861C125.542 239.389 124.818 239.04 123.846 238.813L122.169 238.424C121.587 238.286 121.165 238.108 120.904 237.89C120.643 237.673 120.512 237.386 120.512 237.03C120.512 236.618 120.707 236.282 121.097 236.023C121.486 235.76 121.972 235.628 122.554 235.628C122.98 235.628 123.335 235.697 123.62 235.836C123.904 235.975 124.128 236.153 124.293 236.37C124.463 236.588 124.587 236.817 124.664 237.057ZM133.158 244.996C132.117 244.996 131.221 244.772 130.47 244.323C129.723 243.87 129.145 243.233 128.737 242.415C128.334 241.591 128.132 240.627 128.132 239.521C128.132 238.429 128.334 237.467 128.737 236.634C129.145 235.801 129.713 235.151 130.442 234.684C131.175 234.217 132.032 233.983 133.013 233.983C133.609 233.983 134.187 234.083 134.746 234.282C135.305 234.481 135.807 234.793 136.251 235.218C136.696 235.644 137.046 236.197 137.303 236.877C137.56 237.552 137.688 238.374 137.688 239.34V240.076H130.183C130.199 240.726 130.322 241.283 130.552 241.748C130.804 242.248 131.155 242.63 131.604 242.893C132.053 243.152 132.578 243.282 133.178 243.282C133.568 243.282 133.923 243.226 134.244 243.115C134.565 243 134.842 242.829 135.076 242.602C135.309 242.375 135.488 242.095 135.612 241.762L137.557 242.116C137.402 242.694 137.122 243.201 136.719 243.636C136.32 244.066 135.818 244.402 135.213 244.642C134.613 244.878 133.928 244.996 133.158 244.996ZM130.525 237.238C130.324 237.635 130.211 238.063 130.186 238.522H135.674C135.674 237.976 135.564 237.492 135.344 237.071C135.124 236.646 134.814 236.31 134.416 236.065C134.022 235.82 133.559 235.697 133.027 235.697C132.45 235.697 131.945 235.841 131.515 236.127C131.088 236.41 130.758 236.78 130.525 237.238ZM141.252 244.33C141.921 244.769 142.682 244.989 143.534 244.989C144.176 244.989 144.698 244.88 145.102 244.663C145.505 244.445 145.821 244.191 146.05 243.9C146.284 243.608 146.463 243.349 146.587 243.122H146.759V244.781H148.766V230.569H146.71V235.85H146.587C146.463 235.628 146.289 235.371 146.064 235.08C145.844 234.788 145.533 234.534 145.129 234.316C144.731 234.094 144.203 233.983 143.548 233.983C142.7 233.983 141.942 234.201 141.273 234.636C140.603 235.07 140.076 235.697 139.691 236.516C139.311 237.335 139.121 238.32 139.121 239.472C139.121 240.624 139.309 241.612 139.685 242.435C140.065 243.254 140.587 243.886 141.252 244.33ZM145.487 242.748C145.079 243.062 144.579 243.22 143.988 243.22C143.379 243.22 142.865 243.055 142.448 242.727C142.036 242.394 141.724 241.943 141.513 241.374C141.302 240.805 141.197 240.164 141.197 239.451C141.197 238.748 141.3 238.117 141.506 237.557C141.717 236.997 142.029 236.555 142.441 236.232C142.854 235.908 143.369 235.746 143.988 235.746C144.588 235.746 145.093 235.901 145.5 236.211C145.908 236.521 146.218 236.953 146.429 237.508C146.639 238.064 146.745 238.711 146.745 239.451C146.745 240.201 146.637 240.858 146.422 241.422C146.211 241.987 145.899 242.428 145.487 242.748ZM160.497 244.996C159.474 244.996 158.595 244.762 157.857 244.295C157.123 243.823 156.56 243.173 156.165 242.345C155.771 241.517 155.574 240.569 155.574 239.5C155.574 238.417 155.776 237.462 156.179 236.634C156.583 235.801 157.151 235.151 157.884 234.684C158.617 234.217 159.481 233.983 160.476 233.983C161.278 233.983 161.993 234.134 162.621 234.434C163.249 234.73 163.755 235.147 164.14 235.683C164.53 236.22 164.761 236.847 164.834 237.564H162.834C162.724 237.064 162.472 236.634 162.078 236.273C161.688 235.912 161.166 235.732 160.51 235.732C159.937 235.732 159.436 235.885 159.005 236.19C158.578 236.491 158.246 236.921 158.008 237.481C157.77 238.036 157.65 238.693 157.65 239.451C157.65 240.229 157.767 240.899 158.001 241.464C158.235 242.028 158.565 242.465 158.991 242.775C159.422 243.085 159.928 243.24 160.51 243.24C160.9 243.24 161.253 243.169 161.569 243.025C161.89 242.877 162.158 242.667 162.373 242.394C162.593 242.121 162.747 241.792 162.834 241.408H164.834C164.761 242.098 164.539 242.713 164.168 243.254C163.796 243.795 163.299 244.221 162.676 244.531C162.057 244.841 161.331 244.996 160.497 244.996ZM168.632 234.122H166.645V244.781H168.701V238.272C168.701 237.809 168.811 237.397 169.031 237.037C169.251 236.671 169.549 236.387 169.925 236.183C170.305 235.975 170.738 235.871 171.224 235.871C171.435 235.871 171.646 235.887 171.856 235.919C172.067 235.947 172.214 235.973 172.296 235.996V234.011C172.195 233.997 172.056 233.986 171.877 233.976C171.703 233.967 171.552 233.962 171.423 233.962C170.804 233.962 170.25 234.129 169.76 234.462C169.274 234.79 168.935 235.242 168.742 235.815H168.632V234.122ZM177.861 244.996C176.82 244.996 175.924 244.772 175.173 244.323C174.426 243.87 173.848 243.233 173.44 242.415C173.037 241.591 172.835 240.627 172.835 239.521C172.835 238.429 173.037 237.467 173.44 236.634C173.848 235.801 174.417 235.151 175.145 234.684C175.879 234.217 176.736 233.983 177.716 233.983C178.312 233.983 178.89 234.083 179.449 234.282C180.008 234.481 180.51 234.793 180.954 235.218C181.399 235.644 181.75 236.197 182.006 236.877C182.263 237.552 182.391 238.374 182.391 239.34V240.076H174.886C174.902 240.726 175.025 241.283 175.255 241.748C175.507 242.248 175.858 242.63 176.307 242.893C176.756 243.152 177.281 243.282 177.881 243.282C178.271 243.282 178.626 243.226 178.947 243.115C179.268 243 179.545 242.829 179.779 242.602C180.013 242.375 180.191 242.095 180.315 241.762L182.261 242.116C182.105 242.694 181.825 243.201 181.422 243.636C181.023 244.066 180.521 244.402 179.916 244.642C179.316 244.878 178.631 244.996 177.861 244.996ZM175.228 237.238C175.027 237.635 174.914 238.063 174.889 238.522H180.377C180.377 237.976 180.267 237.492 180.047 237.071C179.827 236.646 179.518 236.31 179.119 236.065C178.725 235.82 178.262 235.697 177.73 235.697C177.153 235.697 176.649 235.841 176.218 236.127C175.792 236.41 175.462 236.78 175.228 237.238ZM185.955 244.33C186.624 244.769 187.385 244.989 188.238 244.989C188.879 244.989 189.402 244.88 189.805 244.663C190.208 244.445 190.525 244.191 190.754 243.9C190.987 243.608 191.166 243.349 191.29 243.122H191.462V244.781H193.469V230.569H191.414V235.85H191.29C191.166 235.628 190.992 235.371 190.767 235.08C190.547 234.788 190.236 234.534 189.832 234.316C189.434 234.094 188.907 233.983 188.251 233.983C187.403 233.983 186.645 234.201 185.976 234.636C185.307 235.07 184.78 235.697 184.395 236.516C184.014 237.335 183.824 238.32 183.824 239.472C183.824 240.624 184.012 241.612 184.388 242.435C184.768 243.254 185.291 243.886 185.955 244.33ZM190.19 242.748C189.782 243.062 189.283 243.22 188.691 243.22C188.082 243.22 187.568 243.055 187.151 242.727C186.739 242.394 186.427 241.943 186.216 241.374C186.006 240.805 185.9 240.164 185.9 239.451C185.9 238.748 186.003 238.117 186.21 237.557C186.42 236.997 186.732 236.555 187.144 236.232C187.557 235.908 188.073 235.746 188.691 235.746C189.292 235.746 189.796 235.901 190.204 236.211C190.612 236.521 190.921 236.953 191.132 237.508C191.343 238.064 191.448 238.711 191.448 239.451C191.448 240.201 191.34 240.858 191.125 241.422C190.914 241.987 190.602 242.428 190.19 242.748ZM205.378 235.787V234.122H203.213V231.568H201.157V234.122H199.611V235.787H201.157V242.081C201.157 242.725 201.302 243.259 201.591 243.684C201.879 244.11 202.257 244.425 202.725 244.628C203.192 244.832 203.696 244.929 204.237 244.92C204.567 244.915 204.842 244.887 205.062 244.836C205.282 244.79 205.452 244.744 205.571 244.698L205.2 242.984C205.174 242.989 205.144 242.995 205.111 243.001C205.055 243.012 204.988 243.025 204.911 243.039C204.787 243.062 204.643 243.074 204.478 243.074C204.253 243.074 204.045 243.039 203.852 242.97C203.664 242.896 203.511 242.759 203.392 242.56C203.273 242.357 203.213 242.054 203.213 241.651V235.787H205.378ZM216.428 249C215.59 249 214.868 248.889 214.263 248.667C213.663 248.445 213.172 248.151 212.792 247.786C212.411 247.42 212.127 247.02 211.939 246.585L213.706 245.85C213.83 246.053 213.995 246.268 214.201 246.495C214.412 246.726 214.696 246.923 215.053 247.085C215.416 247.247 215.881 247.328 216.449 247.328C217.228 247.328 217.872 247.136 218.381 246.752C218.89 246.372 219.144 245.766 219.144 244.934V242.838H219.013C218.89 243.065 218.711 243.317 218.477 243.594C218.248 243.872 217.932 244.112 217.528 244.316C217.125 244.519 216.6 244.621 215.954 244.621C215.12 244.621 214.368 244.425 213.699 244.031C213.035 243.634 212.508 243.048 212.118 242.276C211.733 241.499 211.541 240.543 211.541 239.41C211.541 238.276 211.731 237.305 212.111 236.495C212.496 235.686 213.023 235.066 213.692 234.636C214.361 234.201 215.12 233.983 215.968 233.983C216.623 233.983 217.153 234.094 217.556 234.316C217.959 234.534 218.273 234.788 218.498 235.08C218.727 235.371 218.903 235.628 219.027 235.85H219.178V234.122H221.193V245.017C221.193 245.933 220.982 246.685 220.56 247.272C220.138 247.86 219.568 248.295 218.848 248.577C218.133 248.859 217.327 249 216.428 249ZM216.408 242.9C216.999 242.9 217.499 242.762 217.906 242.484C218.319 242.202 218.631 241.799 218.841 241.276C219.057 240.749 219.165 240.118 219.165 239.382C219.165 238.665 219.059 238.033 218.848 237.488C218.637 236.942 218.328 236.516 217.92 236.211C217.512 235.901 217.008 235.746 216.408 235.746C215.789 235.746 215.273 235.908 214.861 236.232C214.449 236.551 214.137 236.986 213.926 237.536C213.72 238.087 213.617 238.702 213.617 239.382C213.617 240.081 213.722 240.694 213.933 241.221C214.144 241.748 214.455 242.16 214.868 242.456C215.285 242.752 215.798 242.9 216.408 242.9ZM224.82 244.642C225.361 244.892 225.966 245.017 226.635 245.017C227.217 245.017 227.717 244.931 228.134 244.76C228.551 244.589 228.892 244.374 229.158 244.115C229.424 243.856 229.623 243.592 229.756 243.324H229.839V244.781H231.846V237.703C231.846 236.926 231.713 236.294 231.447 235.808C231.181 235.318 230.84 234.941 230.423 234.677C230.01 234.413 229.566 234.233 229.089 234.136C228.617 234.034 228.17 233.983 227.749 233.983C227.112 233.983 226.504 234.076 225.927 234.261C225.349 234.441 224.838 234.733 224.394 235.135C223.954 235.533 223.619 236.056 223.39 236.703L225.322 237.148C225.473 236.773 225.746 236.433 226.14 236.127C226.539 235.818 227.084 235.663 227.776 235.663C228.441 235.663 228.94 235.829 229.275 236.162C229.614 236.495 229.784 236.965 229.784 237.571V237.619C229.784 237.869 229.694 238.05 229.515 238.161C229.337 238.272 229.05 238.353 228.656 238.404L227.116 238.584C226.617 238.644 226.126 238.732 225.645 238.848C225.164 238.963 224.728 239.135 224.339 239.361C223.949 239.588 223.64 239.896 223.411 240.284C223.182 240.673 223.067 241.168 223.067 241.769C223.067 242.468 223.223 243.058 223.535 243.539C223.851 244.02 224.279 244.388 224.82 244.642ZM228.539 243.011C228.136 243.238 227.65 243.351 227.082 243.351C226.5 243.351 226.021 243.222 225.645 242.963C225.269 242.699 225.081 242.31 225.081 241.797C225.081 241.427 225.178 241.131 225.37 240.909C225.567 240.682 225.828 240.509 226.154 240.388C226.484 240.268 226.848 240.182 227.247 240.132C227.416 240.108 227.627 240.081 227.879 240.048C228.043 240.024 228.209 239.999 228.378 239.973C228.47 239.959 228.562 239.945 228.656 239.93C228.922 239.884 229.158 239.831 229.364 239.771C229.575 239.706 229.717 239.636 229.79 239.562V240.936C229.79 241.357 229.683 241.753 229.467 242.123C229.257 242.489 228.947 242.785 228.539 243.011ZM234.197 234.122H236.17V235.857H236.3C236.52 235.269 236.88 234.811 237.38 234.483C237.879 234.15 238.477 233.983 239.174 233.983C239.88 233.983 240.471 234.15 240.947 234.483C241.429 234.816 241.784 235.274 242.013 235.857H242.123C242.375 235.288 242.776 234.834 243.326 234.497C243.876 234.154 244.531 233.983 245.292 233.983C246.25 233.983 247.032 234.286 247.636 234.892C248.246 235.498 248.551 236.412 248.551 237.633V244.781H246.495V237.828C246.495 237.106 246.301 236.583 245.911 236.259C245.521 235.935 245.056 235.774 244.515 235.774C243.846 235.774 243.326 235.982 242.955 236.398C242.584 236.81 242.398 237.34 242.398 237.987V244.781H240.349V237.696C240.349 237.117 240.171 236.653 239.813 236.301C239.456 235.949 238.991 235.774 238.418 235.774C238.028 235.774 237.668 235.878 237.338 236.086C237.013 236.289 236.749 236.574 236.548 236.939C236.351 237.305 236.252 237.728 236.252 238.209V244.781H234.197V234.122ZM252.782 244.323C253.533 244.772 254.429 244.996 255.47 244.996C256.24 244.996 256.925 244.878 257.525 244.642C258.13 244.402 258.632 244.066 259.031 243.636C259.434 243.201 259.714 242.694 259.869 242.116L257.924 241.762C257.8 242.095 257.621 242.375 257.388 242.602C257.154 242.829 256.877 243 256.556 243.115C256.235 243.226 255.88 243.282 255.49 243.282C254.89 243.282 254.365 243.152 253.916 242.893C253.467 242.63 253.116 242.248 252.864 241.748C252.634 241.283 252.511 240.726 252.495 240.076H260V239.34C260 238.374 259.872 237.552 259.615 236.877C259.358 236.197 259.008 235.644 258.563 235.218C258.119 234.793 257.617 234.481 257.058 234.282C256.499 234.083 255.921 233.983 255.325 233.983C254.344 233.983 253.487 234.217 252.754 234.684C252.025 235.151 251.457 235.801 251.049 236.634C250.646 237.467 250.444 238.429 250.444 239.521C250.444 240.627 250.646 241.591 251.049 242.415C251.457 243.233 252.035 243.87 252.782 244.323ZM252.498 238.522C252.523 238.063 252.636 237.635 252.837 237.238C253.07 236.78 253.4 236.41 253.827 236.127C254.257 235.841 254.762 235.697 255.339 235.697C255.871 235.697 256.334 235.82 256.728 236.065C257.126 236.31 257.436 236.646 257.656 237.071C257.876 237.492 257.986 237.976 257.986 238.522H252.498Z" fill="white"/>
</svg>
